<?xml version="1.0" encoding="UTF-8" standalone="no"?>
<!-- Created with Inkscape (http://www.inkscape.org/) -->

<svg
   version="1.1"
   id="svg1"
   width="300"
   height="300"
   viewBox="0 0 300.00001 300.00001"
   sodipodi:docname="Bagaje.svg"
   inkscape:version="1.4 (86a8ad7, 2024-10-11)"
   xml:space="preserve"
   xmlns:inkscape="http://www.inkscape.org/namespaces/inkscape"
   xmlns:sodipodi="http://sodipodi.sourceforge.net/DTD/sodipodi-0.dtd"
   xmlns="http://www.w3.org/2000/svg"
   xmlns:svg="http://www.w3.org/2000/svg"><defs
     id="defs1" /><sodipodi:namedview
     id="namedview1"
     pagecolor="#ffffff"
     bordercolor="#000000"
     borderopacity="0.25"
     inkscape:showpageshadow="2"
     inkscape:pageopacity="0.0"
     inkscape:pagecheckerboard="0"
     inkscape:deskcolor="#d1d1d1"
     inkscape:zoom="2.3823529"
     inkscape:cx="81.4321"
     inkscape:cy="172.30864"
     inkscape:window-width="3440"
     inkscape:window-height="1369"
     inkscape:window-x="-8"
     inkscape:window-y="-8"
     inkscape:window-maximized="1"
     inkscape:current-layer="g1" /><g
     inkscape:groupmode="layer"
     inkscape:label="Image"
     id="g1"
     transform="translate(25.609656,6.4074317)"><circle
       style="fill:#d7e3f4;stroke:#000080;stroke-width:2.9998;stroke-dasharray:none"
       id="path7"
       cx="124.39035"
       cy="143.59258"
       r="148.50011" /><path
       style="fill:#000080;stroke-width:1.57791"
       d="m 76.556327,252.10264 c -0.53636,-0.86784 0.528734,-1.5779 2.366866,-1.5779 1.838145,0 2.90324,0.71006 2.366866,1.5779 -0.536359,0.86785 -1.601453,1.57793 -2.366866,1.57793 -0.765413,0 -1.830506,-0.71008 -2.366866,-1.57793 z m 26.975703,0.24462 c -0.49687,-0.80392 1.04102,-1.83517 3.41749,-2.29172 4.06079,-0.78009 6.4547,-0.26936 4.97832,1.06212 -1.84189,1.66114 -7.60727,2.50549 -8.39581,1.2296 z m 20.85477,-1.32251 c 1.13904,-0.45582 2.49998,-0.39975 3.02431,0.12465 0.52434,0.52432 -0.40763,0.89726 -2.07101,0.82874 -1.83817,-0.0757 -2.21206,-0.4496 -0.9533,-0.95331 z m 33.432,-0.33692 c 3.65567,-2.03699 15.77913,-3.53038 15.77913,-1.94369 0,1.84176 -5.68208,3.3222 -12.62331,3.28898 l -5.5227,-0.0264 z m -4.07295,-6.08027 0.87345,-2.76134 -9.84011,0.11925 c -5.41207,0.0657 -10.90521,0.42065 -12.20697,0.78895 -1.30179,0.36829 -2.19643,-0.19675 -1.9881,-1.25564 0.63402,-3.22276 -5.54126,-5.36522 -16.32823,-5.66494 l -10.25164,-0.28486 0.7051,-2.6963 c 1.23009,-4.70384 -15.741808,-13.93051 -24.985163,-13.58301 -2.964892,0.11136 -6.310692,-0.54219 -7.435121,-1.45256 -1.124414,-0.91036 -6.304754,-2.55668 -11.511857,-3.65849 -12.913865,-2.73249 -13.879636,-4.22005 -2.190832,-3.37456 l 9.69047,0.70094 -0.717579,-2.17644 c -0.394692,-1.19709 -2.259626,-2.40339 -4.144317,-2.68071 -3.980463,-0.58571 -4.068991,-0.87702 -1.51096,-4.97307 l 1.915744,-3.06758 -3.312297,-3.61712 c -9.841174,-10.74688 -7.254825,-23.63802 8.718592,-43.45603 7.624234,-9.45926 10.366143,-13.46436 25.32943,-36.99855 3.694591,-5.81084 7.71646,-11.39426 8.93747,-12.40762 3.24742,-2.69512 1.23811,-4.640693 -4.792736,-4.640693 h -5.283332 l -7.29054,8.108823 c -4.009815,4.45985 -7.682657,7.71674 -8.16188,7.23752 -1.325332,-1.32536 3.844757,-8.49496 8.168996,-11.32832 4.919093,-3.22309 4.861581,-5.278192 -0.183114,-6.544336 -7.241332,-1.817464 -3.199835,-2.074423 8.067812,-0.512971 l 11.050304,1.531336 6.25679,-2.290678 6.25681,-2.290664 -5.82698,-0.111236 C 104.82242,91.134441 95.245982,85.886741 93.837225,81.448135 93.28447,79.706544 88.298866,73.476024 82.758104,67.602525 L 72.684002,56.923451 76.198078,53.711185 c 12.586897,-11.505865 25.501802,-7.919232 34.529502,9.589272 6.01093,11.657769 4.54621,-7.815643 -1.63971,-21.8 -3.56587,-8.061195 -3.73892,-8.115702 -14.54486,-4.58126 -4.319076,1.412702 -8.28946,2.131958 -8.823063,1.59835 -1.488202,-1.488197 16.876383,-9.124788 20.648363,-8.586265 l 3.32418,0.474592 4.43193,8.678517 c 2.43756,4.773183 5.2716,8.443891 6.29789,8.157128 3.80091,-1.062047 14.05431,3.541576 15.3236,6.88006 1.82899,4.810606 -1.25759,18.098963 -4.20398,18.098963 h -2.35261 l 0.95449,-8.284037 c 1.09504,-9.50366 0.24255,-11.311942 -6.06102,-12.856429 l -4.54462,-1.11352 1.18679,3.631911 c 0.65272,1.997551 1.41455,6.727361 1.69294,10.510687 0.2784,3.783328 0.87687,7.249482 1.32993,7.702548 2.23379,2.233784 -3.08929,6.699884 -10.92188,9.163523 -4.81602,1.514821 -9.13079,3.359985 -9.58834,4.10037 -1.15259,1.86491 4.22352,1.684807 10.01939,-0.33565 2.65343,-0.92498 7.55228,-1.426464 10.88637,-1.114385 l 6.06198,0.567399 -6.31165,3.050967 -6.31166,3.050929 5.12822,0.5303 c 5.52517,0.571321 6.85519,2.819071 2.36687,4.000063 -1.51875,0.399622 -6.13414,1.604831 -10.25644,2.678266 -4.12228,1.073426 -7.49508,2.547196 -7.49508,3.275016 0,0.72781 0.88758,0.9984 1.9724,0.60125 1.08482,-0.39713 5.37324,-0.99162 9.52987,-1.32106 l 7.55746,-0.59904 -0.57788,1.73366 c -0.31784,0.95349 -5.11387,2.45785 -10.65784,3.343 l -10.07996,1.60934 -7.671996,12.62329 c -4.219597,6.94281 -13.631008,20.50779 -20.914248,30.1444 -12.975822,17.16859 -16.54345,23.40173 -16.447175,28.73556 l 0.04797,2.65861 1.613428,-2.77045 1.613426,-2.77046 4.035802,1.01293 4.035803,1.01292 -1.029974,-3.24516 -1.029975,-3.24518 3.765643,-3.67582 c 2.071108,-2.0217 5.26849,-6.16102 7.105311,-9.19849 3.300566,-5.45807 5.16562,-7.77566 18.135071,-22.53529 8.758844,-9.96781 19.459354,-17.31019 23.403084,-16.0585 l 3.03897,0.96452 11.39578,-10.92811 c 6.26767,-6.01046 13.63685,-12.213856 16.37592,-13.785328 l 4.98019,-2.857214 4.96098,2.054921 4.96101,2.054909 3.74399,-2.003723 c 4.95688,-2.652837 10.57547,-1.068773 17.37047,4.897305 6.78887,5.96071 6.85471,6.94841 0.67628,10.14341 l -4.87536,2.52114 2.50849,2.77183 c 1.37966,1.52453 2.50848,4.65508 2.50848,6.9568 v 4.18493 l -4.33926,0.95907 c -2.38659,0.52747 -7.53453,1.90439 -11.43986,3.0598 -11.14427,3.29708 -22.37155,4.45174 -23.62147,2.42932 -1.12857,-1.82606 -6.35886,-0.6392 -6.35886,1.44294 0,0.64994 5.858,4.09123 13.01777,7.64735 l 13.01778,6.46565 10.61183,1.07625 c 5.83651,0.59193 10.22348,1.70461 9.74884,2.47261 -0.47466,0.768 -5.60502,0.93303 -11.40079,0.36674 l -10.5378,-1.02964 -9.9435,-5.4958 c -14.41439,-7.96682 -13.72148,-6.90365 14.15782,21.72233 16.18735,16.62089 26.76401,28.8457 29.3221,33.89136 l 4.00146,7.89254 -2.78676,7.85132 c -5.57624,15.71035 -12.73807,21.26264 -35.54006,27.55287 -14.32698,3.95229 -14.63814,3.96363 -13.54044,0.49332 z M 91.546498,217.38859 c 0,-0.86786 -1.597641,-1.56704 -3.550313,-1.55376 l -3.550299,0.0242 2.366866,1.52961 c 3.0592,1.97699 4.733746,1.97699 4.733746,0 z m -10.256439,-3.15584 c 0.536374,-0.86785 -0.17369,-1.5779 -1.577906,-1.5779 -1.404216,0 -2.11428,0.71005 -1.577908,1.5779 0.536361,0.86786 1.246422,1.57792 1.577908,1.57792 0.331484,0 1.041547,-0.71006 1.577906,-1.57792 z m 48.955801,-6.23329 c -3.03731,-5.87351 -3.0235,-7.39384 0.078,-8.58401 l 2.48534,-0.95372 -0.47542,4.53242 c -0.54031,5.15128 2.48454,9.6607 6.48031,9.6607 4.30733,0 4.99537,-1.81732 2.34193,-6.18571 l -2.47265,-4.07073 4.04501,4.42726 c 5.39745,5.90744 5.27407,5.49176 -3.84451,-12.95192 -8.92744,-18.05703 -9.55272,-20.4795 -3.94479,-15.28222 2.16964,2.01077 3.93392,4.28455 3.92063,5.05289 -0.0127,0.76833 -0.71249,0.33187 -1.55376,-0.9699 l -1.52959,-2.36689 -0.0242,2.81087 c -0.0127,1.54599 0.97592,3.19465 2.19823,3.6637 1.22232,0.46904 3.12144,3.10947 4.22029,5.86763 1.09882,2.75816 3.29401,6.89962 4.87819,9.20321 1.58418,2.3036 2.88034,5.32136 2.88034,6.70613 0,1.49317 1.32751,2.51776 3.26215,2.51776 h 3.26214 l -1.02256,-3.5503 c -0.56241,-1.95267 -2.49274,-6.74558 -4.28959,-10.6509 -2.97186,-6.4591 -6.91691,-16.25873 -9.84597,-24.45765 l -1.12742,-3.15582 3.22336,3.94478 c 1.77284,2.16964 3.66571,5.69419 4.20638,7.83236 0.54066,2.13817 2.98144,8.17369 5.42398,13.41225 2.44252,5.23856 4.85383,10.76728 5.35847,12.28602 1.2478,3.75553 5.75026,3.51728 5.75026,-0.30428 0,-1.6861 -1.39107,-5.42331 -3.09126,-8.30493 -4.14703,-7.02869 -12.89722,-28.39386 -11.99736,-29.29373 0.94857,-0.94852 7.18559,9.33725 7.19316,11.86256 0.003,1.08217 2.80425,7.21876 6.22446,13.63686 3.42018,6.41809 5.72788,12.25486 5.12821,12.97058 -0.59969,0.71571 0.15227,0.35018 1.671,-0.81227 3.58845,-2.74667 3.5137,-7.19399 -0.18049,-10.73871 -3.11708,-2.99097 -5.54082,-7.12771 -8.06317,-13.76197 l -1.54018,-4.051 h 2.32782 c 1.37347,0 2.32781,1.47996 2.32781,3.6099 0,1.98546 2.10133,6.0683 4.66962,9.07299 2.56828,3.00471 4.69847,7.01882 4.73374,8.92028 0.0965,5.20255 11.04309,5.29441 11.0972,0.0931 0.0185,-1.78017 -1.26608,-1.45245 -5.70346,1.45502 l -4.02681,2.63848 0.76897,-4.87916 c 0.42292,-2.68352 -0.11427,-6.17854 -1.1936,-7.76668 -2.804,-4.12558 -5.67996,-13.14394 -4.19158,-13.14394 0.69091,0 2.53696,2.84024 4.10235,6.31164 2.50137,5.54704 4.77685,7.17685 9.073,6.49851 0.65087,-0.10266 1.18342,0.87824 1.18342,2.18 0,1.3018 1.08333,2.36688 2.4074,2.36688 h 2.40739 l -2.56753,-4.96509 c -2.80072,-5.41595 -39.0297,-43.24666 -43.93701,-45.87947 l -3.03089,-1.62612 -2.09732,2.86826 c -1.33848,1.83046 -2.09731,2.11523 -2.09731,0.78706 v -2.08117 l -6.50928,1.04088 c -9.11007,1.45677 -11.87789,3.27168 -16.57724,10.87016 -2.25804,3.65107 -6.41619,9.12351 -9.24037,12.16098 -2.82417,3.03749 -7.675697,9.36482 -10.7812,14.06073 l -5.646339,8.53804 1.423634,2.66009 c 0.900135,1.68191 0.793514,3.29022 -0.289942,4.37369 -0.942467,0.94246 -1.31224,2.75943 -0.82171,4.03772 1.168946,3.04623 10.336897,5.06648 12.622012,2.78132 2.780415,-2.7804 5.199565,-2.0316 7.130905,2.20726 1.05435,2.314 3.11597,3.94478 4.98702,3.94478 4.02151,0 4.03178,-2.6418 0.0338,-8.67852 -3.9129,-5.90825 -4.14924,-10.67913 -0.49416,-9.97525 1.46391,0.28193 3.25032,2.78427 3.96976,5.56073 0.71946,2.77646 1.96128,5.4518 2.7596,5.94519 0.79833,0.4934 0.68476,-1.4243 -0.25241,-4.26158 -0.93716,-2.83725 -1.92463,-8.70896 -2.19439,-13.04821 l -0.49045,-7.88956 2.0908,8.67852 c 3.39811,14.10487 9.11475,25.24659 12.95361,25.24659 h 2.25153 z M 92.828549,194.2199 c 1.139048,-0.45581 2.500005,-0.39973 3.02433,0.12466 0.524335,0.52432 -0.407625,0.89727 -2.071022,0.82875 -1.838165,-0.0757 -2.212056,-0.44961 -0.953308,-0.95331 z m 30.276191,-6.81164 c 0,-0.86787 0.75196,-1.57793 1.67103,-1.57793 0.91905,0 1.2322,0.71006 0.69583,1.57793 -0.53635,0.86784 -1.28833,1.5779 -1.67103,1.5779 -0.38271,0 -0.69583,-0.71006 -0.69583,-1.5779 z m 0,-25.88198 c 0,-1.35162 1.32067,-2.22484 3.15582,-2.0866 1.73571,0.13081 3.15583,0.41667 3.15583,0.63537 0,0.21872 -1.42012,1.15769 -3.15583,2.08661 l -3.15582,1.68895 z m 11.04539,-9.71418 c 0,-1.353 0.72164,-2.01398 1.60364,-1.46889 0.88201,0.54511 1.19512,1.65212 0.69583,2.46001 -1.35266,2.18863 -2.29947,1.78054 -2.29947,-0.99112 z m -13.63061,56.89797 c -0.49953,-1.30178 -1.1873,-2.36687 -1.52837,-2.36687 -0.3411,0 -0.62015,1.06509 -0.62015,2.36687 0,1.30177 0.68777,2.36686 1.5284,2.36686 0.84059,0 1.11967,-1.06509 0.62012,-2.36686 z m 60.96797,-13.41226 c 0,-0.86785 -0.71006,-1.57792 -1.57792,-1.57792 -0.86784,0 -1.57791,0.71007 -1.57791,1.57792 0,0.86785 0.71007,1.57792 1.57791,1.57792 0.86786,0 1.57792,-0.71007 1.57792,-1.57792 z m -65.12176,-51.44652 c -0.52433,-0.52431 -1.88528,-0.58037 -3.02433,-0.12465 -1.25874,0.50371 -0.88485,0.87762 0.95331,0.95333 1.66339,0.0684 2.59535,-0.30442 2.07102,-0.82875 z m 13.44514,-6.1625 c 4.99013,-0.55043 9.07298,-1.56444 9.07298,-2.25329 0,-0.6889 -3.01775,-0.66872 -6.70612,0.0448 -3.68836,0.71352 -9.32694,1.32823 -12.53016,1.36605 -3.20325,0.0376 -6.30983,0.8547 -6.90355,1.81536 l -1.07947,1.74664 4.53665,-0.85938 c 2.49516,-0.47263 8.61952,-1.30972 13.60967,-1.86018 z m 20.11837,-13.58043 c 7.37675,-4.43681 18.91522,-10.83392 25.64107,-14.21579 13.76136,-6.91947 14.38321,-7.85647 6.98857,-10.53041 -7.83613,-2.833579 -7.66636,-2.905834 -27.06184,11.51735 -9.91978,7.37674 -18.78094,13.41226 -19.69146,13.41226 -3.80006,0 -0.96032,-3.44774 10.96783,-13.31614 13.49072,-11.16114 15.6393,-14.395572 7.73153,-11.63893 -4.92676,1.71749 -15.33216,11.4964 -26.97355,25.34954 l -6.29844,7.49508 7.64203,-0.003 7.642,-0.003 z m 18.93494,0.0889 c 6.46549,-1.73351 13.84544,-6.22675 10.20007,-6.21026 -2.42806,0.011 -22.87861,7.40334 -24.09059,8.70817 -1.15591,1.24441 2.15002,0.64992 13.89052,-2.49791 z M 103.32784,76.559933 c -0.58004,-1.952672 -2.03698,-4.330577 -3.23763,-5.284228 -1.200657,-0.953663 -1.858274,-2.058686 -1.461348,-2.455601 1.455638,-1.45565 -2.598473,-12.493038 -6.072099,-16.531355 l -3.576542,-4.157989 -5.809161,5.100509 -5.809162,5.100508 3.172586,4.033284 c 4.843413,6.157393 12.910576,11.544404 15.877712,10.602679 l 2.657549,-0.843473 1.002175,3.992972 c 0.5512,2.196139 1.74655,3.992983 2.65634,3.992983 0.97601,0 1.22181,-1.455584 0.59958,-3.5503 z M 85.234845,242.63515 c 0,-0.86784 2.172096,-1.5779 4.826864,-1.5779 2.816094,0 4.420596,0.65733 3.851662,1.5779 -0.536379,0.86785 -2.708461,1.57792 -4.82687,1.57792 -2.11842,0 -3.851656,-0.71007 -3.851656,-1.57792 z m 25.246595,-0.0561 c 0,-1.04245 5.33407,-3.02449 8.28403,-3.07819 0.65089,-0.0126 1.18344,0.99605 1.18344,2.23979 v 2.26133 l -4.73374,-0.1346 c -2.60355,-0.0739 -4.73373,-0.65379 -4.73373,-1.28836 z m -50.789046,-1.02182 c 1.139049,-0.45581 2.499997,-0.39973 3.024322,0.12467 0.524339,0.52432 -0.407625,0.89726 -2.071012,0.82875 -1.838168,-0.0757 -2.212059,-0.44963 -0.95331,-0.95333 z m 3.841237,-8.77151 c 0.876212,-2.63154 5.885909,-3.5167 7.680761,-1.35709 0.782888,0.942 0.989487,1.40896 0.459102,1.03766 -0.530398,-0.37127 -2.727544,-0.005 -4.882553,0.81463 l -3.918203,1.48972 z m 29.590773,-1.19597 c 0,-0.86785 1.817066,-1.57791 4.037922,-1.57791 2.290118,0 3.615774,0.68299 3.062684,1.57791 -0.536368,0.86786 -2.353423,1.57792 -4.037904,1.57792 -1.684482,0 -3.062702,-0.71006 -3.062702,-1.57792 z m -36.008499,-5.18113 c -2.206183,-2.65826 -0.451052,-5.27873 4.897549,-7.31227 l 4.327844,-1.64545 8.263341,3.2375 c 12.148476,4.75965 12.129241,5.85351 -0.08755,4.97941 l -10.943706,-0.78302 -1.09674,1.77457 c -1.441158,2.33183 -3.289175,2.24539 -5.36077,-0.25074 z M 111.1775,112.35976 c 1.68461,-1.24813 4.82071,-2.26935 6.9691,-2.26935 5.30851,0 3.35588,1.56427 -3.98985,3.19629 l -6.04217,1.34241 z M 97.858136,39.873338 c 0,-1.301777 0.710074,-2.366867 1.577924,-2.366867 0.86784,0 1.57791,1.06509 1.57791,2.366867 0,1.301778 -0.71007,2.366868 -1.57791,2.366868 -0.86785,0 -1.577924,-1.06509 -1.577924,-2.366868 z"
       id="path12"
       sodipodi:nodetypes="ssssssssscssccssscscccssscscscscssscssscscsssssccccsscsssssscsssscsscsssscsscccsssssccsscssscccccccsssscsscccssscsscssssscssscssscssccsscsssssssssscssscssscsccssssscssscssssssscssssscsssscscscsscsscsscsscsssscsssssssssssscsscsccsccsssssscsscsssssssssssssssccscccsscscscccsssssssccccsssssssscccsscsssssssssscsccssccsccsssccsssssssscsscsssssscssssss" /><path
       d="m 16.973317,119.40057 4.928002,4.256 0.970667,2.83733 v 32.33069 q 0.149334,0.448 0.597334,1.26933 0.448,0.52267 0.896,0.896 h 0.07467 q 0,0.0747 0,0.14933 0.07467,0 0.224,0 0.149334,0 0.224,0.0747 0.149334,0.0747 0.224,0.224 0.149334,0.0747 0.448001,0.14933 0.373333,0.0747 0.672,0.0747 0.672,-0.37333 1.493334,-1.19467 0.896,-0.896 1.269334,-1.49333 l 1.12,1.12 -8.81067,7.69067 -7.840004,-6.272 q 1.418667,-0.896 2.165334,-3.88267 V 129.8539 q -0.149333,-0.0747 -0.224,-0.29866 0,-0.29867 -0.149333,-0.37334 -0.298667,-1.26933 -1.493334,-2.464 -0.597334,-0.82133 -1.269334,-0.896 l -3.2106685,2.016 q -0.074667,0.0747 -0.4480002,-0.0747 L 8.4613127,127.3899 Z"
       id="text5"
       style="-inkscape-font-specification:'Cloister Black, Normal';fill:#000080;stroke-width:3;stroke-linecap:round"
       aria-label="1" /><path
       style="-inkscape-font-specification:'Cloister Black, Normal';fill:#000080;stroke-width:3;stroke-linecap:round"
       d="m 225.59061,119.40057 4.928,4.256 0.97067,2.83733 v 32.33069 q 0.14933,0.448 0.59733,1.26933 0.448,0.52267 0.896,0.896 h 0.0747 q 0,0.0747 0,0.14933 0.0747,0 0.224,0 0.14933,0 0.224,0.0747 0.14933,0.0747 0.224,0.224 0.14934,0.0747 0.448,0.14933 0.37334,0.0747 0.672,0.0747 0.672,-0.37333 1.49334,-1.19467 0.896,-0.896 1.26933,-1.49333 l 1.12,1.12 -8.81067,7.69067 -7.84,-6.272 q 1.41866,-0.896 2.16533,-3.88267 V 129.8539 q -0.14933,-0.0747 -0.224,-0.29866 0,-0.29867 -0.14933,-0.37334 -0.29867,-1.26933 -1.49334,-2.464 -0.59733,-0.82133 -1.26933,-0.896 l -3.21067,2.016 q -0.0747,0.0747 -0.448,-0.0747 l -0.37333,-0.37334 z"
       id="text2"
       aria-label="1" /></g></svg>
