<?xml version="1.0" encoding="UTF-8" standalone="no"?>
<!-- Created with Inkscape (http://www.inkscape.org/) -->

<svg
   version="1.1"
   id="svg1"
   width="300"
   height="300"
   viewBox="0 0 300.00001 300.00001"
   sodipodi:docname="Caballero.svg"
   inkscape:version="1.4 (86a8ad7, 2024-10-11)"
   xmlns:inkscape="http://www.inkscape.org/namespaces/inkscape"
   xmlns:sodipodi="http://sodipodi.sourceforge.net/DTD/sodipodi-0.dtd"
   xmlns="http://www.w3.org/2000/svg"
   xmlns:svg="http://www.w3.org/2000/svg">
  <defs
     id="defs1" />
  <sodipodi:namedview
     id="namedview1"
     pagecolor="#ffffff"
     bordercolor="#000000"
     borderopacity="0.25"
     inkscape:showpageshadow="2"
     inkscape:pageopacity="0.0"
     inkscape:pagecheckerboard="0"
     inkscape:deskcolor="#d1d1d1"
     inkscape:zoom="2.3823529"
     inkscape:cx="162.02469"
     inkscape:cy="172.30864"
     inkscape:window-width="3440"
     inkscape:window-height="1369"
     inkscape:window-x="-8"
     inkscape:window-y="-8"
     inkscape:window-maximized="1"
     inkscape:current-layer="g1" />
  <g
     inkscape:groupmode="layer"
     inkscape:label="Image"
     id="g1"
     transform="translate(24.580238,6.4074245)">
    <circle
       style="fill:#d7e3f4;stroke:#000080;stroke-width:2.9998;stroke-dasharray:none"
       id="path7"
       cx="124.39036"
       cy="142.56317"
       r="148.50011" />
    <path
       style="fill:#000080;stroke-width:1.01646"
       d="m 177.17175,236.5325 c -1.59565,-1.70308 -3.18925,-4.00141 -3.54131,-5.10738 -0.35206,-1.10596 -1.74978,-3.11722 -3.10606,-4.46947 -1.77047,-1.76523 -2.46594,-3.58067 -2.46594,-6.43698 0,-4.69741 -2.18996,-11.33758 -5.06843,-15.36805 -1.13156,-1.58442 -2.05737,-3.89646 -2.05737,-5.1379 0,-2.33603 -4.52218,-10.74919 -8.16543,-15.19118 l -2.08114,-2.53738 0.68199,4.05982 c 0.3751,2.2329 2.03005,8.39874 3.67768,13.70187 5.53159,17.80423 4.14567,31.51814 -3.17812,31.44802 l -1.62368,-0.0155 1.43889,-0.9081 c 0.97211,-0.61353 0.14654,-0.85815 -2.54492,-0.75408 -2.1911,0.0847 -5.12903,-0.23607 -6.52873,-0.71284 -1.80972,-0.61647 -2.24577,-0.55034 -1.50937,0.22892 0.56954,0.6027 2.85998,1.5216 5.08984,2.04203 2.98599,0.69688 3.37338,0.97307 1.47013,1.04816 -1.42132,0.0561 -4.3812,-0.81153 -6.57757,-1.92798 -4.77657,-2.42802 -4.58085,-2.40633 -4.58085,-0.50746 0,2.21258 -2.54419,1.86541 -5.57836,-0.76122 l -2.63795,-2.28364 2.47752,-6.27213 c 1.36262,-3.44966 3.28166,-9.67312 4.26454,-13.8299 l 1.78706,-7.55778 -2.93837,-8.24535 c -1.92441,-5.40009 -3.47129,-8.24664 -4.48278,-8.24914 -0.84943,-0.002 -3.14771,-1.00436 -5.10731,-2.22729 -8.86623,-5.53316 -32.78424,-14.0589 -25.607751,-9.12806 l 1.368451,0.94025 -1.779101,3.43328 c -0.978504,1.8883 -3.541183,5.51796 -5.694833,8.0659 -4.5329,5.36278 -4.522995,5.2871 -1.993389,15.22157 1.057295,4.15226 2.197126,8.74953 2.532975,10.21615 0.335839,1.46663 1.75263,3.41263 3.14842,4.32448 l 2.53779,1.65789 3.966658,-1.23432 3.96667,-1.23431 -2.44548,-6.47778 c -1.345,-3.56277 -3.37723,-8.29875 -4.516038,-10.52439 -1.138818,-2.22563 -1.871238,-4.58341 -1.627607,-5.23949 0.243622,-0.65609 0.819785,0.17731 1.280352,1.85199 l 0.837393,3.04485 1.76169,-11.67196 1.76169,-11.67196 -0.56488,7.59599 c -1.08534,14.59471 -0.63579,19.35217 2.66572,28.21034 3.65887,9.81698 3.80253,11.48407 1.19266,13.83897 l -1.93906,1.74962 4.55431,4.54082 c 2.50486,2.49745 4.37308,5.09219 4.15159,5.76609 -0.68846,2.09473 -7.96341,3.94312 -11.92493,3.02982 l -3.591548,-0.82798 -1.493873,-4.62802 c -0.947079,-2.93402 -2.362669,-5.0368 -3.867422,-5.74482 l -2.373531,-1.11681 -4.276352,1.93565 c -6.169653,2.79266 -7.773598,2.56125 -8.534379,-1.23137 l -0.644232,-3.21163 -1.408239,5.48637 c -2.209546,8.6082 -5.943961,8.63029 -10.552618,0.0625 -0.990057,-1.84058 -2.498192,-4.11562 -3.351392,-5.0556 l -1.551296,-1.70909 0.598088,-7.88457 0.598078,-7.88458 -3.185667,-4.42282 c -1.752122,-2.43255 -3.650138,-5.64084 -4.217809,-7.12952 l -1.03215,-2.70671 1.549656,-2.98781 c 0.852306,-1.64334 1.941595,-2.98786 2.420632,-2.98786 3.232636,0 3.853588,-14.76471 1.007363,-23.9524 -2.46984,-7.97275 -2.337229,-17.2018 0.323042,-22.48152 l 1.66195,-3.29837 -2.721289,0.66781 c -1.496703,0.3673 -3.694043,1.29533 -4.88296,2.0623 -6.175336,3.98369 -18.522828,2.36977 -24.641848,-3.22089 l -3.735595,-3.41305 v -10.30891 -10.30893 l 1.590965,-1.18753 c 0.875028,-0.65313 2.402472,-2.55769 3.394321,-4.23237 2.163564,-3.65303 5.481689,-6.24831 9.168014,-7.170777 l 2.712534,-0.678779 -2.579587,4.837166 c -8.410298,15.77072 4.56743,30.5087 21.342718,24.23754 2.239534,-0.83721 7.093573,-1.70868 10.78674,-1.93661 3.693176,-0.22792 8.732131,-1.11479 11.197676,-1.97082 2.465553,-0.85601 5.298149,-1.56304 6.29466,-1.57117 l 1.811846,-0.0148 -2.27999,-3.94983 -2.28,-3.94985 1.230279,-2.69215 c 0.676655,-1.48069 1.803497,-2.61789 2.504095,-2.52711 5.989229,0.77606 6.667962,-3.18587 1.280077,-7.47213 -6.262258,-4.981897 -8.389093,-11.887492 -3.66119,-11.887492 2.505235,0 3.854606,-1.980906 2.090045,-3.068226 -1.520166,-0.936731 -1.529744,-7.205634 -0.01526,-10.026991 l 1.026002,-1.911423 -2.148457,-1.422294 c -4.034219,-2.67066 2.409759,-9.959844 8.804975,-9.959844 h 1.602571 L 97.22065,56.991457 c -1.92354,-14.457277 13.04142,-19.033368 18.55233,-5.673015 1.04277,2.528057 2.23952,4.598176 2.65942,4.600267 1.07646,0.005 0.94907,4.459777 -0.2148,7.511917 -2.01626,5.287442 1.15783,9.789755 8.35192,11.846873 l 3.01796,0.862975 0.52468,-2.000453 c 0.28857,-1.100241 1.63117,-2.277333 2.98351,-2.615749 1.35234,-0.338406 3.15875,-1.964779 4.0142,-3.614138 l 1.55536,-2.998853 -1.24236,-1.492531 c -1.89177,-2.272663 0.2733,-3.956685 3.12831,-2.43326 2.73223,1.457921 0.95337,4.096486 13.33514,-19.779803 9.90508,-19.100352 13.65268,-24.866366 16.16182,-24.866366 3.18606,0 0.48085,7.724499 -9.69493,27.683166 l -10.75917,21.102908 2.26839,1.831382 c 2.51523,2.030669 1.82867,4.612326 -0.98943,3.720546 -1.284,-0.406316 -2.06922,0.343076 -2.97428,2.838552 -1.1766,3.244209 -8.07586,9.81039 -10.30803,9.81039 -0.58632,0 -1.99411,0.792293 -3.12842,1.76065 l -2.06242,1.76066 2.15419,1.62008 2.15417,1.620079 0.54295,6.744052 c 0.50266,6.243504 2.30414,8.755694 2.30414,3.213164 0,-1.756894 0.43001,-2.281095 1.52695,-1.861419 1.02055,0.390467 1.52697,-0.04278 1.52697,-1.306518 0,-1.124633 1.23728,-2.436783 3.05358,-3.238369 1.67945,-0.741199 5.44906,-3.850158 8.3769,-6.908784 2.92784,-3.058633 5.4653,-5.136548 5.6388,-4.617601 0.1735,0.518946 4.99302,-0.621964 10.71003,-2.535355 13.94799,-4.668178 26.2742,-4.725656 33.78722,-0.15756 1.69103,1.028188 3.90327,1.871137 4.91612,1.873218 1.01283,0.002 1.58396,0.419308 1.26915,0.92716 -1.52061,2.453102 0.76658,4.151404 5.5909,4.151404 5.89662,0 7.19723,1.390913 3.21871,3.442195 -1.59876,0.824295 -3.54332,2.263368 -4.32124,3.197914 l -1.41438,1.699187 1.81405,1.322524 1.81405,1.322542 -1.85248,1.036758 -1.85247,1.036768 1.52695,0.516307 c 0.83984,0.283979 2.44313,0.691359 3.5629,0.905319 l 2.03595,0.38901 -3.81739,1.8883 c -2.65298,1.31233 -3.81739,2.55874 -3.81739,4.08625 0,3.25855 -2.0669,8.81792 -4.13723,11.12796 -1.00059,1.11645 -3.02939,4.0852 -4.50843,6.5972 -1.60427,2.72467 -2.41456,3.54361 -2.00844,2.02991 0.37443,-1.39556 1.93424,-4.13593 3.46626,-6.08971 3.9905,-5.08908 5.03609,-7.34945 5.3159,-11.49182 0.32843,-4.86226 -0.0784,-5.12853 -8.81676,-5.77261 -1.13147,-0.0834 -1.46783,-0.37841 -0.75713,-0.66409 0.70334,-0.28271 0.97176,-1.00937 0.5965,-1.61478 -0.43406,-0.70023 -0.0659,-0.86492 1.0116,-0.45264 2.45437,0.93904 2.09823,0.37659 -1.38949,-2.194343 l -3.08346,-2.27294 -4.0443,4.196833 c -5.14957,5.3438 -5.71129,7.7741 -3.71357,16.06688 l 1.62289,6.73689 -1.02476,4.51231 -1.02477,4.51233 1.93925,2.59234 c 2.21626,2.96267 4.96807,3.83286 6.66698,2.10826 l 1.16432,-1.18197 -2.63677,0.64864 -2.63679,0.64862 -1.71711,-2.61286 -1.71708,-2.61287 0.9787,-3.29245 0.97871,-3.29244 -0.13503,3.71339 c -0.24814,6.82378 3.22595,8.8018 6.40193,3.64502 l 2.03155,-3.2986 -0.66383,3.55233 c -0.44857,2.40049 -2.34995,5.22967 -5.8639,8.72526 l -5.20008,5.17292 -4.07187,0.6343 c -2.76776,0.43115 -3.58284,0.32342 -2.54493,-0.33635 0.83982,-0.53385 1.06886,-0.97064 0.50897,-0.97064 -0.55987,0 -1.7051,0.44274 -2.54492,0.98387 -1.01797,0.65591 -1.1028,0.98904 -0.2545,0.99941 0.69987,0.009 1.27248,0.42396 1.27248,0.92315 0,1.34652 5.07999,6.37038 9.27069,9.16824 2.01952,1.34832 4.47646,3.6451 5.45988,5.10396 1.64298,2.43732 8.54776,6.13421 11.45704,6.13421 2.62472,0 3.44426,3.83723 1.89299,8.86334 -0.82134,2.6612 -1.77607,7.83025 -2.1216,11.48675 -0.34554,3.65651 -1.21428,7.76708 -1.93056,9.13459 l -1.30232,2.48637 1.47374,3.04486 c 0.81055,1.67467 3.10879,4.74664 5.10722,6.82659 l 3.63346,3.78174 -3.71294,1.54678 c -5.75953,2.39933 -6.7065,2.04469 -8.06527,-3.02053 -0.67386,-2.512 -1.61838,-4.56729 -2.09896,-4.56729 -1.7151,0 -5.38705,2.37834 -9.62442,6.2338 -4.67699,4.25545 -5.48972,4.47515 -10.33079,2.79254 l -3.23156,-1.12319 0.63522,-3.69784 c 0.34939,-2.0338 1.31493,-6.42114 2.14567,-9.74962 1.86196,-7.46032 1.40466,-9.86839 -3.81297,-20.07822 -3.89025,-7.6124 -4.64302,-11.8366 -1.31191,-7.36187 7.35071,9.87436 9.70029,20.18385 6.97636,30.61074 -0.83981,3.21476 -1.52695,6.6625 -1.52695,7.66167 v 1.81666 h 3.3563 3.3563 l 3.98838,-4.07237 c 3.7358,-3.81445 9.91429,-6.66657 11.85332,-5.47172 1.13147,0.69721 1.07528,-1.73814 -0.0822,-3.56117 l -0.91001,-1.4333 -1.76217,1.75695 c -0.9692,0.96632 -2.8454,2.4646 -4.16937,3.32952 l -2.40718,1.57259 -1.52188,-1.25928 c -1.8464,-1.52787 -2.01325,-7.62119 -0.24937,-9.10795 0.69985,-0.5899 2.87576,-2.10718 4.83535,-3.37174 l 3.5629,-2.29921 0.33212,-4.53414 c 0.18268,-2.49379 -0.17927,-6.2469 -0.80434,-8.34025 l -1.13646,-3.80607 h -2.36594 c -1.76047,0 -2.79035,0.974 -4.02444,3.80607 -1.56963,3.60215 -1.70834,1.74107 -0.15128,-2.0299 l 0.73338,-1.77617 -4.94427,-0.0243 c -6.2186,-0.0304 -12.64442,-1.48388 -13.63651,-3.08437 -0.53307,-0.85996 -1.1066,-0.57913 -1.92284,0.94156 -0.63978,1.19186 -1.83423,2.16703 -2.65434,2.16703 h -1.49117 v 6.8019 c 0,5.8985 1.0634,11.77459 5.21889,28.83857 0.49149,2.01821 2.2841,5.41396 3.98356,7.54615 1.69949,2.13218 2.95817,4.53917 2.7971,5.34888 -0.16108,0.80971 1.42496,3.18351 3.5245,5.27511 4.20442,4.18849 4.87185,7.46748 1.84838,9.0808 -3.37917,1.80312 -6.26772,1.16611 -9.27707,-2.04588 z m 10.22812,-1.30347 c 0,-2.51213 -2.0341,-3.52827 -4.64618,-2.32097 -3.0069,1.3898 -3.13235,2.31783 -0.4289,3.17332 1.12791,0.35693 1.75976,1.11836 1.40412,1.69209 -0.39146,0.63153 0.20521,0.58862 1.51217,-0.10879 1.18734,-0.63355 2.15879,-1.7296 2.15879,-2.43565 z m -76.94001,-0.27588 c 2.11353,-0.80862 2.04355,-2.74032 -0.17124,-4.72746 l -1.78146,-1.59832 -2.36808,1.92014 c -2.43013,1.97047 -2.11523,4.5761 0.43512,3.60034 0.78319,-0.29966 1.42398,-0.10242 1.42398,0.43827 0,1.15028 0.29829,1.19475 2.46168,0.36703 z m -36.20789,-5.47178 1.065256,-3.04673 H 73.56074 c -0.966065,0 -2.774581,-0.71098 -4.018928,-1.57997 l -2.262449,-1.58 v 1.45572 c 0,0.80063 0.68713,2.02428 1.526955,2.71921 1.692232,1.40027 2.119394,3.52972 0.508985,2.53739 -1.759705,-1.08433 -1.104885,0.7278 0.75226,2.08174 2.217027,1.61632 2.851894,1.22377 4.184407,-2.58736 z m 61.23141,-0.38507 c 0,-0.76898 -0.70655,-1.98279 -1.57009,-2.69735 l -1.57011,-1.29921 -1.22931,1.32384 c -0.67613,0.7281 -0.74937,1.05858 -0.16274,0.73441 0.58661,-0.32417 1.73182,-0.16981 2.54492,0.34303 1.10432,0.69654 1.14121,0.93638 0.14581,0.94799 -0.7329,0.009 -1.04943,0.47227 -0.70341,1.0305 0.91982,1.48389 2.54493,1.2392 2.54493,-0.38321 z m 18.32346,-1.65331 c 0,-1.00711 -2.62834,-2.0233 -5.23318,-2.0233 -1.16825,0 -1.7308,-0.45488 -1.34074,-1.08415 0.36963,-0.59627 1.4134,-0.80051 2.3195,-0.45383 0.90609,0.34667 1.33061,0.31442 0.94339,-0.0717 -0.38726,-0.38609 0.41014,-2.02224 1.77196,-3.63587 5.20374,-6.16595 2.83398,-22.98561 -5.08277,-36.07572 -1.95395,-3.23076 -3.55208,-6.33084 -3.55143,-6.88906 6.5e-4,-0.55823 0.90891,0.46941 2.01835,2.28363 2.61416,4.27482 2.54896,4.35476 2.59938,-3.18601 l 0.0432,-6.47347 2.70817,-3.54004 c 1.48947,-1.94704 5.36372,-5.30238 8.60946,-7.45636 l 5.90131,-3.91629 -5.08984,-0.77973 c -6.43398,-0.98564 -8.69819,-0.45305 -12.8375,3.01962 -2.17975,1.8287 -2.9681,2.1549 -2.29053,0.94775 0.56822,-1.01237 2.32036,-2.68254 3.8936,-3.71153 l 2.86046,-1.87087 -4.18297,-2.12768 c -4.95146,-2.51856 -11.55831,-8.08752 -10.88447,-9.1746 0.26088,-0.42085 -0.65678,-1.82462 -2.03923,-3.11953 -1.38243,-1.29492 -2.51354,-1.92789 -2.51354,-1.40663 0,0.52124 0.96077,1.54596 2.13507,2.27714 1.17429,0.73119 1.8725,1.59122 1.55156,1.9112 -0.32093,0.31999 -1.24092,0.0378 -2.04445,-0.62708 l -1.46093,-1.20887 -0.75688,1.22106 c -0.5028,0.81111 -0.32575,0.95536 0.52741,0.42966 1.6138,-0.99443 0.46526,3.26285 -1.49795,5.55252 -5.96905,6.96156 -3.3553,31.01781 5.04758,46.45656 l 1.50693,2.76869 0.19329,-5.58224 c 0.11336,-3.27396 0.3735,-4.37787 0.62911,-2.66964 0.89425,5.9762 -2.5955,24.37647 -6.32929,33.37199 -0.49798,1.19976 -0.27103,1.77616 0.69934,1.77616 0.7901,0 3.54435,1.33279 6.12057,2.96172 2.5762,1.62893 5.75797,3.1168 7.07059,3.30635 3.27017,0.47224 7.98543,-0.23628 7.98543,-1.1999 z m -11.1173,-53.36304 c 0.0488,-1.18237 0.29006,-1.42287 0.61502,-0.6132 0.29407,0.73266 0.25791,1.60806 -0.0804,1.94533 -0.33827,0.33727 -0.57885,-0.2622 -0.53466,-1.33213 z m -2.11631,53.9599 c 0,-0.93477 -6.97834,-4.65007 -8.7341,-4.65007 -1.073,0 0.0687,1.02852 2.66507,2.40114 4.67173,2.46966 6.06903,2.98744 6.06903,2.24893 z m 16.85463,-6.12443 c 0.35529,-1.88819 0.22773,-4.17818 -0.28344,-5.08889 l -0.92939,-1.65581 -1.22064,2.84084 -1.22062,2.84085 1.54349,-1.97016 1.5435,-1.97015 v 1.6565 c 0,1.54555 -1.6712,3.24765 -3.22358,3.28322 -0.37324,0.008 -0.94585,0.35808 -1.27246,0.77676 -0.32659,0.41865 -0.31596,0.56029 0.0236,0.31474 0.95351,-0.68948 3.31276,1.85067 2.6813,2.88693 -0.30769,0.50491 -0.0482,0.60307 0.57639,0.21814 0.62472,-0.38494 1.42652,-2.24479 1.7818,-4.13297 z m -70.763134,-2.13073 c 1.754574,-2.10787 -0.10882,-1.77088 -3.097837,0.56023 -3.721577,2.90244 -5.125349,2.46482 -1.526956,-0.47601 l 3.053911,-2.49584 -3.301074,-0.0366 -3.301075,-0.0366 0.154468,3.93042 0.154467,3.93041 3.320375,-1.95328 c 1.826209,-1.07429 3.870883,-2.6146 4.543721,-3.42293 z m -0.385913,3.94009 c 1.267078,-0.5086 1.482472,-0.31677 0.85476,0.76122 -0.461549,0.79265 -0.574869,1.2128 -0.251816,0.93369 0.323043,-0.27911 0.511012,-0.81323 0.417694,-1.18692 -0.09335,-0.3737 0.927117,-1.84346 2.26762,-3.26614 l 2.437287,-2.58668 -2.349772,-10.43575 c -1.292374,-5.73964 -2.389156,-11.64812 -2.437285,-13.12994 -0.04815,-1.48182 -0.401681,-2.50062 -0.785661,-2.26399 -3.382714,2.08442 -2.864485,-27.08547 0.597113,-33.61005 0.888504,-1.67466 1.618267,-4.0725 1.621719,-5.3285 0.0031,-1.25601 0.464356,-2.28365 1.02424,-2.28365 0.559883,0 1.010956,-0.79927 1.002385,-1.77616 l -0.01558,-1.77617 -0.9868,1.52242 -0.98679,1.52243 -0.01558,-2.15937 c -0.0081,-1.18765 -0.702725,-2.72793 -1.542551,-3.42287 -0.8469,-0.70079 -1.454394,-2.67723 -1.36404,-4.43782 l 0.162917,-3.17433 0.410568,3.2986 c 0.225816,1.81422 0.796744,3.2986 1.268737,3.2986 0.471992,0 0.619771,-1.02765 0.328387,-2.28365 l -0.529793,-2.28364 1.658387,2.22328 c 0.917332,1.22981 3.129891,2.41652 4.951468,2.6557 1.851038,0.24305 1.406653,0.32499 -1.014804,0.1871 -7.316898,-0.41662 -3.839611,1.18977 4.019374,1.85683 4.077863,0.34613 8.903073,0.92826 10.722703,1.29364 2.16686,0.43507 3.3084,0.2703 3.3084,-0.47753 0,-0.62801 -1.71783,-1.18735 -3.81739,-1.243 -2.09956,-0.0555 -4.9626,-0.49139 -6.36231,-0.96832 -1.621123,-0.55238 -0.0507,-0.65694 4.32638,-0.28807 l 6.8713,0.57909 v -1.56002 c 0,-0.91012 -1.27966,-1.84026 -3.07161,-2.23268 -1.96799,-0.43095 -3.62326,-1.73628 -4.60701,-3.63297 l -1.5354,-2.96035 h -2.944517 c -4.269376,0 -6.164939,-0.9696 -6.164939,-3.15344 0,-1.05673 -0.4152,-1.92133 -0.922669,-1.92133 -0.507468,0 -0.681297,0.92025 -0.386299,2.045 l 0.536369,2.04499 -1.649641,-0.63116 -1.649642,-0.63115 -0.162905,3.4072 -0.162916,3.40719 -0.490591,-3.55234 -0.490581,-3.55233 -0.771988,2.53737 -0.771987,2.53739 -0.101492,-2.60124 c -0.05731,-1.46836 -1.43149,-3.87169 -3.155382,-5.51839 -1.679652,-1.60443 -3.053913,-3.50539 -3.053913,-4.22433 0,-3.33696 -12.402595,1.74041 -16.705424,6.83888 -4.881545,5.7842 -6.060822,9.09455 -6.131928,17.21291 l -0.06698,7.64801 1.815245,2.50153 c 0.998385,1.37583 2.945254,4.05344 4.326373,5.95021 1.381122,1.89678 2.51113,3.90161 2.51113,4.45519 0,0.55356 -1.198263,-0.76998 -2.662805,-2.94121 -1.464544,-2.17124 -2.724283,-4.02383 -2.799419,-4.11688 -0.07513,-0.0931 -0.136614,3.87079 -0.136614,8.80851 v 8.97769 l 1.78145,-1.60741 c 1.095081,-0.9881 1.781448,-1.15575 1.781448,-0.43515 0,0.64474 -0.44752,1.17225 -0.994496,1.17225 -0.546975,0 -1.650059,1.02765 -2.451304,2.28366 l -1.456786,2.28364 1.3975,9.64205 c 0.768618,5.30314 1.413614,12.0399 1.433323,14.97058 0.02392,3.55007 0.46052,5.33881 1.308285,5.35936 0.706187,0.0171 0.479678,0.49125 -0.508985,1.0654 -2.329229,1.35262 -2.329229,3.39547 0,2.4824 4.343384,-1.70264 13.908408,-2.57948 18.688614,-1.71321 3.644283,0.66038 4.955266,0.59868 4.682846,-0.2204 -0.524783,-1.57788 -8.17873,-2.61498 -15.482189,-2.09782 l -6.107823,0.43248 3.562896,-1.11562 c 1.977693,-0.61925 6.547088,-0.8729 10.270122,-0.5701 l 6.707213,0.54553 -3.400164,-6.77818 c -4.068797,-8.11107 -6.48102,-15.64755 -6.370448,-19.90304 0.05273,-2.03087 0.575621,-0.81917 1.502829,3.48281 0.782046,3.62847 3.723186,11.44257 6.535879,17.3647 6.086242,12.81457 6.063765,12.59364 1.551082,15.2483 -3.606486,2.12158 -4.839533,3.64263 -2.035941,2.51149 0.839826,-0.33883 2.289233,-0.92204 3.22091,-1.29602 z m -8.78879,-52.78097 c -0.04265,-1.63915 4.968113,-7.43745 6.421857,-7.43125 0.650085,0.003 -0.02881,1.03041 -1.508704,2.28365 -1.479874,1.25323 -3.183774,3.19206 -3.786432,4.30851 -0.60267,1.11645 -1.10969,1.49403 -1.126721,0.83909 z m 16.138486,46.96016 -0.118085,-2.12633 -0.495986,2.0299 c -0.272795,1.11645 -1.250352,2.94336 -2.172348,4.05982 l -1.676364,2.0299 2.290434,-1.93347 c 1.259739,-1.0634 2.237296,-2.89033 2.172349,-4.05982 z m -28.928826,0.54556 c -0.207504,-0.20691 -1.064411,0.30892 -1.904237,1.14626 -0.839825,0.83733 -1.250495,1.79807 -0.9126,2.13496 0.337885,0.3369 1.194793,-0.17893 1.904237,-1.14626 0.709433,-0.96734 1.120103,-1.92808 0.9126,-2.13496 z m 39.626867,-0.31177 c -0.44199,-1.29808 -0.68701,-2.77998 -0.54449,-3.29315 0.14252,-0.51315 -0.45386,-0.34305 -1.32527,0.37801 -1.74479,1.44376 -2.16103,2.55257 -0.59627,1.58835 0.54346,-0.33489 1.28561,0.57289 1.64921,2.01727 0.3636,1.4444 0.87694,2.41096 1.14076,2.14791 0.26382,-0.26303 0.11804,-1.54031 -0.32394,-2.83839 z m 105.36239,-4.07977 c -1.13187,-2.10962 -2.94763,-3.32662 -2.94763,-1.97559 0,0.5455 -0.2602,1.66789 -0.57823,2.4942 -0.42194,1.0963 0.10109,1.46165 1.93514,1.35171 l 2.51335,-0.15067 z m -117.282891,-2.023 c -0.324967,-0.80967 -0.566174,-0.56916 -0.615028,0.6132 -0.04417,1.06993 0.196398,1.66939 0.534659,1.33212 0.338262,-0.33726 0.37443,-1.21266 0.08041,-1.94532 z m -1.277085,-7.34935 c -0.37443,-1.48742 -0.877114,-2.50867 -1.11706,-2.26944 -0.239945,0.23925 -0.129922,1.65197 0.244507,3.13939 0.37443,1.48743 0.877104,2.50868 1.11706,2.26944 0.239945,-0.23924 0.129923,-1.65196 -0.244507,-3.13939 z m 103.276256,-2.86363 c 0.0663,0.69778 0.51501,1.26871 0.99726,1.26871 0.48224,0 0.65421,-1.16093 0.38218,-2.57983 -0.74131,-3.8664 -2.76135,-2.39791 -2.9586,2.15079 l -0.17263,3.98138 0.81568,-3.04487 c 0.44862,-1.67467 0.86987,-2.47396 0.93611,-1.77618 z M 125.65667,177.2497 c -4.63509,-4.25286 -7.47879,-5.68618 -7.47879,-3.76956 0,1.91527 8.8549,8.27073 11.55066,8.29029 0.47408,0.003 -1.35827,-2.03089 -4.07187,-4.52073 z m 26.64675,-8.47732 c 0.93553,-1.5001 3.60339,-4.48163 5.92858,-6.62558 l 4.22759,-3.89811 -4.8242,3.30096 c -5.62194,3.84681 -8.97516,9.84024 -8.79866,15.72644 l 0.11974,3.99311 0.82298,-4.88466 c 0.45263,-2.68657 1.58841,-6.11203 2.52397,-7.61216 z m 50.83151,11.04452 c 0.32214,-0.51965 0.12012,-1.2317 -0.44889,-1.58233 -0.56903,-0.35062 -1.03458,0.0745 -1.03458,0.94483 0,1.78279 0.61084,2.04529 1.48347,0.6375 z M 91.332152,170.81704 c -1.607884,-0.19996 -3.325294,0.0371 -3.816463,0.52685 -0.512071,0.51055 0.735066,0.66564 2.923428,0.36353 l 3.816462,-0.52686 z m 21.755878,-1.60301 c 0,-1.32721 0.73042,-3.01749 1.62316,-3.75619 2.69394,-2.22918 7.52567,-11.41974 7.42839,-14.12977 l -0.091,-2.53738 -1.39608,4.43196 c -1.4822,4.7054 -5.96194,11.29982 -7.67622,11.29982 -0.56444,0 -0.74639,-0.4515 -0.40434,-1.00334 0.37188,-0.59989 -0.0949,-0.72905 -1.16091,-0.32121 -1.08302,0.41438 -1.30677,0.84035 -0.56998,1.08522 0.89142,0.29626 0.92446,0.94035 0.12464,2.43042 -1.18705,2.21145 -0.59723,4.91358 1.07253,4.91358 0.57745,0 1.04991,-1.08588 1.04991,-2.41311 z m 6.01847,-1.36069 c 2.22148,-1.69932 -0.0811,-1.63502 -2.41654,0.0674 -1.22093,0.89012 -1.57962,1.84825 -1.02616,2.74112 l 0.85089,1.37268 0.48776,-1.47244 c 0.26826,-0.80985 1.21508,-2.02884 2.10405,-2.70886 z m 5.61691,2.87386 c 0.30681,-0.49498 -0.095,-1.44013 -0.89283,-2.10035 -1.57858,-1.30623 -5.6527,0.15042 -5.6527,2.02104 0,1.22905 5.78935,1.29919 6.54553,0.0793 z m -6.99459,-4.65003 1.97602,-1.49014 -1.6568,-0.0322 c -0.91125,-0.0178 -2.22708,0.65281 -2.92406,1.49015 -1.62425,1.95129 0.0329,1.97182 2.60484,0.0322 z m -8.73308,-1.07175 c -0.70822,-0.85083 -1.49732,-1.33795 -1.75354,-1.08248 -0.70596,0.70387 0.7284,2.62944 1.95868,2.62944 0.67501,0 0.59778,-0.58236 -0.20514,-1.54696 z m 68.91982,-3.71811 c -0.32496,-0.80966 -0.56618,-0.56916 -0.61502,0.61319 -0.0442,1.06994 0.19639,1.6694 0.53466,1.33213 0.33825,-0.33726 0.37442,-1.21266 0.0804,-1.94532 z m -64.87517,-0.15303 c 1.782,-0.74705 3.20885,-1.66051 3.17078,-2.02992 -0.25595,-2.48314 0.0536,-3.76057 0.79988,-3.30072 0.47802,0.29455 1.39419,-0.61344 2.03594,-2.01776 1.62095,-3.54706 1.45692,-4.21043 -0.46751,-1.89058 l -1.63434,1.97015 1.7117,-2.87311 c 2.13451,-3.58283 1.55229,-5.20324 -2.35785,-6.56228 l -3.05885,-1.06315 -0.67202,4.23432 c -0.36961,2.32888 -1.58384,6.16291 -2.69829,8.52007 -2.81063,5.94474 -2.02292,7.1902 3.17056,5.01298 z m 78.80389,-1.1791 c -1.00135,-0.55823 -3.00252,-2.15678 -4.44702,-3.55235 l -2.6264,-2.53738 -0.0753,3.55234 -0.0754,3.55234 h 4.52231 4.52231 z m -8.64822,-5.52333 c -0.57421,-1.64226 -1.66858,-3.50275 -2.43197,-4.13443 l -1.38796,-1.1485 -3.12091,2.30054 c -4.22036,3.11101 -2.88884,4.1821 7.27431,5.85162 0.39079,0.0642 0.24072,-1.22696 -0.33347,-2.86923 z m -15.37388,-1.79909 c -1.52966,-0.23157 -4.27817,-0.23623 -6.10783,-0.0104 -1.82964,0.2259 -0.57812,0.41537 2.78119,0.42107 3.35929,0.006 4.85628,-0.17912 3.32664,-0.41072 z m -14.01534,-2.05183 c -2.51946,-0.88102 -6.4132,-2.74693 -8.65274,-4.14645 -2.39882,-1.49908 -3.50833,-1.86317 -2.70031,-0.88611 1.79421,2.16958 11.29133,6.7326 13.89798,6.67746 1.11977,-0.0237 -0.0254,-0.76389 -2.54493,-1.6449 z m 21.37738,0.74714 c 1.86083,-1.19899 0.25356,-1.19899 -2.54491,0 -1.34244,0.57516 -1.51583,0.89129 -0.50899,0.92807 0.83982,0.0306 2.21408,-0.38693 3.0539,-0.92807 z m -2.11819,-1.40885 c 1.91437,-0.68993 4.14615,-2.25373 4.95953,-3.47512 l 1.47887,-2.2207 h -2.80342 c -1.54189,0 -4.32275,0.93621 -6.1797,2.08046 l -3.37627,2.08047 -6.41459,-1.15905 c -3.52805,-0.63747 -8.07945,-1.62934 -10.11426,-2.20417 -5.4106,-1.52847 -7.17494,-0.47208 -2.91717,1.74666 8.515,4.43714 18.39413,5.66448 25.36701,3.15145 z m -46.14088,-4.47391 c 0.91761,-1.2512 0.96091,-2.08787 0.15798,-3.05248 -0.81922,-0.98418 -0.76439,-1.24816 0.21141,-1.01782 0.72465,0.17106 1.5275,-0.25992 1.78411,-0.95769 0.31008,-0.84318 -0.59815,-1.26869 -2.70798,-1.26869 h -3.17457 l 1.04213,1.94146 c 0.57317,1.06778 1.39092,2.13476 1.81725,2.37103 0.42633,0.23627 0.0881,0.22426 -0.75181,-0.0267 -0.83982,-0.25097 -2.33409,-0.68754 -3.32062,-0.97017 l -1.79367,-0.51389 0.44557,2.40519 c 0.24505,1.32287 0.4796,2.42221 0.5212,2.44299 1.45219,0.72472 4.82531,-0.0666 5.769,-1.35325 z m 43.67821,-0.20696 c 1.67965,-1.10909 2.58323,-2.01955 2.00796,-2.02322 -0.57529,-0.004 -2.02461,0.67675 -3.22074,1.51207 l -2.17477,1.51876 -5.941,-1.43421 c -3.26756,-0.78882 -5.02181,-1.47225 -3.89834,-1.51875 1.12346,-0.0465 3.61648,0.36548 5.54007,0.91552 l 3.49739,1.00006 3.42537,-2.01501 c 1.88395,-1.10828 4.68859,-2.01504 6.23255,-2.01504 h 2.80716 l 1.71551,-3.58676 c 3.41704,-7.14436 2.834,-7.53072 -5.69545,-3.77424 l -6.33165,2.78855 -10.17971,-0.0812 c -11.41637,-0.0911 -16.84329,-1.29727 -22.22672,-4.93975 -6.18616,-4.1856 -5.79416,1.05036 0.47223,6.30756 1.61014,1.35079 2.71267,2.80259 2.45009,3.22617 -0.26256,0.4236 1.82789,0.54933 4.64546,0.27938 5.12017,-0.49051 10.56373,1.22066 9.47427,2.97821 -0.29387,0.4741 1.21053,0.8941 3.34316,0.93333 2.1326,0.0392 4.79363,0.46386 5.91339,0.94362 3.18535,1.36474 4.85502,1.15664 8.14377,-1.01496 z m -39.19187,-1.52243 c 0,-0.83734 -0.18003,-1.52244 -0.40006,-1.52244 -0.22005,0 -0.66374,0.6851 -0.98602,1.52244 -0.32229,0.83733 -0.14224,1.52243 0.40006,1.52243 0.54231,0 0.98602,-0.6851 0.98602,-1.52243 z m 55.80127,0.50748 h 2.70028 l -3.54702,-1.91417 c -1.95086,-1.05281 -3.96842,-1.66297 -4.48348,-1.35594 -0.5324,0.31736 -0.61994,-0.26418 -0.20289,-1.34775 l 0.73356,-1.906 -2.39717,2.50072 c -2.60059,2.71292 -2.78956,4.09385 -0.27555,2.01358 l 1.55155,-1.28386 v 2.26277 c 0,1.64637 0.43866,2.09496 1.61023,1.64671 0.8856,-0.33884 2.82534,-0.61606 4.31049,-0.61606 z m -36.45982,-1.01496 c -0.83983,-0.54113 -3.3593,-0.92226 -5.59884,-0.84696 l -4.07189,0.13689 4.58088,0.71007 c 2.51947,0.39055 5.03896,0.77168 5.59883,0.84698 0.55988,0.0753 0.33084,-0.30584 -0.50898,-0.84698 z m -32.97513,-3.63534 c -0.33985,-0.883 -0.61789,-3.17805 -0.61789,-5.10015 v -3.4947 l -3.00187,-0.5986 c -3.15829,-0.62978 -6.41465,-3.50953 -6.78075,-5.99654 -0.25797,-1.7525 0.12176,-1.81148 2.72375,-0.42308 2.74145,1.46283 2.55414,-0.52693 -0.23281,-2.47321 -2.55238,-1.78245 -3.8353,-1.34792 -3.46276,1.17283 0.14405,0.97469 -0.46935,2.37693 -1.36312,3.11612 -0.89378,0.73917 -1.15762,1.11958 -0.58634,0.84534 1.25917,-0.60442 8.82525,5.90683 7.91653,6.81286 -0.353,0.35193 -0.0746,0.63989 0.61867,0.63989 0.69327,0 1.177,1.02765 1.07496,2.28364 -0.3313,4.07795 0.005,4.82103 2.18467,4.82103 1.5376,0 1.96992,-0.45454 1.52696,-1.60543 z m -68.31293,-1.98 3.05391,-1.46396 -4.580865,0.35963 c -6.416452,0.50373 -13.705945,-1.14544 -15.931982,-3.60446 l -1.882503,-2.07953 3.562898,2.02973 c 4.254027,2.42342 11.197675,3.84983 11.197675,2.3003 0,-0.58352 -0.375632,-1.06095 -0.834737,-1.06095 -3.853006,0 -13.491029,-12.61184 -13.348747,-17.46752 0.04571,-1.55852 0.504384,-0.93319 1.392584,1.89839 5.065796,16.14978 22.482517,21.5861 33.442435,10.43845 4.516949,-4.59432 4.222807,-4.74494 -3.855023,-1.974 -19.929114,6.8363 -33.588718,-7.62083 -24.264842,-25.68155 l 1.468788,-2.845095 -3.01817,1.556115 c -3.778624,1.94822 -7.2383,6.26061 -7.976989,9.94312 -0.31091,1.54993 -1.195159,2.81806 -1.964999,2.81806 -1.767054,0 -1.881108,5.95573 -0.185118,9.66699 l 1.214582,2.65782 -1.466825,0.90386 -1.466814,0.90386 1.929461,3.57219 c 4.041973,7.48324 15.518126,10.96218 23.515281,7.12855 z m 71.35972,-1.9968 c 0,-1.39557 -0.55497,-2.53739 -1.23329,-2.53739 -0.67829,0 -1.07982,0.79928 -0.89225,1.77616 0.18755,0.97691 0.37607,2.11873 0.41891,2.53739 0.20544,2.00793 1.70663,0.44556 1.70663,-1.77616 z m 10.46476,0.735 c 2.01242,-3.74909 -2.8396,-6.93997 -6.77044,-4.45253 -1.0219,0.64666 -1.15193,3.17323 -0.30887,6.00117 0.35727,1.19839 6.30294,-0.10226 7.07931,-1.54864 z m 58.01314,-5.92338 1.21146,-2.65099 -1.18311,-1.42133 c -1.94886,-2.34125 -4.09351,0.16946 -2.87479,3.36544 l 0.98177,2.57462 -1.5988,-0.6117 c -0.92089,-0.35233 -1.33509,-0.18628 -0.97687,0.39162 1.12761,1.81911 3.20904,1.04678 4.44034,-1.64766 z m -2.19758,-1.40883 c -0.29282,-1.11644 -0.11721,-2.02991 0.39025,-2.02991 0.50747,0 0.92267,0.91347 0.92267,2.02991 0,1.11645 -0.17561,2.02991 -0.39026,2.02991 -0.21463,0 -0.62984,-0.91346 -0.92266,-2.02991 z m -58.53992,1.01495 h 3.09483 l -1.52079,-2.28364 c -0.83644,-1.25601 -1.92301,-2.2083 -2.4146,-2.11622 -0.4916,0.0921 -1.43304,-0.27876 -2.09211,-0.82411 -0.78733,-0.65151 -2.62011,-0.56682 -5.34434,0.24697 -4.40559,1.31602 -4.83693,1.85228 -2.97956,3.70414 l 1.16648,1.16304 3.86796,-1.96746 c 2.14832,-1.09272 4.12628,-1.55072 4.44897,-1.03015 0.71269,1.14971 -1.14194,2.42562 -2.39947,1.65073 -0.5012,-0.30884 -1.19354,0.17178 -1.5385,1.06806 -0.45838,1.19099 -0.1907,1.46261 0.99457,1.00913 0.89196,-0.34126 3.01442,-0.62049 4.71656,-0.62049 z m 55.78096,-6.08972 c 0,-3.58487 -1.39386,-6.05325 -2.68901,-4.76195 -0.89277,0.89014 0.8337,9.8452 1.78507,9.25899 0.49718,-0.30636 0.90394,-2.33003 0.90394,-4.49704 z m -72.64675,2.53114 c -3.6912,-1.91939 -4.80483,-1.90019 -2.234,0.0386 1.0868,0.81958 2.69011,1.48734 3.56289,1.48389 0.8728,-0.003 0.2748,-0.68853 -1.32889,-1.52242 z m -17.323205,-3.20262 c -0.861224,-1.58448 -1.584206,-2.55979 -1.606623,-2.16739 -0.06892,1.20644 2.299362,5.91878 2.749192,5.47027 0.232811,-0.23212 -0.281346,-1.71842 -1.142569,-3.30288 z m 27.873755,-0.55316 c 0,-1.09249 -2.37245,-1.01334 -5.53257,0.18457 -4.15595,1.5754 -3.02284,2.89751 1.46069,1.70435 2.23953,-0.59601 4.07188,-1.44601 4.07188,-1.88892 z m 64.36293,-2.58143 c -0.58572,-5.89227 -1.07994,-6.32156 -1.16839,-1.01495 -0.0442,2.65156 0.28574,4.82102 0.7332,4.82102 0.44745,0 0.6433,-1.71273 0.43519,-3.80607 z m -63.18003,-0.85307 c 1.49041,-0.76469 3.92993,-2.88376 5.42115,-4.70906 l 2.71131,-3.31871 -0.68079,2.53738 c -0.37442,1.39556 -1.37947,2.99411 -2.23345,3.55234 -3.89122,2.54363 -5.83555,4.4492 -5.19449,5.09092 0.99672,0.99774 4.3332,-1.56181 7.94853,-6.09763 3.00858,-3.77459 3.51989,-6.36892 1.1518,-5.84424 -1.39169,0.30835 -1.38891,0.47164 -0.0939,-5.54928 0.6206,-2.88523 0.70758,-6.537812 0.21228,-8.914635 l -0.8391,-4.026677 -4.99571,-1.849367 c -12.90956,-4.779011 -21.90136,-3.651905 -24.48271,3.068867 -4.316227,11.237672 -2.2192,19.839192 6.34797,26.037972 l 4.71457,3.41123 3.6513,-0.99938 c 2.00822,-0.54967 4.87072,-1.62504 6.36115,-2.38973 z m -21.5423,1.69886 c 0,-0.5117 -0.34357,-1.08261 -0.76348,-1.26869 -0.41991,-0.18607 -1.527548,-1.98798 -2.461423,-4.00426 -0.933876,-2.01624 -2.651701,-3.91459 -3.817388,-4.21852 l -2.119446,-0.55261 v 2.8692 2.8692 l 3.126707,0.68471 c 1.719687,0.37658 2.868875,0.94175 2.553762,1.25595 -0.697859,0.69578 1.343666,3.2954 2.587938,3.2954 0.49133,0 0.89333,-0.41868 0.89333,-0.93038 z m 30.53911,-2.36305 c 0,-0.56616 -0.67517,-0.45625 -1.52696,0.24857 -0.83982,0.69493 -1.52695,1.72022 -1.52695,2.27845 0,0.56618 0.67517,0.45627 1.52695,-0.24855 0.83983,-0.69493 1.52696,-1.72023 1.52696,-2.27847 z m -27.4852,0.71494 c 0,-1.3626 -4.48833,-6.41928 -5.270167,-5.93753 -1.009225,0.62192 2.897937,6.48611 4.321527,6.48611 0.52175,0 0.94864,-0.24685 0.94864,-0.54858 z m 31.56834,-3.76497 1.96372,-4.31355 -0.62022,3.04485 -0.62021,3.04487 2.43214,-3.03411 c 1.33769,-1.66877 3.2338,-3.83824 4.2136,-4.82104 0.97978,-0.9828 1.78847,-2.5862 1.79703,-3.56309 0.009,-0.97688 0.48057,-2.46126 1.04891,-3.29859 0.75628,-1.11429 0.85395,-0.70614 0.36433,1.52243 l -0.66896,3.04486 3.69195,-3.93365 c 2.03057,-2.16351 3.69194,-4.827755 3.69194,-5.920569 0,-1.146576 0.53818,-1.801605 1.27248,-1.54876 0.69985,0.240982 2.0711,-0.748599 3.04719,-2.199068 0.97612,-1.45047 1.77776,-2.255815 1.78145,-1.789658 0.004,0.466159 2.35698,-1.018211 5.22954,-3.298599 3.07913,-2.444373 6.31726,-4.15253 7.88927,-4.161695 1.46654,-0.0081 3.32889,-0.433406 4.13855,-0.944141 0.90204,-0.569003 2.1936,-0.543599 3.33527,0.06556 1.37585,0.734157 2.58829,0.493705 4.63571,-0.919354 4.49851,-3.104724 6.0429,-3.666947 2.9916,-1.089066 l -2.83487,2.395036 5.05141,0.178603 c 2.77827,0.09825 5.89026,0.626205 6.91552,1.173285 l 1.86413,0.994684 2.95519,-2.53442 2.9552,-2.53442 -1.43701,-0.906962 c -0.79037,-0.498839 -2.66972,-0.913966 -4.17636,-0.922521 -1.50665,-0.0081 -3.02659,-0.478937 -3.37768,-1.045313 -1.11781,-1.803298 -17.72395,-0.451228 -23.69631,1.929358 -2.96011,1.179902 -6.19486,2.145276 -7.18833,2.145276 -0.99347,0 -2.80885,0.93125 -4.0342,2.06945 -1.22534,1.138189 -2.22788,1.573595 -2.22788,0.967565 0,-2.450199 -5.25567,2.888528 -7.75123,7.873743 -2.81814,5.629636 -4.05138,7.047036 -2.42848,2.791121 0.72148,-1.892019 0.63431,-2.537384 -0.34274,-2.537384 -1.83327,0 -5.74106,5.534563 -5.88317,8.332279 l -0.11809,2.32474 -0.47035,-1.80108 -0.47035,-1.80107 -2.26031,3.32349 c -3.05798,4.49638 -6.68426,16.01044 -5.0424,16.01044 0.23062,0 1.30299,-1.9411 2.38302,-4.31356 z m 47.81777,-1.58234 -0.0155,-1.71627 -0.98679,1.52244 c -1.28834,1.98766 -1.28834,3.33126 0,2.53737 0.55989,-0.34499 1.01096,-1.39959 1.00238,-2.34354 z M 99.782878,109.9687 c -0.03942,-0.97688 -0.41842,-2.65931 -0.842373,-3.73869 -1.087949,-2.76996 -2.374957,-0.33921 -1.551796,2.93081 0.735697,2.92256 2.503375,3.51905 2.394169,0.80788 z m 84.240492,-0.44403 c -0.32494,-0.80966 -0.56618,-0.56917 -0.615,0.6132 -0.0442,1.06993 0.19637,1.66939 0.53466,1.33213 0.33825,-0.33727 0.37441,-1.21266 0.0804,-1.94533 z m 4.07189,0 c -0.32496,-0.80966 -0.56618,-0.56917 -0.61502,0.6132 -0.0442,1.06993 0.19639,1.66939 0.53466,1.33213 0.33827,-0.33727 0.37441,-1.21266 0.0804,-1.94533 z m -91.294755,0.1903 c 0,-0.55822 -0.458087,-1.01495 -1.01797,-1.01495 -0.559884,0 -1.017971,0.45673 -1.017971,1.01495 0,0.55822 0.458087,1.01496 1.017971,1.01496 0.559883,0 1.01797,-0.45674 1.01797,-1.01496 z m 38.682875,-1.90303 c 0,-0.48846 0.26191,-2.42955 0.58201,-4.31357 l 0.58205,-3.42547 -1.6,1.97016 c -1.77812,2.1895 -2.16872,6.65696 -0.58203,6.65696 0.55988,0 1.01797,-0.39963 1.01797,-0.88808 z m 58.78528,-14.589969 c 1.47062,-1.535114 2.21577,-2.79112 1.65588,-2.79112 -2.05348,0 -6.38931,5.731216 -8.44624,11.164489 -3.06654,8.10005 -2.45432,8.67725 1.07649,1.01496 1.672,-3.628466 4.24324,-7.853208 5.71387,-9.388329 z m -94.485782,4.5673 c 0.03942,-1.256013 -0.334555,-2.283652 -0.830892,-2.283652 -1.063667,0 -2.16389,6.168581 -1.345676,7.544781 0.696495,1.1715 2.079783,-2.17216 2.176568,-5.261129 z M 209.5805,101.34161 c 0.5789,-0.69778 1.28269,-2.638878 1.564,-4.313562 0.34142,-2.032684 0.44702,-1.610944 0.31766,1.268696 l -0.19378,4.313556 h 2.4751 2.47512 l -1.93922,-2.1782 c -1.26781,-1.424021 -1.53342,-2.320283 -0.76713,-2.588604 0.77036,-0.269741 0.26437,-2.045174 -1.47636,-5.180211 -1.54635,-2.784964 -1.99512,-4.245543 -1.07843,-3.509926 2.81127,2.255959 2.85925,0.121958 0.0515,-2.286101 -3.25694,-2.793203 -3.88791,-2.53646 -5.1733,2.105034 -0.71994,2.599692 -0.61737,4.241952 0.38529,6.168827 l 1.3664,2.625975 0.45638,-2.39944 0.45638,-2.399419 0.13862,2.964943 c 0.0763,1.630716 -0.6195,3.800173 -1.5461,4.821032 l -1.68473,1.85609 h 1.56007 c 0.85805,0 2.03373,-0.57092 2.61263,-1.26869 z M 94.420775,97.281789 c -0.282394,-0.697783 -0.513444,-0.126866 -0.513444,1.268696 0,1.395562 0.23105,1.966465 0.513444,1.268696 0.282405,-0.69779 0.282405,-1.839611 0,-2.537392 z m -1.692152,0.898084 c 0,-0.762048 0.918728,-2.550054 2.041612,-3.973339 2.327405,-2.950058 0.998282,-4.143919 -2.74908,-2.469326 -2.632125,1.176223 -3.645017,3.317897 -2.809904,5.941303 0.691395,2.171941 3.517372,2.574759 3.517372,0.501362 z m 43.757147,-1.405566 c -0.0164,-2.918953 -1.52553,-6.160186 -2.44262,-5.245814 -0.8307,0.828234 0.58058,8.036947 1.57343,8.036947 0.48663,0 0.87775,-1.256006 0.86919,-2.791133 z M 96.47793,96.33027 c -0.324965,-0.809659 -0.566174,-0.569169 -0.615027,0.613204 -0.04417,1.069927 0.196397,1.669379 0.534659,1.332129 0.338261,-0.33727 0.37443,-1.212669 0.08042,-1.945333 z m -7.821188,-3.869509 c 0,-0.558227 -0.485113,-1.014956 -1.078042,-1.014956 -0.592926,0 -0.794933,0.456729 -0.448914,1.014956 0.346028,0.558223 0.831152,1.014947 1.078051,1.014947 0.246898,0 0.448905,-0.456724 0.448905,-1.014947 z m 13.712738,-1.97231 c 0.92228,-1.77823 1.15641,-3.22939 0.57848,-3.585518 -0.82122,-0.506035 -4.111511,4.307484 -4.111511,6.014898 0,1.66314 2.192261,0.155693 3.533031,-2.42938 z m 99.28198,0.449877 c 1.31496,-1.395561 2.1618,-2.537383 1.88186,-2.537383 -0.27995,0 -1.58488,1.141822 -2.89983,2.537383 -1.31497,1.395562 -2.16179,2.53738 -1.88184,2.53738 0.27993,0 1.58485,-1.141818 2.89981,-2.53738 z M 133.44744,89.51519 c 0,-0.503619 -1.37427,-1.393318 -3.0539,-1.977108 -3.30211,-1.147711 -4.1882,0.103301 -1.27248,1.796519 2.23155,1.295902 4.32638,1.38334 4.32638,0.180589 z m -32.51768,-4.297181 c 1.65708,-3.988677 0.48728,-7.806587 -2.631016,-8.586913 -3.092778,-0.773934 -5.122418,0.743248 -5.931918,4.434199 -0.333934,1.522594 -0.870567,3.681816 -1.192522,4.798265 l -0.585363,2.029907 4.57479,0.09591 4.574793,0.09591 z m 25.89923,0.792181 1.37989,-1.375809 -1.99614,-3.272679 c -1.09788,-1.799979 -1.52252,-2.980827 -0.94362,-2.624112 0.57888,0.356716 1.05253,0.12683 1.05253,-0.510867 0,-0.637684 -0.57262,-0.956837 -1.27246,-0.709228 -0.69986,0.247609 -1.15657,1.541673 -1.01489,2.875698 l 0.25757,2.425506 -1.00546,-1.522431 -1.00546,-1.52243 -0.0155,2.392235 c -0.011,1.689563 0.42335,2.224302 1.47875,1.820493 0.8219,-0.314454 1.80315,-0.07359 2.18055,0.535245 0.46019,0.742399 -0.36726,0.952829 -2.51232,0.638934 -2.21481,-0.324095 -3.19854,-0.0539 -3.19854,0.878595 0,1.770496 4.83153,1.749192 6.61517,-0.02913 z m -16.79488,-0.654107 c 0,-0.558224 -1.37424,-1.014954 -3.0539,-1.014954 -1.67966,0 -3.05391,0.45673 -3.05391,1.014954 0,0.558225 1.37425,1.014954 3.05391,1.014954 1.67966,0 3.0539,-0.456729 3.0539,-1.014954 z m 8.14377,0.115197 c 0,-0.494861 -1.37426,-1.10086 -3.0539,-1.34665 -2.08399,-0.304953 -3.05391,-0.01918 -3.05391,0.899756 0,0.819646 1.19514,1.346651 3.05391,1.346651 1.67964,0 3.0539,-0.404885 3.0539,-0.899757 z m 61.07823,-1.709049 c 0,-0.279113 -0.91617,-0.01857 -2.03594,0.578898 -1.11977,0.597503 -2.03595,1.314741 -2.03595,1.593853 0,0.279112 0.91618,0.01857 2.03595,-0.578899 1.11977,-0.597502 2.03594,-1.31474 2.03594,-1.593852 z m -58.0243,-2.262972 c 0,-1.004804 0.51889,-2.344289 1.15312,-2.976637 1.78188,-1.776604 0.22003,-4.331031 -2.64815,-4.331031 -2.7385,0 -2.98489,0.757056 -1.94063,5.962854 0.67416,3.360888 3.43566,4.441804 3.43566,1.344814 z m 12.50036,1.204721 c 0.34323,-0.342213 -0.32638,-1.903923 -1.48802,-3.470473 -2.2632,-3.052068 -4.90454,-3.003055 -4.90454,0.09104 0,2.660184 4.64897,5.117884 6.39256,3.37946 z M 113.96252,79.292252 C 110.81278,70.283696 99.512312,66.6236 92.30359,72.277187 c -3.10992,2.439005 -3.572904,4.519466 -0.659858,2.965076 4.313527,-2.301692 12.350008,0.06181 16.766708,4.93105 1.06657,1.175855 2.98962,2.137908 4.27343,2.137908 h 2.33419 z m 3.1974,1.496539 c 0,-0.837336 -0.44372,-1.522431 -0.98603,-1.522431 -0.54232,0 -0.72235,0.685095 -0.40007,1.522431 0.32227,0.837337 0.76597,1.52243 0.98602,1.52243 0.22004,0 0.40008,-0.685093 0.40008,-1.52243 z m 20.63201,-0.2763 -2.27231,-1.753606 0.63087,-3.847914 0.63086,-3.847922 -2.68492,1.219709 c -4.5036,2.045904 -1.18284,10.07162 4.14009,10.005902 l 1.82774,-0.02253 z m 2.27233,-2.261084 c -0.34604,-0.558223 -1.17473,-1.007961 -1.84154,-0.999414 -0.72847,0.0091 -0.60291,0.408244 0.31457,0.999414 1.95564,1.260096 2.30805,1.260096 1.52697,0 z m 6.1412,-4.124173 c 2.16747,-4.179021 1.11672,-3.724068 -1.46155,0.632813 -1.17603,1.987331 -1.67611,3.328553 -1.11128,2.980505 0.56484,-0.348049 1.72261,-1.974046 2.57283,-3.613318 z m -5.12325,1.079312 c -0.34602,-0.558223 -0.11697,-1.014955 0.50899,-1.014955 0.62598,0 0.85502,-0.456728 0.50899,-1.014952 -0.34603,-0.558224 -0.11698,-1.014954 0.50899,-1.014954 0.62596,0 0.85501,-0.456729 0.50898,-1.014954 -0.34603,-0.558223 0.17664,-1.014954 1.16148,-1.014954 h 1.79064 l -1.34882,-1.268692 -1.3488,-1.268691 -0.47264,1.286818 c -0.25995,0.707749 -1.00433,1.849571 -1.65421,2.537385 -1.61193,1.706057 -2.03564,4.802903 -0.65712,4.802903 0.61746,0 0.83955,-0.45673 0.49352,-1.014954 z m -25.64989,-6.519271 c -0.56866,-1.013116 -1.32981,-1.210535 -2.31843,-0.601329 l -1.47185,0.906952 1.99546,2.203951 1.99546,2.203943 0.32297,-1.602614 c 0.17763,-0.881445 -0.058,-2.28135 -0.52361,-3.110903 z m -5.88728,1.109751 c -0.8547,-1.300573 -1.29287,-2.625026 -0.97371,-2.943233 0.31915,-0.318209 0.021,-0.923233 -0.6627,-1.34449 -0.79429,-0.489441 -0.98078,-0.342942 -0.51665,0.40584 0.96779,1.561262 -0.69246,1.500893 -2.28099,-0.08291 -1.52293,-1.518405 -13.317882,-1.772012 -13.065425,-0.280922 0.09569,0.565491 -0.742101,1.049493 -1.861867,1.075566 -1.237914,0.02882 -1.907688,0.625567 -1.708735,1.522431 0.656061,2.957493 2.183984,3.454983 5.184196,1.687969 3.883864,-2.287452 8.958471,-2.197547 13.336941,0.236281 1.95085,1.084407 3.67209,1.997866 3.82497,2.029908 0.15288,0.03208 -0.42133,-1.00585 -1.27603,-2.306411 z m 38.2413,-3.74592 c -3.03134,-1.665926 -5.71013,-2.83093 -5.9529,-2.588904 -0.50751,0.506026 8.91177,5.545454 10.44646,5.588975 0.55987,0.01584 -1.46222,-1.334146 -4.49356,-3.000071 z M 115.93823,63.28084 c 0.5574,-1.535117 1.33835,-3.590398 1.73546,-4.567292 l 0.72202,-1.776168 h -5.46288 -5.46287 l -1.20541,1.924433 -1.2054,1.924434 1.74494,1.574466 c 1.58147,1.426964 5.7904,3.485433 7.45681,3.646912 0.36516,0.03543 1.11994,-1.191667 1.67733,-2.726785 z m -2.8502,0.701313 c 0,-0.591169 -0.3752,-0.843649 -0.83377,-0.561076 -0.45857,0.282573 -0.59829,-0.946475 -0.31047,-2.73122 l 0.52328,-3.245 0.69903,3.044861 0.69902,3.044861 0.12045,-2.283645 c 0.0662,-1.256006 0.55469,-2.283647 1.08545,-2.283647 0.58592,0 0.54679,1.196163 -0.0996,3.04486 -1.07924,3.08671 -1.88343,3.927862 -1.88343,1.970006 z m -3.32752,-3.066317 c 0.35997,-1.372421 0.8214,-1.832488 1.07554,-1.072349 0.2448,0.732228 -0.0389,1.813884 -0.63045,2.403673 -0.7554,0.753167 -0.88789,0.356899 -0.44509,-1.331324 z m -4.30725,3.12622 c -0.34602,-0.558225 -1.17471,-1.007961 -1.84152,-0.999415 -0.72849,0.0091 -0.60293,0.408245 0.31456,0.999415 1.95565,1.260095 2.30805,1.260095 1.52696,0 z M 159.824,42.955094 c 7.31058,-14.662315 10.37703,-21.829949 9.88557,-23.106862 l -0.71246,-1.851124 -1.8633,1.96218 c -2.81898,2.968567 -23.14284,41.738966 -22.31349,42.565858 0.23749,0.23679 3.38732,-5.522312 6.9996,-12.798008 3.61229,-7.275694 7.36945,-13.952983 8.34924,-14.838419 l 1.78145,-1.60988 v 1.524432 c 0,0.838442 -0.90667,2.566735 -2.01481,3.840654 -1.10815,1.273919 -1.72449,2.784556 -1.36968,3.35698 0.40028,0.645725 0.13341,0.725429 -0.7031,0.209964 -0.9648,-0.594509 -1.17256,-0.374336 -0.73054,0.774146 0.36591,0.950737 -0.0216,1.84951 -0.9506,2.204957 -0.90952,0.347987 -1.31503,1.258096 -0.96536,2.166621 0.39322,1.021683 0.19276,1.313827 -0.57634,0.839894 -0.77522,-0.477677 -0.96765,-0.176734 -0.56162,0.87825 0.36593,0.950737 -0.0216,1.849509 -0.95059,2.204956 -0.90952,0.347987 -1.31504,1.258096 -0.96536,2.166622 0.39322,1.021683 0.19276,1.313826 -0.57636,0.839893 -0.79475,-0.489715 -0.96071,-0.158747 -0.50898,1.014955 0.45173,1.173713 0.28576,1.504678 -0.50898,1.014954 -0.79474,-0.489716 -0.96073,-0.158749 -0.50899,1.014953 0.45174,1.173713 0.28575,1.50468 -0.50898,1.014954 -0.79475,-0.489716 -0.96072,-0.158749 -0.509,1.014953 0.36868,0.957903 0.2655,1.492185 -0.22931,1.187283 -1.09308,-0.673554 -2.37067,2.28595 -1.55494,3.601949 1.03887,1.675933 1.82245,0.354351 12.56693,-21.195115 z m 6.19849,-18.496232 c 0.59928,-1.11645 1.31865,-2.029907 1.5986,-2.029907 0.27993,0 0.0186,0.913457 -0.58063,2.029907 -0.59927,1.116449 -1.31864,2.029907 -1.59858,2.029907 -0.27995,0 -0.0186,-0.913458 0.58061,-2.029907 z m -63.11416,36.662613 c 0,-0.489877 -0.70923,-1.47755 -1.57607,-2.194837 -2.318356,-1.918353 -1.448396,-5.473949 1.43898,-5.881261 1.32432,-0.186822 2.90472,0.155725 3.51201,0.761216 0.60728,0.605481 3.03104,1.100879 5.38612,1.100879 h 4.28197 l -0.50957,-1.942793 c -0.99834,-3.80632 -5.2809,-6.682709 -9.98834,-6.708672 -2.42926,-0.0134 -4.23554,0.26811 -4.01395,0.625566 0.22158,0.357468 -0.5025,1.466852 -1.609064,2.465313 -2.43399,2.196198 -2.641717,7.257304 -0.427253,10.409528 1.596397,2.272409 3.505167,3.015772 3.505167,1.365061 z m 2.16226,-6.48466 -1.26491,-1.251774 0.69506,1.819945 c 0.38227,1.000967 0.95149,1.564266 1.26491,1.251772 0.31341,-0.312483 6.4e-4,-1.131459 -0.69506,-1.819943 z m 88.51747,68.695445 c 0.0488,-1.18235 0.29006,-1.42285 0.61502,-0.6132 0.29406,0.73267 0.2579,1.60807 -0.0804,1.94533 -0.33827,0.33727 -0.57886,-0.2622 -0.53466,-1.33213 z m -1.46858,-5.49766 c -0.41967,-1.95379 -1.01213,-5.2431 -1.31662,-7.3096 l -0.55359,-3.75725 4.47241,-4.71952 4.47239,-4.719507 1.48319,1.815871 1.48319,1.815866 -1.83725,-0.68701 c -1.22641,-0.458595 -2.74595,0.1531 -4.57046,1.83988 l -2.73322,2.52688 h 2.76962 2.76962 l 0.64205,2.55057 c 1.23974,4.92488 -3.29454,7.36998 -6.14438,3.31331 -1.91976,-2.73272 -2.15933,-0.7057 -0.48319,4.08823 0.60583,1.73272 0.92324,3.97034 0.70538,4.9725 -0.25082,1.15382 -0.67597,0.51921 -1.15914,-1.73022 z m 2.75747,-9.68584 c -0.33154,-0.8614 -0.82113,-1.34852 -1.08796,-1.08247 -0.26684,0.26604 -0.18322,0.97084 0.18582,1.5662 1.00378,1.61931 1.59048,1.30473 0.90214,-0.48373 z"
       id="path6" />
    <path
       d="m 17.923841,143.69923 16.053341,7.54134 q 0,0.29867 0.07467,0.672 0.07467,0.29867 0.149334,0.74667 0.07467,0.448 0.149333,0.52266 v 0.52267 q 0,0.0747 0.07467,0.448 v 0.448 q 0,3.95734 -2.912002,7.09334 -2.912001,3.06133 -6.496003,4.48 4.554669,0.59733 7.840004,4.18134 3.285335,3.50933 3.285335,7.69067 v 0.52266 q -0.07467,0.224 -0.07467,0.59734 -0.149333,0.74666 -0.149333,1.12 l -0.224,0.672 q -0.07467,0.14933 -0.149334,0.448 -0.07467,0.224 -0.07467,0.29866 -0.07467,0.37334 -0.597334,1.26934 -4.480002,7.616 -15.381341,8.36267 -0.224,0 -0.746667,0.0747 h -0.746667 q -0.448,0 -0.672,0.0747 H 16.57984 l -12.2453392,-10.304 5.1520025,-5.07734 14.9333407,12.32001 q 2.240001,-2.24 3.360001,-7.01867 0,-0.52267 0.149334,-1.26934 0,-0.37333 0.07467,-0.672 v -0.59733 q 0,-3.73334 -2.165334,-7.09334 -2.165334,-3.43467 -6.34667,-4.33067 -0.597333,0 -0.821333,-0.0747 -1.269334,0 -1.717335,-0.14934 -0.149333,0 -0.448,-0.0747 -0.298667,0 -0.448,0 h -1.194667 l -1.717334,-0.14934 0.298666,-2.016 q 4.629336,0.29867 8.810671,-2.912 4.181336,-3.28533 4.181336,-8.21334 v -0.224 q -0.07467,-0.0747 -0.07467,-0.224 v -0.82133 q -0.07467,-0.0747 -0.07467,-0.224 v -0.52267 q -0.07467,-1.19466 -1.045334,-2.016 -0.896,-0.896 -2.090667,-0.896 l -0.597334,-0.14933 -10.901338,7.54134 -4.3306691,-4.62934 z"
       id="text1"
       style="-inkscape-font-specification:'Cloister Black, Normal';fill:#000080;stroke-width:3;stroke-linecap:round"
       aria-label="3" />
    <path
       d="m 237.61411,143.40057 16.65067,10.45333 v 0.74667 q 0,0.448 0.0747,0.672 v 0.97067 q 0,0.14933 0.0747,0.37333 v 0.29867 q 0,8.512 -8.81067,15.30667 l -10.45333,6.34667 q -4.48001,2.688 -7.09334,6.86934 2.31467,-1.04533 5.6,-1.94133 2.912,-0.82134 5.89867,-1.12001 0.448,0 0.74667,-0.0747 h 0.74667 q 0.448,0 0.74666,-0.0747 h 1.71734 q 0,0 0.97066,0.0747 1.94134,0.14933 1.94134,0.14933 0.448,0 1.12,0.14934 0.74667,0.14933 1.12,0.224 0,0 2.09067,0.59733 2.09066,0.59733 4.256,1.568 l -5.824,6.79467 -7.24267,-2.464 -8.66134,-0.29867 q -0.448,0.14933 -2.53867,0.672 -0.896,0.224 -1.26933,0.224 0,0 -1.26934,0.29867 -0.52266,0.14933 -2.53867,0.672 -0.59733,0.224 -1.71733,0.37333 -0.14933,0.0747 -0.448,0.14934 -0.224,0.0747 -0.37333,0.0747 0.896,-5.376 4.33067,-9.25867 3.43466,-3.88267 7.168,-7.31734 0,0 0.224,-0.224 l 0.224,-0.224 q 1.86667,-1.71733 5.376,-5.22666 2.61334,-2.76267 4.40534,-5.97334 0.14933,-0.224 0.29866,-0.74667 0,0.14934 0.29867,-0.672 0.29867,-0.896 0.37333,-1.71733 0,-0.448 0.14934,-1.19467 0,-0.37333 0.0747,-0.59733 v -0.97067 q -0.0747,-0.0747 -0.0747,-0.37333 v -0.896 q -0.29867,-1.86667 -1.26934,-3.80801 -0.97066,-1.94133 -2.61333,-2.912 l -12.99201,10.15467 h -0.448 l -4.33067,-4.256 -0.14933,-1.12 z"
       id="text2"
       style="-inkscape-font-specification:'Cloister Black, Normal';fill:#000080;stroke-width:3;stroke-linecap:round"
       aria-label="2" />
  </g>
</svg>
