<?xml version="1.0" encoding="UTF-8" standalone="no"?>
<!-- Created with Inkscape (http://www.inkscape.org/) -->

<svg
   version="1.1"
   id="svg1"
   width="300"
   height="300"
   viewBox="0 0 300.00001 300.00001"
   sodipodi:docname="Explorador.svg"
   inkscape:version="1.4 (86a8ad7, 2024-10-11)"
   xml:space="preserve"
   xmlns:inkscape="http://www.inkscape.org/namespaces/inkscape"
   xmlns:sodipodi="http://sodipodi.sourceforge.net/DTD/sodipodi-0.dtd"
   xmlns="http://www.w3.org/2000/svg"
   xmlns:svg="http://www.w3.org/2000/svg"><defs
     id="defs1" /><sodipodi:namedview
     id="namedview1"
     pagecolor="#ffffff"
     bordercolor="#000000"
     borderopacity="0.25"
     inkscape:showpageshadow="2"
     inkscape:pageopacity="0.0"
     inkscape:pagecheckerboard="0"
     inkscape:deskcolor="#d1d1d1"
     inkscape:zoom="2.382353"
     inkscape:cx="109.97531"
     inkscape:cy="107.66666"
     inkscape:window-width="3440"
     inkscape:window-height="1417"
     inkscape:window-x="-8"
     inkscape:window-y="-8"
     inkscape:window-maximized="1"
     inkscape:current-layer="g1" /><g
     inkscape:groupmode="layer"
     inkscape:label="Image"
     id="g1"
     transform="translate(25.609656,6.4074317)"><circle
       style="fill:#f4d7d7;stroke:#550000;stroke-width:2.9998;stroke-dasharray:none"
       id="path7"
       cx="124.39035"
       cy="143.59258"
       r="148.50011" /><path
       style="fill:#550000;stroke-width:1.26251"
       d="m 75.585444,174.09395 c 6.573833,-11.30521 10.179689,-10.74603 4.48459,-15.8204 -4.720351,-4.20586 -2.718559,-5.92025 2.301751,-1.97129 4.15323,3.26693 5.057063,3.28246 5.888982,0.10115 0.767355,-2.93438 3.421734,-3.42408 3.421734,-0.63126 0,1.04158 0.647525,1.89377 1.438955,1.89377 0.791424,0 2.136969,0.95459 2.990086,2.12131 2.355248,3.22098 4.182348,-1.14538 5.756268,-13.75611 0.71797,-5.75256 2.18288,-12.89238 3.25536,-15.86629 2.23809,-6.20605 0.94686,-9.11181 -4.04904,-9.11181 -2.53977,0 -3.02485,0.78865 -3.688496,5.99695 -1.522071,11.94499 -2.270598,20.31183 -3.553795,20.31183 -0.747108,0 -0.797232,-7.59377 -0.409006,-9.58047 0.37314,-1.90956 1.045561,-7.44882 1.494278,-12.3095 0.884399,-9.58033 2.930302,-14.02743 7.254719,-15.76932 2.32833,-0.93786 1.99308,-1.12727 -2.11455,-1.1946 -4.415592,-0.0723 -4.813938,-0.35121 -4.172811,-2.92069 0.389841,-1.56236 1.91289,-7.753127 3.384571,-13.757259 3.66254,-14.942477 4.69538,-16.227287 10.52226,-13.089304 4.23307,2.279654 4.62542,2.295157 6.86192,0.271136 1.30468,-1.18072 2.77349,-2.146763 3.26404,-2.146763 1.95675,0 7.04973,-4.135279 6.39591,-5.193196 -0.38393,-0.621202 -2.60644,0.326142 -4.93892,2.10521 -3.69905,2.821402 -4.57629,3.025195 -6.8662,1.595119 -2.89196,-1.806066 -3.28133,-3.002735 -1.36283,-4.188445 2.17342,-1.343237 1.4291,-4.636023 -0.9446,-4.17889 -1.21393,0.233781 -2.20817,1.269668 -2.20941,2.301974 -9.8e-4,1.032302 -0.57039,2.010216 -1.26478,2.173141 -0.71797,0.168455 -1.28036,-2.628227 -1.30391,-6.484034 -0.0236,-3.853997 -0.79404,-7.68715 -1.78532,-8.881558 -1.49507,-1.801464 -1.45207,-2.393148 0.30144,-4.146649 1.87574,-1.875741 1.87833,-2.328089 0.0313,-5.45484 -1.97655,-3.346028 4.53419,-12.573304 8.87168,-12.573304 0.64368,0 2.57857,-1.519501 4.29974,-3.376669 l 3.12939,-3.376669 2.34437,3.061041 c 4.02424,5.25438 9.99283,17.178149 9.99283,19.96315 0,1.463556 1.91832,5.360949 4.26293,8.660875 6.20949,8.739595 8.61472,14.009571 8.61472,18.875312 0,2.862099 1.01613,5.322359 3.03002,7.33625 4.56727,4.56726 3.79398,5.669835 -3.97649,5.669835 -8.02207,0 -12.77869,2.060695 -17.38059,7.529738 -1.77384,2.108089 -3.74473,3.832889 -4.37977,3.832889 -0.63503,0 -7.17863,2.13978 -7.48102,5.91242 -0.58708,7.32441 -7.62444,3.18394 -11.09636,4.37424 -8.14114,2.79107 -8.27739,5.36873 -0.31076,5.87976 5.43768,0.34882 6.11708,0.0818 7.22822,-2.84065 2.29189,-6.02814 5.07642,-3.98865 5.07642,3.71816 0,8.42076 3.69287,10.50565 3.91338,2.20941 0.20442,-7.69005 1.56865,-10.64038 6.02521,-13.03047 4.47437,-2.39963 7.73661,-2.03868 7.73661,0.85603 0,2.06335 -1.77507,2.24889 -5.00049,0.52271 -4.67758,-2.50337 -8.22489,12.57255 -3.64899,15.50807 2.95988,1.89881 8.64948,-2.00868 8.64948,-5.94025 0,-4.14205 2.95032,-6.44307 5.03715,-3.9286 1.47758,1.78037 8.8505,2.77595 8.8505,1.19508 0,-0.39284 -0.58811,-1.81317 -1.30693,-3.15628 -0.9793,-1.82985 -0.90018,-2.41979 0.31563,-2.3533 2.80381,0.15334 5.40514,1.74295 5.53636,3.38317 0.0694,0.86797 0.21146,2.43035 0.31562,3.47193 0.24631,2.46298 5.10104,2.46092 6.04636,-0.002 0.92981,-2.42302 -2.64328,-11.43764 -6.5987,-16.64813 -4.27224,-5.627808 -1.34006,-6.9104 3.38458,-1.480482 6.16055,7.080162 9.46564,17.374932 8.86009,27.597522 -0.19301,3.25841 0.10895,4.04576 1.15173,3.003 4.78282,-4.78285 0.0794,-22.64535 -8.26979,-31.40706 -4.19088,-4.39791 -7.33728,-5.328447 -5.23891,-5.734594 3.55265,-0.68762 15.65441,10.608634 17.9373,18.273254 4.07025,13.6656 1.14227,24.17366 -9.45799,33.94301 -3.1518,2.90477 -5.51295,5.84954 -5.24698,6.54393 1.64643,4.29839 7.99484,38.65445 7.2756,39.37371 -0.33802,0.338 -1.57748,-0.85506 -2.75441,-2.65128 -1.17691,-1.7962 -2.83043,-3.26583 -3.67445,-3.26583 -0.84403,0 -4.28087,-1.39032 -7.63741,-3.08963 -14.41763,-7.29914 -16.07817,7.51716 -2.37793,21.21738 4.07361,4.07361 5.23311,6.08285 4.69588,8.13719 -0.56283,2.15228 0.049,3.02046 2.89993,4.11439 l 3.61327,1.3865 -3.64204,2.92225 c -6.05068,4.85486 -3.94945,9.4999 4.29735,9.4999 h 6.28852 v -11.9037 c 0,-14.62458 -0.19122,-14.87742 -14.5189,-19.19882 -5.38698,-1.62479 -6.07475,-6.5607 -0.87775,-6.29932 2.02337,0.10176 4.51252,0.87688 5.53142,1.72249 1.01892,0.84562 3.85432,2.37389 6.30094,3.39616 5.27235,2.20293 8.40579,14.81369 6.82482,27.46722 -0.9361,7.49239 1.92524,16.15 6.79376,20.55595 3.71433,3.36143 3.1925,4.40974 -2.16357,4.34643 -21.10643,-0.24951 -33.141,0.15473 -33.141,1.11317 0,2.03502 -50.240621,1.81341 -58.127473,-0.25641 -3.962388,-1.0399 -9.299702,-1.5269 -12.309509,-1.12319 -3.17179,0.42542 -5.313847,0.2045 -5.313847,-0.54804 0,-1.17981 13.574979,-10.79981 19.884593,-14.09134 5.915714,-3.08604 2.69356,1.25744 -4.207831,5.67222 -8.903274,5.69535 -8.174134,6.34355 4.124682,3.66682 14.940765,-3.25173 16.843255,-4.85713 9.236367,-7.79403 l -4.418792,-1.70602 4.970232,0.60538 c 2.733631,0.33297 5.716318,-0.0137 6.628198,-0.77059 1.31903,-1.09469 1.65796,-0.40426 1.65796,3.37725 v 4.75323 l 7.51634,-0.78561 c 4.8169,-0.50346 7.81722,-0.29879 8.3541,0.56993 0.76613,1.23962 3.82477,1.1177 13.16739,-0.5249 1.73595,-0.3052 6.99116,-0.95773 11.67825,-1.45002 5.02792,-0.52811 8.52198,-1.48671 8.52198,-2.33806 0,-0.79361 0.88439,-0.18026 1.96535,1.36301 4.26565,6.09006 14.16983,2.42658 12.34148,-4.56502 -0.93907,-3.59098 -10.93217,-4.02316 -12.87211,-0.55671 -1.00295,1.79217 -1.3321,1.40544 -1.88039,-2.20938 -0.36558,-2.41003 -1.3474,-8.78488 -2.18187,-14.16633 l -1.51721,-9.7845 h -4.71364 c -8.62408,0 -12.35229,-1.48708 -19.33825,-7.71356 -8.48118,-7.55915 -7.99567,-7.58355 -9.04308,0.45411 -1.88759,14.48466 -11.67374,33.37541 -15.37327,29.67587 -1.974896,-1.9749 -1.906207,-2.19082 1.05492,-3.31663 6.51278,-2.47616 10.27994,-20.24378 4.3132,-20.34295 -0.63971,-0.0105 -2.16628,-0.9272 -3.39237,-2.03679 -2.77282,-2.50938 -4.913375,-1.32888 -4.913375,2.70968 0,1.68751 -1.040079,5.80548 -2.311283,9.15099 -1.334849,3.51308 -1.934962,7.11897 -1.420492,8.53553 1.154167,3.17795 0.403985,4.34648 -2.790395,4.34648 -1.976938,0 -2.365507,-0.52007 -1.650655,-2.20939 2.607248,-6.16142 5.685049,-21.89026 5.373252,-27.45968 -0.388272,-6.93558 1.752593,-9.83196 2.799573,-3.78753 0.866331,5.00159 5.939135,5.6132 5.235555,0.63125 -0.24515,-1.73595 -1.09735,-3.58239 -1.89376,-4.1032 -1.40036,-0.91576 2.11862,-2.54981 4.70019,-2.18257 0.604,0.0859 2.02433,-1.23409 3.15629,-2.93339 1.13195,-1.69928 3.13153,-4.60225 4.44347,-6.45103 3.99982,-5.63646 -6.38479,-15.08891 -10.70948,-9.74815 -2.92934,3.61759 -3.669761,3.39676 -3.669761,-1.09445 0,-2.41297 -0.644377,-3.78754 -1.77558,-3.78754 -1.153997,0 -1.544417,0.88394 -1.115258,2.52503 0.788773,3.01627 -0.615169,3.21299 -4.335093,0.60745 -2.604027,-1.82393 -8.611087,3.55418 -16.255268,12.43586 -6.072733,7.05584 -21.218094,13.85851 -31.296269,8.47609 0,0 22.478252,0.553 32.367882,-16.45449 z m 79.787366,70.79329 c 0.85385,-1.38155 -1.81619,-2.49702 -4.02928,-1.68332 -0.864,0.31765 -1.25656,1.08616 -0.87238,1.70779 0.9088,1.47045 3.98725,1.45508 4.90166,-0.0246 z M 112.6211,196.81883 c 1.68923,-7.50037 -0.23823,-7.41314 -3.74825,0.16962 -1.95609,4.22577 -2.07471,5.32638 -0.66782,6.19589 2.31855,1.43294 2.82369,0.70478 4.41607,-6.36551 z m 31.51976,-25.66778 c -7.38598,-7.38598 -7.67991,-7.94434 -5.76959,-10.96008 0.97787,-1.5437 2.63271,-0.49349 8.95229,5.68132 8.74499,8.54466 9.1564,6.81351 1.37091,-5.76845 -3.85442,-6.22907 -5.34799,-7.59683 -9.03645,-8.27521 -8.89336,-1.63569 -19.26897,-8.65642 -21.93518,-14.84258 -0.93376,-2.16652 -2.33352,-5.50148 -3.11061,-7.41104 -2.58,-6.33999 -6.19833,-4.56868 -7.21015,3.52965 -1.04508,8.36461 -0.67393,8.95604 3.54015,5.64125 4.95138,-3.89475 5.33911,-3.04636 1.07074,2.34289 -6.48909,8.19316 -11.86928,20.68494 -9.4839,22.01985 1.08237,0.60573 2.14218,0.90721 2.35512,0.66996 0.21297,-0.23725 3.54828,-5.09506 7.41181,-10.79514 5.98912,-8.83607 7.14837,-9.97387 7.86416,-7.71863 0.46175,1.45484 2.62312,5.07743 4.80303,8.05022 2.1799,2.97277 5.66786,7.78551 7.75102,10.69499 3.49455,4.88074 16.82887,15.75453 17.94759,14.63579 0.26782,-0.2678 -2.66661,-3.64046 -6.52094,-7.49479 z M 92.945015,160.19097 c 0,-0.69438 -0.601663,-1.26252 -1.337034,-1.26252 -0.735361,0 -0.985897,0.56814 -0.556736,1.26252 0.42915,0.69438 1.030812,1.26251 1.337023,1.26251 0.30621,0 0.556747,-0.56813 0.556747,-1.26251 z m 61.604015,-8.25507 c -0.2653,-0.26531 -1.80587,-0.13626 -3.42348,0.28675 l -2.94112,0.76911 2.99626,1.61798 c 2.72861,1.47346 5.39723,-0.64496 3.36834,-2.67384 z m -6.08998,-28.30853 c 1.02148,-0.64598 1.51461,-1.51713 1.09587,-1.93587 -1.1682,-1.1682 -7.44986,0.73896 -6.65737,2.02124 0.89317,1.4452 3.19728,1.40982 5.5615,-0.0853 z m -6.276,-5.09935 c 0,-0.69439 -0.56813,-1.26251 -1.26251,-1.26251 -0.69439,0 -1.26252,0.56812 -1.26252,1.26251 0,0.69438 0.56813,1.2625 1.26252,1.2625 0.69438,0 1.26251,-0.56812 1.26251,-1.2625 z m -1.50437,-50.570507 c -1.60293,-2.919742 -3.47482,-6.369959 -4.15972,-7.667146 -1.21641,-2.303822 -7.86082,-6.150566 -10.62377,-6.150566 -2.15557,0 -1.63274,5.035133 0.6123,5.896632 1.53298,0.588264 1.62654,0.997913 0.40086,1.755418 -1.80156,1.113426 3.11325,9.430101 6.30218,10.664351 2.84864,1.102544 2.7667,0.170495 -0.52939,-6.021208 -3.6669,-6.888265 -3.72592,-7.245137 -1.19821,-7.245137 1.05875,0 2.45454,1.392708 3.1017,3.094907 1.99355,5.243434 7.99425,14.024029 8.51549,12.460361 0.27116,-0.813448 -0.81851,-3.867873 -2.42144,-6.787612 z m -18.97677,1.892123 c 2.50143,-1.75207 3.93984,-5.609723 2.09168,-5.609723 -1.84027,0 -5.6733,2.831145 -6.8763,5.07899 -1.68024,3.139583 0.68533,3.401984 4.78462,0.530733 z M 114.40774,55.99395 c 0,-1.063368 0.8522,-2.260415 1.89377,-2.660103 2.73615,-1.049959 2.45667,-5.584893 -0.31563,-5.121332 -6.44469,1.077634 -9.52992,5.045575 -6.37568,8.199812 2.12148,2.121494 4.79754,1.888126 4.79754,-0.418377 z m 16.41269,-6.853112 c 0,-2.160366 -6.84863,-7.736358 -10.41574,-8.480265 -4.64141,-0.967947 -4.42994,-2.933452 0.31563,-2.933452 2.45608,0 3.78753,-0.639536 3.78753,-1.819261 0,-4.364971 -6.81578,-3.74563 -7.98504,0.725589 -0.43114,1.64869 -1.29525,2.296418 -2.34572,1.758333 -0.91471,-0.46855 -0.63105,-0.0093 0.63036,1.020513 1.2614,1.029833 2.20961,2.277726 2.10715,2.773096 -0.24441,1.181532 10.28804,8.154478 12.32768,8.161465 0.86798,0.0028 1.57815,-0.539736 1.57815,-1.206018 z m -20.20022,-3.838634 c 0,-1.388766 -0.56813,-2.525028 -1.26252,-2.525028 -0.69439,0 -1.26252,1.136262 -1.26252,2.525028 0,1.388766 0.56813,2.525028 1.26252,2.525028 0.69439,0 1.26252,-1.136262 1.26252,-2.525028 z m 27.15677,188.093986 c 0.43616,-0.70572 1.32187,-0.95624 1.96828,-0.55675 1.75115,1.08227 1.42464,1.83984 -0.79301,1.83984 -1.08256,0 -1.61142,-0.57739 -1.17527,-1.28309 z M 96.833926,180.3912 c 1.840494,-3.8646 2.423644,-4.58084 2.423644,-2.97675 0,0.67739 -0.88352,2.33444 -1.963411,3.68232 -1.851316,2.3108 -1.877606,2.27051 -0.460233,-0.70557 z m -4.598597,-26.63969 c -2.03173,-3.2874 0.626194,-7.43209 3.829966,-5.97235 2.419705,1.10248 2.834445,1.88385 1.91336,3.60488 -1.466438,2.74006 -4.691443,4.06946 -5.743326,2.36747 z m 36.060061,-36.486 c 0,-0.6944 0.60166,-1.26253 1.33704,-1.26253 0.73537,0 0.98589,0.56813 0.55673,1.26253 -0.42914,0.69437 -1.03081,1.26251 -1.33702,1.26251 -0.30621,0 -0.55675,-0.56814 -0.55675,-1.26251 z m 18.39878,-10.94607 c -0.88408,-2.30383 1.16873,-4.15439 4.6421,-4.18478 3.78039,-0.0331 0.83537,6.06234 -3.0212,6.25309 -0.4465,0.022 -1.17592,-0.90866 -1.6209,-2.06831 z m -5.77363,-4.20411 c 0,-0.69438 0.56813,-1.26251 1.26251,-1.26251 0.69438,0 1.26251,0.56813 1.26251,1.26251 0,0.69438 -0.56813,1.26252 -1.26251,1.26252 -0.69438,0 -1.26251,-0.56814 -1.26251,-1.26252 z"
       id="path57"
       sodipodi:nodetypes="ssssssssssssssscsssssssssscscssssscssssssssssssssssssssssssscsssssssscssssssscsscsssssssssssssssscscscsssssssssscssssscssssssssssssssssssssscssccssssssssssssssssssssssssssssscsssssssssssssssssssssssssssssssssssssssscssssssssssssssssssssssssscssssss" /><path
       d="m 16.856226,157.10102 q 0.07467,1.04533 0.07467,2.09067 0,1.04533 0.07467,2.09066 0,0.29867 -0.298667,0.59734 -0.224,0.29866 -0.373333,0.52266 -0.448,0.59734 -0.970667,1.19467 -0.522667,0.52267 -1.120001,1.04534 -0.896,0.97066 -2.240001,2.09066 0,0 -0.149333,0.14934 -0.149334,0.0747 -0.373334,0.224 -0.224,0.14933 -0.448,0.29866 -0.149333,0.0747 -0.149333,0 v -0.0747 q -0.07467,-0.14934 -0.07467,-0.29867 0,-0.14933 0,-0.29867 v -1.04533 q 0,-0.82133 -0.07467,-1.71733 0,-0.896 0,-1.71734 -0.149333,-8.13867 -0.149333,-16.12801 0.07467,-7.98933 -0.298667,-16.128 0,-0.672 0,-1.344 0,-0.74667 -0.07467,-1.49334 -0.149333,0.224 -0.3733332,0.448 -0.1493334,0.14934 -0.2986668,0.37334 -0.5973337,0.59733 -1.1946673,1.19466 -0.5226669,0.59734 -1.1200005,1.19467 -0.5226669,0.448 -0.9706671,0.896 -0.4480003,0.37333 -1.0453339,0.74667 -0.1493334,0.14933 -0.4480002,0.29866 -0.2240001,0.14934 -0.1493334,-0.224 l 0.4480002,-0.672 q 0.2986668,-0.52266 0.746667,-0.97066 0.1493335,-0.14934 0.2986669,-0.37334 0.2240001,-0.224 0.3733335,-0.37333 l 4.0320018,-4.48 q 0.149333,-0.224 0.373334,-0.448 0.448,-0.59734 0.970667,-1.12 0.522667,-0.59734 1.045334,-1.19467 0.597333,-0.52267 1.12,-1.04533 0.522667,-0.52267 1.120001,-0.97067 0,0 0.149333,-0.0747 0.224,-0.14933 0.448,-0.29867 0.224,-0.14933 0.373334,-0.224 0.224,-0.14933 0.224,-0.0747 v 0.0747 q 0.07467,0.14934 0,0.29867 0,0.14933 0,0.29867 0,0.224 0,0.52267 0.07467,0.224 0.07467,0.448 0,0.896 0,1.792 0,0.82133 0.07467,1.71733 z"
       id="text1"
       style="-inkscape-font-specification:'Abbasy Calligraphy Typeface, Normal';fill:#550000;stroke-width:3;stroke-linecap:round"
       aria-label="1" /><path
       d="m 239.8792,124.23963 q -1.26933,1.71733 -2.464,3.36 -1.12,1.64267 -2.38933,3.36 -0.672,0.896 -1.344,1.86667 -0.672,0.896 -1.344,1.792 2.464,0.74667 4.55467,2.61334 1.94133,1.71733 3.136,4.032 1.19466,2.31467 1.568,4.85333 0.37333,2.912 -0.29867,5.74934 -0.59733,2.76267 -2.09067,5.22667 -0.37333,0.59733 -0.896,1.12 -0.448,0.448 -0.896,0.97067 -0.59733,0.59733 -1.26933,1.26933 -0.59734,0.59733 -1.19467,1.19467 -0.29867,0.14933 -0.52267,0.37333 -0.224,0.224 -0.52266,0.37333 -0.29867,0.29867 -0.448,0.37334 -0.224,0.14933 -0.52267,0.37333 -0.224,0.224 -0.448,0.37334 -1.344,0.82133 -2.83733,1.49333 -1.41867,0.59733 -2.98667,0.896 -4.18134,0.672 -8.13867,-1.19467 -0.672,-0.37333 -1.344,-0.74666 -0.59734,-0.37334 -1.19467,-0.82134 -0.37333,-0.29867 -0.74667,-0.59733 -0.29867,-0.37334 -0.448,-0.74667 -0.0747,-0.29867 0.224,-0.672 0.29867,-0.37333 0.448,-0.52267 0.448,-0.59733 0.97067,-1.12 0.52267,-0.52266 1.12,-1.12 0.896,-0.97066 2.24,-2.09066 -0.0747,0.0747 0.0747,0 0.14933,-0.14934 0.37333,-0.29867 0.224,-0.14934 0.448,-0.224 0.224,-0.14934 0.224,-0.0747 0.37333,0.59734 0.896,1.04534 1.86667,1.71733 4.40534,2.53866 2.53866,0.82134 5.152,0.672 1.41867,-0.0747 2.98667,-0.59733 0.0747,-0.0747 0.224,-0.0747 0.52266,-1.64266 0.672,-3.50933 0.14933,-2.38934 -0.29867,-4.33067 -0.82133,-3.584 -3.21067,-6.42134 -2.38933,-2.912 -5.97333,-4.032 0,-0.224 0.224,-0.59733 l 1.12,-1.568 q 1.26933,-1.71734 2.464,-3.36 1.19467,-1.64267 2.38933,-3.36001 0.82134,-1.04533 1.568,-2.09066 0.74667,-1.04534 1.568,-2.09067 0.0747,-0.14934 0.14934,-0.224 0.0747,-0.0747 0.14933,-0.224 -0.52267,-0.0747 -1.04533,-0.0747 -0.448,0 -1.04534,0 -2.61333,0 -5.152,0 -2.53867,-0.0747 -5.152,-0.0747 -1.64267,0 -3.28534,0 -1.568,0 -3.21066,-0.0747 0,-0.224 0.224,-0.59734 0.224,-0.224 0.37333,-0.52266 0.97067,-1.19467 2.09067,-2.31467 0.59733,-0.52267 1.12,-1.04533 0.52266,-0.52267 1.12,-0.97067 0.224,-0.14933 0.52266,-0.37333 0.29867,-0.29867 0.67201,-0.29867 h 2.38933 q 2.61333,0.0747 5.152,0.0747 2.53867,0 5.152,0.0747 h 6.49601 q 0,0.37334 -0.224,0.59734 -0.14934,0.14933 -0.224,0.29866 0,0.14934 -0.14934,0.29867 -0.0747,0 -0.0747,0.0747 l -0.14934,0.14933 q 0,0 -0.0747,0.0747 -0.29867,0.37333 -0.52267,0.74666 -0.224,0.37334 -0.52267,0.74667 z"
       id="text2"
       style="-inkscape-font-specification:'Abbasy Calligraphy Typeface, Normal';fill:#550000;stroke-width:3;stroke-linecap:round"
       aria-label="3" /></g></svg>
