<?xml version="1.0" encoding="UTF-8" standalone="no"?>
<!-- Created with Inkscape (http://www.inkscape.org/) -->

<svg
   version="1.1"
   id="svg1"
   width="300"
   height="300"
   viewBox="0 0 300.00001 300.00001"
   sodipodi:docname="Infanteria.svg"
   inkscape:version="1.4 (86a8ad7, 2024-10-11)"
   xml:space="preserve"
   xmlns:inkscape="http://www.inkscape.org/namespaces/inkscape"
   xmlns:sodipodi="http://sodipodi.sourceforge.net/DTD/sodipodi-0.dtd"
   xmlns="http://www.w3.org/2000/svg"
   xmlns:svg="http://www.w3.org/2000/svg"><defs
     id="defs1" /><sodipodi:namedview
     id="namedview1"
     pagecolor="#ffffff"
     bordercolor="#000000"
     borderopacity="0.25"
     inkscape:showpageshadow="2"
     inkscape:pageopacity="0.0"
     inkscape:pagecheckerboard="0"
     inkscape:deskcolor="#d1d1d1"
     inkscape:zoom="1.9816667"
     inkscape:cx="241.2111"
     inkscape:cy="235.40791"
     inkscape:window-width="3440"
     inkscape:window-height="1417"
     inkscape:window-x="-8"
     inkscape:window-y="-8"
     inkscape:window-maximized="1"
     inkscape:current-layer="g1" /><g
     inkscape:groupmode="layer"
     inkscape:label="Image"
     id="g1"
     transform="translate(25.609656,6.4074317)"><circle
       style="fill:#d5e5ff;stroke:#000080;stroke-width:2.9998;stroke-dasharray:none"
       id="path7"
       cx="124.39035"
       cy="143.59258"
       r="148.50011" /><path
       style="fill:#000080;stroke-width:1.36571"
       d="m 115.5233,262.18814 c -0.94985,-2.67285 1.32047,-6.73493 3.76417,-6.73493 2.69054,0 2.51854,1.78906 -0.53447,5.55936 l -2.53497,3.13055 z m 21.47021,0.0935 c 0.46423,-0.75113 1.72964,-1.3657 2.812,-1.3657 1.08237,0 1.96795,0.61457 1.96795,1.3657 0,0.75115 -1.26539,1.3657 -2.81199,1.3657 -1.5466,0 -2.43218,-0.61455 -1.96796,-1.3657 z m -40.054099,-1.06007 c -3.355585,-1.11853 -1.397556,-3.03703 3.099619,-3.03703 2.58465,0 5.07918,-0.61457 5.54341,-1.36569 1.61652,-2.6156 4.9877,-1.48347 4.5335,1.52248 l -0.43641,2.88817 -5.5702,0.26267 c -3.0636,0.14445 -6.290072,0.0226 -7.169919,-0.2706 z m -29.430895,-1.40328 c -0.473816,-0.76666 1.558234,-3.3104 4.515683,-5.65273 6.612526,-5.23724 8.797644,-11.26753 7.588796,-20.94286 -0.978632,-7.8327 0.885847,-16.09223 7.065896,-31.30142 l 3.430487,-8.44246 -0.916112,-6.22814 c -0.503861,-3.42549 -2.707143,-9.15656 -4.896183,-12.73574 -7.200457,-11.77304 -4.256979,-12.26067 3.452353,-0.57193 2.568115,3.89373 8.245704,12.12615 12.616864,18.29428 4.37113,6.16813 14.96337,21.16322 23.5383,33.3224 11.0599,15.68291 16.71553,22.53219 19.46121,23.56854 4.07154,1.53685 4.65426,2.97078 2.55578,6.28914 l -1.27287,2.01275 -3.45141,-3.24245 c -1.89829,-1.78333 -7.92267,-9.54854 -13.38751,-17.25601 l -9.93608,-14.01359 -7.15581,-0.9002 c -12.567756,-1.58104 -17.41591,4.33117 -19.009339,23.18149 -1.085526,12.84169 -2.861961,14.70901 -14.710958,15.46349 -5.009454,0.31899 -8.988884,-0.0353 -9.489097,-0.84456 z m 46.950954,-42.04004 c 0,-1.7708 -8.66479,-12.72633 -9.60551,-12.14494 -1.42675,0.88178 -2.98727,9.98754 -1.98855,11.60349 0.87499,1.41579 11.59406,1.91639 11.59406,0.54145 z m 10.9256,41.91811 c 0,-0.67077 0.97212,-1.59263 2.16024,-2.04855 3.83366,-1.4711 7.39966,-0.88336 7.39966,1.21959 0,1.43072 -1.44158,2.04854 -4.77996,2.04854 -2.62896,0 -4.77994,-0.5488 -4.77994,-1.21958 z m 42.33667,-0.71642 -10.24273,-1.53229 0.45068,-6.29771 c 0.64838,-9.05979 -7.49534,-29.71735 -12.44523,-31.56887 -3.55985,-1.33159 -13.96798,1.11079 -13.44584,3.15522 0.27937,1.09374 0.8129,3.21774 1.18567,4.72002 0.37275,1.50227 -1.39221,-0.30412 -3.92217,-4.01421 -9.49326,-13.92153 -7.43331,-11.06937 -20.83829,-28.85234 -3.67317,-4.87281 -6.2328,-9.30429 -5.68805,-9.84774 0.91843,-0.91622 3.39358,1.63008 9.24714,9.51307 l 2.34341,3.15584 1.32209,-1.98325 c 0.72716,-1.09076 1.71055,-4.80755 2.1853,-8.2595 1.15346,-8.38663 3.44173,-12.00936 2.54308,-4.02612 -0.37608,3.34107 -1.2447,8.97245 -1.93025,12.51418 -1.45415,7.51263 -0.61825,10.63173 2.84928,10.63173 h 2.48701 l 0.93846,-7.51135 c 0.51617,-4.13124 1.56142,-7.51134 2.32279,-7.51134 1.64639,0 0.28733,12.1663 -1.89385,16.95348 -1.05425,2.31383 -1.00615,4.01934 0.17563,6.22754 l 1.6275,3.04102 6.19895,-0.92958 c 3.40943,-0.51128 6.9861,-1.23165 7.94817,-1.60085 3.73511,-1.43329 5.54192,-57.85389 2.16916,-67.73542 l -1.74801,-5.12137 h -3.81973 -3.81972 l 0.56481,12.63272 c 0.31065,6.94799 0.72575,14.21469 0.92245,16.14819 0.1967,1.9335 -0.4419,4.26235 -1.4191,5.17522 l -1.77679,1.65973 v -7.48458 c 0,-4.11652 -0.61456,-7.86441 -1.36569,-8.32864 -0.75113,-0.46422 -1.36571,-5.41702 -1.36571,-11.0062 V 140.7344 h -2.83201 c -1.55762,0 -7.47593,-1.5589 -13.15179,-3.46423 -5.67585,-1.90531 -10.51861,-3.26536 -10.76167,-3.0223 -1.77556,1.77556 -3.32737,26.53358 -2.03951,32.53867 0.80906,3.7725 1.45056,7.90432 1.42557,9.18184 l -0.0455,2.32275 -2.836556,-3.41009 c -1.560095,-1.87556 -4.685308,-7.09936 -6.944912,-11.60844 -2.25959,-4.5091 -4.330236,-8.44186 -4.60141,-8.73946 -0.271187,-0.29761 -3.170526,1.92689 -6.443,4.94336 -8.686094,8.00656 -13.070849,10.63875 -14.815681,8.8939 -2.016495,-2.01648 -0.200062,-4.41911 3.340937,-4.41911 1.796017,0 6.33518,-3.34863 11.570287,-8.53561 l 8.614791,-8.53563 2.655384,-8.91153 c 1.460465,-4.90132 3.508241,-10.07787 4.550632,-11.50341 l 1.895244,-2.59191 8.228214,3.07716 c 7.96463,2.97855 14.33854,4.79831 22.87378,6.53044 8.2684,1.67796 9.444,1.33462 10.23448,-2.98915 1.04786,-5.73163 2.02905,-3.3288 4.74018,11.60845 1.29517,7.13578 4.09257,18.50523 6.21645,25.26543 2.12388,6.76021 4.81236,16.63125 5.9744,21.93564 1.16205,5.30437 3.35295,13.601 4.8687,18.43694 1.51574,4.83593 2.78916,12.78728 2.82981,17.66966 0.0522,6.27472 0.9582,10.67865 3.09043,15.02269 l 3.01653,6.14564 9.87276,4.77996 c 17.11063,8.2842 11.73714,11.36742 -13.28701,7.62388 z M 99.436788,132.96209 c 0,-0.98314 -0.61456,-1.78753 -1.365699,-1.78753 -0.751129,0 -1.365699,0.8716 -1.365699,1.93685 0,1.06528 -0.357452,3.06261 -0.794336,4.43853 l -0.794346,2.50168 2.160043,-2.65101 c 1.188021,-1.45805 2.160037,-3.45538 2.160037,-4.43852 z M 134.9865,194.2601 c -0.0229,-0.98187 0.52355,-4.36198 1.2142,-7.51134 0.69068,-3.14939 1.97456,-9.30757 2.85306,-13.68487 2.46689,-12.29146 3.08738,-8.20496 0.85756,5.64763 -1.75433,10.89856 -4.80866,20.54168 -4.92482,15.54858 z m 24.96791,-28.67316 c -2.39422,-1.48866 -4.14583,-6.7971 -10.22827,-30.9981 -6.10445,-24.2885 -6.43994,-25.18864 -8.20953,-22.02658 -0.6845,1.22317 -1.82859,2.22395 -2.54242,2.22395 -2.10369,0 -1.48245,-4.112 0.75072,-4.96892 5.09908,-1.95672 -3.98782,-35.251148 -11.46862,-42.021194 -3.46481,-3.135605 -3.97657,-8.35427 -0.6958,-7.095313 1.19648,0.459134 3.80838,1.220101 5.80423,1.69105 1.99584,0.470933 4.85792,1.913154 6.36019,3.204914 4.0545,3.486357 6.89771,4.120546 9.74453,2.173551 1.40073,-0.95797 4.24387,-2.154214 6.31808,-2.658319 l 3.77131,-0.916549 1.27459,3.102774 c 5.02793,12.239602 8.65553,84.504716 4.6041,91.717926 l -1.44691,2.57609 -0.98283,-6.554 c -0.54056,-3.6047 -1.13472,-14.59697 -1.32035,-24.42728 -0.50555,-26.77161 -3.76818,-35.455401 -8.89599,-23.67752 -2.74837,6.3126 -2.95795,6.09248 -5.4307,-5.70424 -1.46771,-7.0019 -0.36779,-12.002489 1.85052,-8.413175 0.50468,0.816582 2.18727,1.484698 3.73911,1.484698 h 2.8215 l -0.75329,-3.755675 c -1.62514,-8.102517 -6.26,-16.729816 -8.98778,-16.729816 -4.17004,0 -6.98875,1.472305 -6.98875,3.650486 0,6.767955 17.81364,77.350142 20.70782,82.049692 2.86511,4.65234 2.97086,7.79155 0.20454,6.07155 z m -0.15939,-87.333207 c -0.3957,-2.065619 -0.983,-2.967186 -1.30512,-2.003494 -0.58091,1.737853 0.45826,5.759167 1.48826,5.759167 0.29498,0 0.21258,-1.690052 -0.18314,-3.755673 z m -2.00304,-7.995022 c -0.4538,-0.453822 -1.63172,-0.502331 -2.61759,-0.107753 -1.08947,0.435959 -0.76584,0.759573 0.82511,0.8251 1.43968,0.05927 2.24629,-0.263471 1.79248,-0.717291 z M 70.315464,157.46425 c -0.331564,-0.56334 -1.040295,-3.06288 -1.574966,-5.5545 l -0.972104,-4.53025 2.518636,-2.78005 2.518623,-2.78005 0.351271,-14.96918 c 0.234518,-9.99362 1.028904,-16.2796 2.389975,-18.9116 1.317803,-2.54835 2.049313,-7.950526 2.068706,-15.277268 0.04398,-16.602168 4.8151,-25.674687 13.502137,-25.674687 6.545075,0 10.227588,20.129098 5.037967,27.538309 -2.446375,3.492693 -2.817012,8.328076 -0.911296,11.888906 0.770721,1.44016 0.778937,3.15057 0.02087,4.34877 l -1.249496,1.97494 -0.02089,-2.22274 c -0.01091,-1.22251 -0.861219,-2.92015 -1.888266,-3.77252 l -1.867349,-1.54975 -1.729917,2.08442 c -1.118139,1.34728 -1.448897,4.1347 -0.935286,7.88195 1.02672,7.49076 -1.194918,17.2487 -4.801265,21.08826 l -2.840437,3.02414 0.809409,5.90526 0.809408,5.90527 -4.641232,3.70332 c -4.989856,3.9815 -5.666219,4.25628 -6.594512,2.67905 z m -5.021158,-18.89217 c 0,-2.41172 2.940023,-1.99172 3.784134,0.54059 0.297313,0.89198 -0.432476,1.62177 -1.621768,1.62177 -1.189305,0 -2.162366,-0.97306 -2.162366,-2.16236 z m 58.725064,-10.0763 c 0,-1.19373 -3.34837,-2.32313 -13.99843,-4.72165 -2.06561,-0.46521 -3.75566,-1.71321 -3.75566,-2.77336 0,-1.06016 -1.25347,-2.12394 -2.78549,-2.36396 -6.193001,-0.97027 -1.41849,-3.16781 6.88258,-3.16781 h 8.87706 l 0.41625,-6.48708 0.41626,-6.48707 -3.14766,0.008 c -1.73121,0.004 -4.92915,0.93747 -7.10652,2.07297 -4.88282,2.54641 -5.0132,2.41583 -5.33778,-5.346341 l -0.26325,-6.295226 2.24386,1.43e-4 c 1.23413,8.1e-5 2.59761,0.921976 3.02997,2.048684 0.73992,1.928223 10.43171,3.115072 10.43171,1.277446 0,-0.424103 -1.31285,-3.822907 -2.91745,-7.552905 -3.36316,-7.817906 -3.25979,-8.045294 4.10761,-9.03346 l 5.51283,-0.739431 -1.17041,4.609933 c -0.64372,2.535448 -1.54902,6.299971 -2.01181,8.365591 l -0.8414,3.755679 h 3.48313 c 1.91572,0 3.83686,-0.92185 4.26923,-2.048558 1.95812,-5.102809 4.59097,-1.969991 4.59097,5.462802 0,8.347643 -1.34127,9.293423 -6.41714,4.524913 -4.46709,-4.196624 -6.45026,-1.84536 -4.92955,5.84443 l 1.16902,5.91128 3.12087,0.73673 c 6.99619,1.65156 1.73922,3.45586 -9.33159,3.20275 l -11.60845,-0.26539 6.82848,1.23495 c 3.75568,0.67921 9.59405,1.35609 12.97416,1.50413 8.42726,0.36916 14.22009,5.30304 6.22625,5.30304 -1.83351,0 -3.71347,0.61458 -4.17771,1.36571 -1.07851,1.74511 -4.77994,1.78586 -4.77994,0.0525 z m -20.48548,-57.892716 -7.511353,-3.0848 -0.419388,-3.547992 c -0.26852,-2.271525 0.507146,-4.209672 2.155968,-5.387164 4.095143,-2.924522 6.033723,-10.217835 4.275673,-16.085726 -2.776286,-9.266394 4.91842,-24.67589 12.32186,-24.67589 3.96075,0 17.51639,15.232966 18.57443,20.872758 1.24558,6.639538 -0.40712,9.108122 -3.42197,5.111253 l -2.31362,-3.067238 -4.31946,2.233684 c -2.67063,1.381035 -4.31945,3.279276 -4.31945,4.972865 0,3.227654 3.90492,5.174144 5.42991,2.706666 1.62908,-2.635909 3.18973,0.797214 2.18398,4.804367 -0.53759,2.141963 -1.81185,3.336622 -3.55895,3.336622 H 119.89 l 0.85502,5.347041 0.85502,5.34704 -4.1853,2.164307 c -5.15976,2.668208 -4.75891,2.698472 -13.88085,-1.047793 z m 10.92558,-30.994643 c 13.11399,-2.29242 13.9365,-4.606257 4.81849,-13.554919 l -6.10712,-5.993682 -2.95843,2.636511 c -3.76711,3.35722 -6.67852,10.20704 -6.67852,15.712898 v 4.287081 l 2.38996,-1.006781 c 1.31449,-0.553735 5.15551,-1.490236 8.53562,-2.081108 z"
       id="path8"
       sodipodi:nodetypes="ssscsssssscssscscsssscssssssscsscsssssssssssssccsssssssscssssscsssscssscccssccssscsscsccssssssscsscssssssssscsccsssscsssscsssssscsssssscsscsssssscsssssssssscssssscccsscssssccscssscccssssssscssssccccsscssssscsscscssscsscscssccscsssssscssssscccsssscsscss" /><path
       d="M 8.7480904,119.40057 25.398765,129.8539 v 0.74667 q 0,0.448 0.07467,0.672 v 0.97067 q 0,0.14933 0.07467,0.37333 v 0.29867 q 0,8.512 -8.81067,15.30667 l -10.4533388,6.34667 q -4.4800021,2.688 -7.09333671,6.86934 2.31466781,-1.04533 5.60000271,-1.94133 2.9120013,-0.82134 5.8986698,-1.12001 0.448,0 0.746667,-0.0747 h 0.746667 q 0.448,0 0.746667,-0.0747 h 1.717334 q 0,0 0.970667,0.0747 1.941334,0.14933 1.941334,0.14933 0.448,0 1.120001,0.14934 0.746667,0.14933 1.12,0.224 0,0 2.090668,0.59733 2.090668,0.59733 4.256002,1.568 l -5.824003,6.79467 -7.24267,-2.464 -8.6613374,-0.29867 q -0.4480002,0.14933 -2.5386678,0.672 -0.89600046,0.224 -1.26933397,0.224 0,0 -1.26933394,0.29867 -0.52266689,0.14933 -2.53866789,0.672 -0.5973336,0.224 -1.7173341,0.37333 -0.1493334,0.0747 -0.4480003,0.14934 -0.2240001,0.0747 -0.3733335,0.0747 0.8960005,-5.376 4.3306688,-9.25867 3.4346683,-3.88267 7.1680034,-7.31734 0,0 0.2240001,-0.224 l 0.2240001,-0.224 q 1.8666676,-1.71733 5.3760025,-5.22666 2.613335,-2.76267 4.405335,-5.97334 0.149334,-0.224 0.298667,-0.74667 0,0.14934 0.298667,-0.672 0.298667,-0.896 0.373334,-1.71733 0,-0.448 0.149333,-1.19467 0,-0.37333 0.07467,-0.59733 v -0.97067 q -0.07467,-0.0747 -0.07467,-0.37333 v -0.896 q -0.298667,-1.86667 -1.269334,-3.80801 -0.970667,-1.94133 -2.613334,-2.912 L 0.23608632,135.52857 h -0.44800021 l -4.33066871,-4.256 -0.1493334,-1.12 z"
       id="text1"
       style="-inkscape-font-specification:'Cloister Black, Normal';fill:#000080;stroke-width:3;stroke-linecap:round"
       aria-label="2" /><path
       d="m 220.76622,119.40057 4.92801,4.256 0.97066,2.83733 v 32.33069 q 0.14934,0.448 0.59734,1.26933 0.448,0.52267 0.896,0.896 h 0.0747 q 0,0.0747 0,0.14933 0.0747,0 0.224,0 0.14934,0 0.224,0.0747 0.14934,0.0747 0.22401,0.224 0.14933,0.0747 0.448,0.14933 0.37333,0.0747 0.672,0.0747 0.672,-0.37333 1.49333,-1.19467 0.896,-0.896 1.26933,-1.49333 l 1.12,1.12 -8.81067,7.69067 -7.84,-6.272 q 1.41867,-0.896 2.16533,-3.88267 V 129.8539 q -0.14933,-0.0747 -0.224,-0.29866 0,-0.29867 -0.14933,-0.37334 -0.29867,-1.26933 -1.49333,-2.464 -0.59734,-0.82133 -1.26934,-0.896 l -3.21067,2.016 q -0.0747,0.0747 -0.448,-0.0747 l -0.37333,-0.37334 z"
       id="text2"
       style="-inkscape-font-specification:'Cloister Black, Normal';fill:#000080;stroke-width:3;stroke-linecap:round"
       aria-label="1" /></g></svg>
