<?xml version="1.0" encoding="UTF-8" standalone="no"?>
<!-- Created with Inkscape (http://www.inkscape.org/) -->

<svg
   version="1.1"
   id="svg1"
   width="300"
   height="300"
   viewBox="0 0 300.00001 300.00001"
   sodipodi:docname="ficha_arquero.svg"
   inkscape:version="1.4 (86a8ad7, 2024-10-11)"
   xml:space="preserve"
   xmlns:inkscape="http://www.inkscape.org/namespaces/inkscape"
   xmlns:sodipodi="http://sodipodi.sourceforge.net/DTD/sodipodi-0.dtd"
   xmlns="http://www.w3.org/2000/svg"
   xmlns:svg="http://www.w3.org/2000/svg"><defs
     id="defs1" /><sodipodi:namedview
     id="namedview1"
     pagecolor="#ffffff"
     bordercolor="#000000"
     borderopacity="0.25"
     inkscape:showpageshadow="2"
     inkscape:pageopacity="0.0"
     inkscape:pagecheckerboard="0"
     inkscape:deskcolor="#d1d1d1"
     inkscape:zoom="2.3823529"
     inkscape:cx="80.382716"
     inkscape:cy="172.30864"
     inkscape:window-width="3440"
     inkscape:window-height="1417"
     inkscape:window-x="-8"
     inkscape:window-y="-8"
     inkscape:window-maximized="1"
     inkscape:current-layer="g1" /><g
     inkscape:groupmode="layer"
     inkscape:label="Image"
     id="g1"
     transform="translate(24.580238,6.4074245)"><circle
       style="fill:#ffffff;stroke:#000000;stroke-width:0.961425"
       id="path7"
       cx="125.41976"
       cy="143.59258"
       r="149.51929" /><path
       style="fill:#000000;stroke-width:0.816013"
       d="m 127.45689,270.84495 c -4.843,-3.06634 2.81156,-21.83286 12.60893,-30.91306 13.76812,-12.76028 16.41624,-19.9019 14.42784,-38.90959 -1.82268,-17.42344 -6.47321,-12.80865 -6.47321,6.42346 0,5.24565 -0.56914,7.06482 -3.64251,11.64264 -2.00338,2.98407 -4.24365,7.25876 -4.97838,9.49932 -1.49363,4.55492 -9.60006,17.01328 -14.37382,22.09045 -1.71473,1.82373 -3.1252,4.51657 -3.13436,5.98411 -0.0348,5.57395 -0.5219,5.66671 -13.85556,2.63871 -3.61527,-0.82101 -3.01423,-2.88955 2.39369,-8.2381 4.27142,-4.22453 10.78831,-14.15025 18.09957,-27.56696 2.08561,-3.82728 4.669,-20.51377 3.37609,-21.80669 -0.23469,-0.23468 -2.04595,0.34546 -4.025,1.28921 -1.97907,0.94375 -4.25482,1.39531 -5.05722,1.00347 -0.80242,-0.39183 -3.54564,-1.89253 -6.09607,-3.33483 -9.27773,-5.24672 -9.43675,-5.19568 -21.23789,6.81589 -5.815449,5.91914 -10.573538,11.21134 -10.573538,11.7604 0,4.60997 9.741638,10.39262 12.634428,7.49983 2.7237,-2.7237 12.12673,0.30506 14.45536,4.65612 1.74439,3.25944 -7.51059,7.91713 -12.17499,6.12723 -0.90116,-0.34581 -1.96171,-0.10576 -2.35676,0.53346 -1.35888,2.19869 -5.075232,1.15273 -11.56642,-3.25535 -15.096232,-10.25166 -16.503594,-13.03876 -10.984735,-21.75388 1.684701,-2.66039 4.411824,-7.14183 6.060268,-9.95874 l 2.997183,-5.12164 -4.076874,-1.70343 c -2.707996,-1.13147 -4.440858,-1.33944 -5.160932,-0.61937 -0.682994,0.683 -6.63842,0.83139 -16.097357,0.40112 -18.220477,-0.82885 -18.029155,-1.00931 -13.362418,12.60398 3.151737,9.1939 3.229291,9.29904 7.500694,10.16958 5.702438,1.16222 9.284188,4.61417 9.284188,8.94778 0,7.37973 -5.28903,7.94749 -12.929742,1.38797 -2.962438,-2.54324 -6.606939,-5.47064 -8.098897,-6.50532 -2.878674,-1.99638 -10.523867,-22.45833 -10.523867,-28.16654 0,-5.01402 3.705123,-8.07385 15.782353,-13.03373 8.87867,-3.6463 11.323258,-5.08962 10.811772,-6.38345 -2.028543,-5.13128 -1.757594,-13.05998 0.693521,-20.29449 3.260323,-9.62287 3.775742,-26.79791 0.821758,-27.38308 -1.07308,-0.21258 -2.100654,0.55361 -2.521725,1.88031 -1.034435,3.2592 -4.231036,4.54791 -9.278777,3.74076 -8.13041,-1.30011 -9.681415,-8.64091 -4.340708,-20.54433 1.795228,-4.00122 3.266777,-9.06534 3.270115,-11.25359 0.0073,-5.028455 1.946004,-12.138777 3.309129,-12.138777 1.557727,0 1.182909,-3.523493 -0.62975,-5.920046 -2.892285,-3.823935 -1.385892,-12.576249 2.164539,-12.576249 0.830146,0 2.072665,1.706808 2.761136,3.792907 1.989226,6.027414 5.809784,6.329275 7.077116,0.559164 1.347304,-6.134242 6.550644,-3.893478 8.056522,3.469457 0.512122,2.503999 1.360792,3.590572 2.863749,3.66652 1.174765,0.05933 2.962975,0.19168 3.973795,0.294036 1.01082,0.102357 4.096745,2.141164 6.857603,4.530668 7.743971,6.702364 9.003291,7.151393 11.424319,4.073552 1.126082,-1.431587 4.403922,-3.788909 7.284082,-5.238496 2.88015,-1.449578 5.43766,-2.755013 5.68332,-2.900945 0.24567,-0.145932 -0.40949,-1.211375 -1.4559,-2.367651 -1.15551,-1.276813 -2.1208,-4.590464 -2.45834,-8.438808 l -0.55574,-6.336482 4.67748,-2.992047 c 7.45893,-4.771259 16.2101,-2.336274 16.2101,4.510407 0,6.152882 4.32553,3.51564 21.72075,-13.242989 l 14.28648,-13.763666 -1.88422,-3.032103 C 150.4699,26.443149 144.3603,25.002706 134.97989,31.923348 c -5.78775,4.270068 -19.04895,3.453143 -25.22498,-1.553928 -3.58192,-2.903961 -2.1799,-3.520483 3.49147,-1.535313 7.98553,2.795209 16.94202,2.368459 24.13324,-1.149878 7.72737,-3.780657 10.53257,-3.288492 19.44584,3.411721 l 6.60862,4.967792 3.44536,-3.456466 c 2.83847,-2.84761 3.16344,-3.632058 1.84485,-4.453305 -1.96137,-1.2216 -1.66815,-1.521556 3.63742,-3.720857 7.04354,-2.919726 7.59071,-2.419745 4.34001,3.96572 -1.59934,3.14165 -3.11721,5.100082 -3.37305,4.35207 -0.71654,-2.095027 -2.92347,-1.620908 -5.57049,1.196721 -2.10012,2.235473 -2.1976,2.726324 -0.7758,3.906314 0.89438,0.742264 1.95377,2.406975 2.3542,3.699358 0.40045,1.292382 2.59221,4.386665 4.8706,6.876184 6.34133,6.92898 6.65875,11.046126 1.56919,20.352685 l -4.12672,7.545944 0.72171,11.883053 c 0.74292,12.231967 -0.10937,14.293197 -2.70484,6.541578 -2.86878,-8.567884 -1.93725,-18.751674 2.52467,-27.600536 4.54605,-9.015674 4.55354,-12.180402 0.0396,-16.694403 -3.4385,-3.438498 -4.21645,-3.438373 -5.07964,8.16e-4 -0.37927,1.511111 -2.32607,4.571159 -4.32625,6.800109 -2.00016,2.228948 -4.68688,6.126307 -5.97046,8.660795 -1.28361,2.534489 -3.52621,5.389448 -4.98359,6.344355 -10.93792,7.166804 -3.92875,59.219703 7.97498,59.225463 3.58895,0.002 15.51457,6.5705 20.6504,11.37447 3.32675,3.11178 6.28475,4.94493 7.97922,4.94493 1.48097,0 4.85745,1.42795 7.50328,3.17322 2.64585,1.74527 6.76905,3.52433 9.16269,3.95347 9.13913,1.63849 13.01527,5.11978 15.26308,13.70824 2.74764,10.49827 10.85348,13.83127 19.44996,7.99754 5.05052,-3.42738 4.99959,-3.43674 4.99959,0.91938 0,8.39637 -14.21273,12.80103 -23.54283,7.29614 l -3.80335,-2.24404 0.34489,2.99835 c 0.30309,2.63516 0.75237,2.95976 3.70904,2.67977 3.59964,-0.34089 5.1929,0.96043 6.20089,5.06466 0.578,2.35345 0.362,2.51623 -2.5629,1.93124 -3.70741,-0.74148 -4.08177,0.34223 -1.06222,3.07489 4.60971,4.17171 15.33221,3.04059 19.56893,-2.06433 1.82503,-2.19905 5.08039,-2.18957 5.92723,0.0172 2.77207,7.22393 -2.88877,12.42321 -13.5261,12.42321 -4.52524,0 -9.9714,0.76205 -12.91317,1.80688 -5.83395,2.07203 -9.4079,1.51959 -13.88912,-2.14687 -1.69174,-1.38417 -5.39255,-3.37981 -8.22402,-4.43474 -6.60943,-2.46256 -13.467,-10.043 -14.69284,-16.24167 l -0.88766,-4.48866 -5.70923,7.04044 c -8.48638,10.46516 -9.99088,14.23547 -10.44434,26.17365 l -0.38704,10.18989 -4.75648,3.83475 c -8.3274,6.71368 -17.44515,15.70504 -19.02716,18.76342 -0.84226,1.62828 -2.6234,3.97786 -3.95808,5.22132 -1.83554,1.71004 -2.42908,3.49554 -2.43643,7.32911 -0.0119,6.17999 -7.01945,11.78584 -11.32512,9.05972 z m 4.78731,-2.01092 c 1.11484,-0.81907 3.80806,-5.22144 3.80806,-6.22469 0,-0.30733 -0.7344,-0.55878 -1.63202,-0.55878 -0.89762,0 -1.63202,-0.48959 -1.63202,-1.08801 0,-3.30442 -4.11741,-0.77958 -4.71291,2.89 -0.87123,5.36877 0.84706,7.42197 4.16889,4.98148 z m -16.38797,-11.76725 c 2.23556,-2.23558 1.23824,-3.72035 -2.49894,-3.72035 -4.62277,0 -7.52395,3.68802 -3.68946,4.69009 3.49338,0.91291 4.45669,0.76196 6.1884,-0.96974 z m 24.13766,-4.27847 c 1.72177,-2.14159 5.16283,-6.19697 7.64681,-9.01195 4.75346,-5.38693 12.34794,-16.19383 12.34794,-17.57108 0,-0.44552 0.97923,-1.69622 2.17605,-2.77933 1.51586,-1.37183 2.17603,-3.35106 2.17603,-6.52381 0,-7.10789 2.69916,-14.36404 7.25319,-19.49869 15.6523,-17.64791 17.66427,-20.83404 18.51293,-29.31681 1.42687,-14.26253 -11.80823,-29.76195 -29.84618,-34.95235 -3.00993,-0.86611 -3.01515,-0.61616 -0.24846,11.8993 3.51192,15.88665 1.47813,30.64116 -4.19499,30.43321 -1.52371,-0.056 -2.35667,0.56526 -2.35667,1.7573 0,1.01402 -0.97922,3.08856 -2.17603,4.61008 -2.92571,3.71941 -2.96728,6.73123 -0.0716,5.18146 3.61042,-1.93223 4.07423,-1.32091 4.3049,5.67382 0.12332,3.74006 0.61604,9.67345 1.0949,13.18531 1.74948,12.83032 -1.25492,20.4123 -12.99064,32.78342 -10.00525,10.54697 -15.11946,18.64808 -12.19315,19.31446 2.73288,0.62233 4.9996,-0.74971 8.5649,-5.18434 z m 43.93114,-87.17934 c 0,-0.98124 -0.74559,-2.32927 -1.65687,-2.99561 -2.49277,-1.82277 -3.48615,-9.36453 -1.23348,-9.36453 0.96055,0 2.49344,1.44451 3.40642,3.21002 1.86147,3.59969 2.24512,10.9342 0.57195,10.9342 -0.59841,0 -1.08802,-0.80284 -1.08802,-1.78408 z m -61.88787,86.37743 c 4.3439,-5.03993 10.75106,-14.9014 10.75106,-16.54733 0,-0.93857 0.44189,-2.55665 0.98197,-3.59575 0.54008,-1.03911 1.62784,-4.06153 2.41723,-6.71651 0.7894,-2.65499 2.55074,-6.15291 3.9141,-7.77318 2.68152,-3.18681 3.06833,-5.48148 1.43763,-8.52848 -0.57268,-1.07005 -1.23631,-3.8531 -1.47474,-6.18458 -1.00063,-9.78425 -5.82986,-4.25474 -6.44248,7.37673 -0.43283,8.21746 -4.50978,17.3645 -14.52386,32.58564 l -5.63894,8.57105 2.86443,1.51482 c 1.57544,0.83314 3.03076,1.56674 3.23404,1.63022 0.20329,0.0635 1.31909,-0.98619 2.47956,-2.33263 z M 96.37399,236.29237 c 1.002,-1.002 3.32721,-1.98661 5.16713,-2.18804 4.11011,-0.44995 4.10152,-0.44136 3.34202,-3.34574 -0.78489,-3.00143 -3.94682,-4.03553 -6.83127,-2.23416 -1.86932,1.16742 -3.25026,1.04324 -8.500184,-0.76429 -9.237863,-3.18059 -9.378926,-6.81412 -0.632564,-16.29371 8.566118,-9.28423 11.228568,-12.9943 11.228568,-15.64671 0,-1.23073 0.97922,-2.76175 2.17603,-3.40227 1.19683,-0.64052 2.17604,-1.94638 2.17604,-2.9019 0,-0.95553 1.01457,-3.37892 2.25458,-5.38532 1.38881,-2.24714 1.98737,-4.48994 1.55872,-5.84051 -0.40094,-1.26325 -0.20367,-2.19253 0.46544,-2.19253 1.08613,0 1.46886,2.4176 1.63633,10.33616 0.0956,4.51727 2.6994,7.6025 6.5815,7.79815 3.08264,0.15536 3.13914,0.0838 1.10735,-1.40188 -1.83441,-1.34134 -2.09207,-2.62647 -1.7989,-8.97237 0.29618,-6.41132 -0.59233,-12.58252 -2.68376,-18.64023 -0.47502,-1.37586 -0.73124,-1.33316 -1.63238,0.27199 -1.45862,2.59824 -3.06491,2.40813 -2.36207,-0.27954 2.37664,-9.08826 -9.98954,-14.90266 -16.447617,-7.73343 -1.139961,1.26549 -3.072035,2.30089 -4.293492,2.30089 -2.002986,0 -1.891666,-0.34687 1.134837,-3.53605 5.068192,-5.34063 6.865312,-9.753 6.846682,-16.81024 -0.0234,-8.88022 -0.63618,-9.53716 -7.518741,-8.06111 -7.743997,1.66078 -16.352738,1.51134 -21.704275,-0.37679 l -4.488863,-1.58376 v 4.36622 c 0,2.40143 -0.561995,7.76926 -1.248883,11.9285 -1.09522,6.63182 -1.028282,7.80605 0.544012,9.5434 0.986086,1.08963 1.792895,3.21312 1.792895,4.71888 0,1.50576 0.979215,3.62393 2.176028,4.70703 4.303131,3.89427 1.717104,5.31666 -2.96716,1.63202 -5.984323,-4.70726 -7.901797,1.10795 -3.537051,10.72699 2.526303,5.56747 2.817832,8.61428 0.396844,4.14745 -0.917501,-1.69283 -2.244314,-2.83129 -2.948483,-2.5299 -0.70417,0.30137 -5.686788,2.34633 -11.072474,4.54432 -15.928173,6.50059 -16.137121,6.95797 -10.76716,23.56892 3.921563,12.1306 4.522564,13.05732 12.718199,19.61092 2.795319,2.23528 3.991259,2.64291 4.947732,1.68643 2.030036,-2.03003 1.518991,-5.17822 -0.840583,-5.17822 -3.115203,0 -5.998405,-4.81599 -9.383571,-15.67396 l -3.020994,-9.68985 2.477709,-2.00633 c 1.804034,-1.46082 4.293886,-2.00798 9.15729,-2.0124 8.096261,-0.007 14.394983,-1.61775 15.272589,-3.90473 0.54677,-1.42488 1.595796,-1.15079 6.638797,1.73452 l 5.989413,3.4268 3.261612,-3.26161 c 1.793882,-1.79389 3.261604,-3.57905 3.261604,-3.96703 0,-0.82208 2.857506,-3.81403 3.642642,-3.81403 2.104823,0 -5.27701,17.32385 -11.936231,28.01221 -6.583952,10.56758 -6.362282,11.04905 10.319709,22.414 6.814144,4.64228 6.051684,4.44555 8.344404,2.15284 z m 12.93286,-2.10265 c 2.38313,-0.91449 2.1537,-2.06987 -0.79461,-4.00167 -2.44884,-1.60455 -2.50334,-1.56454 -2.05256,1.50689 0.51223,3.49004 0.43346,3.42101 2.84717,2.49478 z m -49.455352,-3.09999 c 1.615208,-1.94621 0.591315,-3.85572 -2.067467,-3.85572 -2.965988,0 -5.28446,3.13927 -3.263106,4.41834 2.239956,1.41737 3.826277,1.24995 5.330573,-0.56262 z M 224.93094,208.35112 c 1.55904,-1.55904 -1.04216,-2.15595 -4.20034,-0.96387 -3.72826,1.40726 -5.69271,0.7481 -11.04863,-3.70726 -1.69154,-1.40712 -4.13959,-2.5435 -5.44008,-2.52532 -2.31715,0.0324 -2.32093,0.0577 -0.18854,1.26017 1.19682,0.67489 3.84657,2.67311 5.88833,4.44048 3.6048,3.12035 12.47912,4.00594 14.98926,1.4958 z m 21.55509,-3.96547 c 2.22056,-2.4537 0.7141,-2.91087 -3.06358,-0.9297 -2.30154,1.20702 -2.31645,1.17856 -0.47249,-0.90169 3.05535,-3.44685 2.34041,-5.15561 -1.12474,-2.68821 -6.21837,4.42787 -14.06508,3.95315 -19.54757,-1.18263 -1.90899,-1.78825 -2.44805,-1.92921 -2.44805,-0.64015 0,6.50828 21.81005,11.69756 26.65643,6.34238 z m -50.54161,-8.86342 c -2.44095,-3.20366 -4.99737,-7.66085 -5.68092,-9.90489 -1.62139,-5.32286 -3.55507,-5.35128 -2.55822,-0.0376 1.07249,5.71687 3.12371,9.25106 7.70261,13.27138 5.5541,4.87657 5.76963,3.53933 0.53653,-3.32889 z m 19.53311,0.29665 c 2.69284,-1.24608 6.10665,-2.27638 7.58621,-2.28952 2.63676,-0.0235 2.64631,-0.0546 0.48119,-1.5711 -1.97461,-1.38307 -2.89485,-1.21251 -8.67424,1.60764 -3.55589,1.73518 -7.51776,3.16584 -8.80413,3.17925 -3.03048,0.0316 -13.33152,-11.14246 -14.17919,-15.38086 -0.34501,-1.72499 -1.07328,-3.41198 -1.61837,-3.74888 -1.52087,-0.93994 0.1794,4.94128 3.02111,10.44997 6.34565,12.30116 9.77216,13.49858 22.18742,7.7535 z m -92.56737,-0.40938 c -0.0473,-1.34641 -0.33284,-1.83603 -0.63468,-1.08801 -0.30183,0.74801 -2.09921,1.39443 -3.99417,1.43649 -2.91144,0.0647 -3.10815,0.22138 -1.26936,1.01155 3.99705,1.71758 5.99008,1.25804 5.89821,-1.36003 z m 8.97637,0.64739 c 2.20545,-1.9959 2.62716,-5.29307 0.81986,-6.41005 -0.75219,-0.46488 -0.33534,-1.61128 1.16758,-3.21107 1.77831,-1.89293 1.99307,-2.64624 0.89783,-3.14927 -1.12722,-0.51774 -1.14448,-0.79891 -0.0795,-1.29589 1.94415,-0.90726 1.67854,-3.35615 -0.54402,-5.01571 -1.04721,-0.78194 -2.04022,-2.40093 -2.20665,-3.59775 -0.91718,-6.59486 -1.13061,-6.83537 -6.49057,-7.31431 -2.84625,-0.25435 -5.27761,-0.40528 -5.40303,-0.33542 -0.12543,0.0699 0.67491,3.04364 1.77852,6.60841 1.1036,3.56478 2.26647,8.92945 2.58413,11.9215 1.45762,13.72873 2.87397,15.96424 7.4759,11.79956 z m 14.76673,-1.4634 c 0.15354,0 0.28773,-2.08083 0.29818,-4.62408 0.0105,-2.54323 0.7425,-9.03053 1.6268,-14.41623 1.54038,-9.38162 1.51114,-10.08864 -0.69767,-16.86427 -3.04136,-9.32953 -3.4322,-9.61438 -7.85896,-5.72764 -2.06716,1.81499 -4.31729,3.48626 -5.00027,3.71392 -1.80006,0.60001 -1.71133,3.52209 0.44103,14.52593 1.05345,5.38568 1.84314,12.9341 1.75487,16.77423 -0.18094,7.8712 0.70906,9.04092 5.77366,7.58842 1.86074,-0.53366 3.5088,-0.97028 3.66236,-0.97028 z m -5.42629,-9.33221 c -0.52708,-0.52706 0.19089,-4.21405 1.92176,-9.86887 0.3934,-1.28524 0.18034,-3.33636 -0.47349,-4.55804 -0.81174,-1.51674 -0.83217,-2.44163 -0.0645,-2.91612 0.66235,-0.40936 0.8291,-2.26869 0.4058,-4.52507 -0.62976,-3.35693 -0.46586,-3.77992 1.32663,-3.42346 1.70666,0.3394 2.04128,1.39264 2.02162,6.36307 -0.0366,9.22949 -3.19622,20.87018 -5.13789,18.92849 z m 70.98651,7.2894 c 0,-0.52515 -0.66676,-1.50815 -1.48168,-2.18449 -0.81493,-0.67632 -1.75354,-4.22785 -2.08581,-7.89227 -0.52665,-5.80782 -2.99445,-11.12154 -4.44734,-9.57601 -0.83536,0.88863 1.70275,14.59724 3.26148,17.61552 1.43503,2.77875 4.75335,4.20096 4.75335,2.03725 z m -90.20945,-3.82563 c -1.01658,-1.22491 -1.03831,-2.163 -0.091,-3.93295 1.0164,-1.89914 0.53259,-4.66244 -2.64454,-15.10435 -5.30513,-17.43588 -4.80427,-22.52055 2.85305,-28.96377 2.82557,-2.37756 2.95011,-2.70739 1.02226,-2.70739 -1.20742,0 -2.4979,0.48961 -2.86774,1.08801 -1.42891,2.31204 -2.64151,0.92545 -2.14085,-2.44803 0.49484,-3.33432 0.38467,-3.25673 -1.93123,1.36002 -3.23436,6.44768 -3.17092,17.55266 0.18024,31.5525 1.75401,7.32761 2.2846,11.97557 1.82286,15.96845 -0.55424,4.79287 -0.36751,5.69726 1.25284,6.06822 2.73036,0.62507 4.13436,-0.96464 2.54416,-2.88071 z m 80.98925,0.48239 c -0.91298,-1.76553 -1.65997,-4.70317 -1.65997,-6.5281 0,-1.82496 -0.48962,-3.3181 -1.08801,-3.3181 -0.59843,0 -1.08803,1.00811 -1.08803,2.24025 0,1.23213 -0.4896,1.93765 -1.08802,1.56782 -0.59839,-0.36985 -1.08801,-1.84026 -1.08801,-3.26759 0,-1.42735 -1.25677,-3.96889 -2.79281,-5.64789 l -2.79282,-3.05271 0.70762,4.30146 c 1.04141,6.33053 4.492,12.35928 8.45794,14.77746 4.44301,2.70903 4.39794,2.7289 2.43211,-1.0726 z m 12.56879,-8.49366 c -1.47644,-14.27074 -4.16306,-18.55902 -13.12278,-20.94597 -2.68297,-0.71478 -6.49446,-2.71875 -8.47,-4.45329 -3.82199,-3.35575 -6.38892,-4.19575 -4.93024,-1.61335 1.62364,2.87446 9.30494,8.2419 13.35596,9.33273 6.24136,1.68063 7.78802,4.17747 8.79884,14.20439 0.77382,7.67597 3.47708,15.26042 4.92358,13.81392 0.25632,-0.25631 0.006,-4.90861 -0.55536,-10.33843 z m 24.68886,2.40008 c 3.5784,-2.50641 1.02633,-5.11759 -2.96559,-3.03429 -7.30439,3.81201 -18.52288,-2.74522 -18.53969,-10.83651 -0.0125,-6.006 -6.73453,-11.69526 -15.39877,-13.03285 -2.18378,-0.33715 -6.0517,-2.12059 -8.59537,-3.96323 -4.67809,-3.38878 -7.56243,-4.2516 -7.56243,-2.26221 0,0.59841 1.13868,1.08803 2.53038,1.08803 1.39172,0 3.68862,1.23285 5.10421,2.7397 1.41559,1.50683 4.90167,3.43099 7.74684,4.27591 7.92577,2.35371 11.52357,5.56172 13.39146,11.94061 3.65163,12.47052 15.81267,19.02185 24.28896,13.08484 z m -84.61434,-14.77855 c 0,-1.277 0.5667,-4.21331 1.25934,-6.52514 1.06925,-3.5689 0.98679,-4.50447 -0.54639,-6.19862 -0.99315,-1.09741 -1.5051,-2.29593 -1.13766,-2.66336 1.31299,-1.313 1.56993,-16.35758 0.34286,-20.07563 -1.15701,-3.50582 -1.37974,-3.65281 -3.0315,-2.00058 -1.56957,1.56999 -1.58759,1.90661 -0.15071,2.81523 0.89761,0.5676 1.38722,1.06771 1.08801,1.11135 -6.1621,0.89879 -9.04878,0.83755 -7.61612,-0.16156 1.28454,-0.89581 1.32946,-1.25997 0.21096,-1.71034 -0.78158,-0.31471 -2.32113,-1.53831 -3.42123,-2.71911 -3.69672,-3.96796 -2.97346,-0.44998 4.12194,20.04923 6.59366,19.04969 8.8805,23.70512 8.8805,18.07853 z m -24.03585,-4.2063 c 1.32084,0 -0.0327,-6.92007 -1.73413,-8.8661 -1.69677,-1.94064 1.35629,-5.17221 5.06773,-5.36404 0.91406,-0.0472 -0.4189,-0.82244 -2.96214,-1.72268 -2.54324,-0.90024 -4.62407,-2.07349 -4.62407,-2.60722 0,-0.53589 1.29649,-0.4775 2.89535,0.13039 8.94107,3.39939 13.26539,1.15156 11.2986,-5.87315 l -1.35443,-4.83756 -4.51574,0.5848 c -6.33507,0.82041 -14.08204,6.4578 -13.44609,9.78459 0.38545,2.0164 0.0957,2.38325 -1.48587,1.88129 -4.16206,-1.32099 -4.78533,12.22285 -0.71732,15.58761 1.50396,1.24397 7.10194,2.25167 9.31851,1.67745 0.79696,-0.20647 1.81377,-0.37538 2.2596,-0.37538 z m -23.65825,-20.00983 c -2.38379,-4.85244 -4.66211,-10.41386 -5.06292,-12.3587 -0.56169,-2.72545 -2.73188,-5.22029 -2.73188,-3.14054 0,3.98961 2.88091,12.74911 5.39469,16.40277 1.79114,2.60335 3.88053,7.10506 4.64306,10.00384 1.36691,5.19626 1.3914,5.21869 1.73882,1.59286 0.2487,-2.59534 -0.9231,-6.27399 -3.98177,-12.50023 z m 8.57196,-11.05471 c 2.055,-2.47611 0.37066,-3.18761 -2.7326,-1.15428 -1.51468,0.99248 -2.75399,2.77242 -2.75399,3.95545 0,1.18302 -0.48961,2.15095 -1.08801,2.15095 -0.59841,0 -1.08802,-0.95031 -1.08802,-2.11182 0,-1.1615 -0.48961,-2.41442 -1.08802,-2.78426 -0.5984,-0.36984 -1.08801,-1.62275 -1.08801,-2.78426 0,-1.1615 -0.4896,-2.11181 -1.08802,-2.11181 -2.02743,0 -1.09996,4.86739 2.28052,11.96818 l 3.36684,7.07211 1.96385,-6.28584 c 1.08013,-3.45721 2.57208,-7.0187 3.31546,-7.91442 z m 11.7766,2.11348 c 2.40181,-0.4949 2.29544,-0.67309 -1.58182,-2.64983 -4.35272,-2.21914 -5.19816,-1.97814 -6.33801,1.80671 -0.72784,2.41679 -0.0616,2.48771 7.91983,0.84312 z m 9.93725,-3.62525 c 0,-0.56311 -0.51338,-1.3411 -1.14085,-1.7289 -2.8319,-1.7502 1.54875,-4.00149 6.53374,-3.35778 5.52216,0.7131 8.31048,-0.42586 7.32564,-2.99232 -0.57794,-1.50607 -1.08232,-1.52763 -4.29867,-0.18376 -2.00414,0.8374 -7.92352,1.86978 -13.15418,2.29418 -10.16963,0.82517 -12.09172,2.57584 -6.13622,5.58899 3.167,1.60231 10.87054,1.87132 10.87054,0.37959 z m 11.42417,-0.0643 c 0.36985,-0.5984 0.15394,-1.08801 -0.47979,-1.08801 -0.63372,0 -1.15223,0.48961 -1.15223,1.08801 0,0.59842 0.2159,1.08802 0.4798,1.08802 0.26389,0 0.78239,-0.4896 1.15222,-1.08802 z m -95.576957,-1.67893 c 1.013105,-2.6401 -0.173795,-2.89577 -2.338555,-0.50374 -1.802597,1.99184 -1.814879,2.1827 -0.140517,2.1827 1.009138,0 2.124726,-0.75552 2.479072,-1.67896 z m 37.912053,-0.99842 c 10.719964,-2.75917 8.631104,-3.62748 -2.720048,-1.13068 -3.889656,0.85557 -9.42664,1.57278 -12.304408,1.59381 -3.202695,0.0235 -4.971453,0.46027 -4.559855,1.12624 1.0887,1.76155 9.087251,1.11244 19.584311,-1.58937 z m -42.106278,0.28374 c 0.718091,-0.71809 1.30562,-2.33379 1.30562,-3.59045 0,-1.25667 0.565244,-2.85009 1.256097,-3.54095 0.949456,-0.94943 0.390135,-2.06502 -2.291095,-4.56966 -4.565045,-4.26438 -6.205371,-4.17534 -8.41427,0.45676 -3.71334,7.78695 2.719249,16.66871 8.143648,11.2443 z m -5.267985,-3.13147 c -1.552839,-2.90151 -0.603972,-5.35507 2.070985,-5.35507 2.620935,0 3.7623,2.75744 2.284403,5.51892 -1.450259,2.70985 -2.845527,2.65736 -4.355388,-0.16385 z m 2.221539,-1.547 c 0,-0.89762 -0.474243,-1.63202 -1.053873,-1.63202 -0.579622,0 -0.772046,0.7344 -0.427599,1.63202 0.344447,0.89761 0.818689,1.63202 1.053873,1.63202 0.235175,0 0.427599,-0.73441 0.427599,-1.63202 z m 34.568473,2.24278 c 3.75317,-3.75318 -0.931618,-24.94881 -6.129147,-27.73044 -2.570082,-1.37547 -5.371251,3.54612 -3.382309,5.94264 0.741625,0.89362 0.877762,2.98509 0.363869,5.59032 -0.451599,2.2894 -0.895778,4.65215 -0.987074,5.25056 -0.0913,0.59842 -0.289881,1.33282 -0.4413,1.63203 -0.151427,0.2992 -0.480681,2.93288 -0.731678,5.85263 l -0.456363,5.30861 5.485957,-0.52713 c 3.017274,-0.28992 5.842392,-0.88357 6.278045,-1.31922 z m 37.088035,-5.56423 c -1.93255,-2.8635 -3.79162,-6.916 -4.13128,-9.00555 l -0.61753,-3.7992 -7.34144,-0.45927 c -9.4225,-0.58945 -9.46275,-0.99749 1.27377,12.91254 1.34542,1.7431 4.09757,3.33204 7.06588,4.07948 2.67416,0.67335 5.22561,1.81245 5.66988,2.53131 0.54668,0.88455 0.93493,0.92561 1.20113,0.12704 0.21632,-0.649 -1.18786,-3.52285 -3.12041,-6.38635 z m -31.990337,5.02866 c 0.344285,-0.55705 0.128376,-1.32036 -0.479799,-1.69623 -0.608166,-0.37588 -1.105762,0.0798 -1.105762,1.01284 0,1.91112 0.652866,2.19253 1.585561,0.68339 z m -29.330004,-1.16319 c 0.369834,-0.59842 0.18282,-1.08802 -0.415586,-1.08802 -0.598408,0 -1.39061,0.4896 -1.760452,1.08802 -0.369833,0.59841 -0.182819,1.08801 0.415588,1.08801 0.598406,0 1.390609,-0.4896 1.76045,-1.08801 z m 3.377388,-2.96938 c -1.105991,-1.10599 -2.018547,0.55912 -1.111108,2.02739 0.685492,1.10914 0.941769,1.11 1.310304,0.004 0.251978,-0.75594 0.162339,-1.67024 -0.199196,-2.03178 z m 46.114133,0.48673 c -0.90491,-0.72897 -2.26314,-2.72075 -3.01827,-4.42618 -0.75512,-1.70541 -2.34038,-3.35374 -3.52277,-3.66294 -1.49812,-0.39177 -2.14983,-1.48966 -2.14983,-3.62164 0,-3.19822 -2.43317,-6.47893 -4.805167,-6.47893 -2.950694,0 -5.262785,-3.9798 -3.847934,-6.623463 1.106156,-2.066865 1.001567,-2.679768 -0.665246,-3.898565 -2.607276,-1.906493 -3.81784,-1.832556 -3.043305,0.185867 0.344449,0.897617 0.08428,1.632025 -0.578153,1.632025 -0.662431,0 -1.204418,-1.001462 -1.204418,-2.225489 0,-2.763089 -4.652931,-7.566663 -7.329365,-7.566663 -3.293827,0 -2.801682,5.039041 1.15173,11.792332 4.44368,7.590786 6.177635,12.437236 6.177635,17.266696 0,2.49449 0.40533,3.4594 1.237214,2.94527 0.841767,-0.52023 1.048177,-3.58368 0.645777,-9.58436 l -0.591446,-8.81972 3.978299,8.28551 c 2.188066,4.55704 4.835118,9.12089 5.882329,10.14188 1.04722,1.021 1.90404,2.80061 1.90404,3.95468 0,1.81035 0.78389,2.09356 5.71208,2.06372 4.66842,-0.0283 5.41147,-0.27677 4.0668,-1.36003 z m 18.94525,-0.12734 c -0.32122,-0.83709 -0.061,-1.84519 0.57815,-2.24025 2.10662,-1.30196 1.33473,-4.94192 -1.04799,-4.94192 -2.96625,0 -3.90924,-2.88606 -1.72982,-5.29428 2.39254,-2.64375 2.21682,-4.12566 -0.57587,-4.85596 -2.23939,-0.58562 -2.26275,-0.72955 -0.544,-3.35267 2.31568,-3.534184 2.41492,-7.639807 0.1638,-6.77596 -4.29607,1.648549 -6.67155,-2.630752 -2.65394,-4.780917 4.43121,-2.371501 1.6737,-4.022524 -5.65137,-3.383665 -4.14176,0.361225 -1.3624,19.861252 3.44541,24.173072 1.27584,1.14421 1.72598,2.68089 1.35451,4.62408 -0.40423,2.11457 -0.10767,2.91036 1.08456,2.91036 0.9025,0 1.94813,1.22402 2.32361,2.72004 0.37548,1.49601 1.39241,2.72004 2.25984,2.72004 0.90422,0 1.32796,-0.64938 0.99311,-1.52197 z m 5.79775,0.86463 c -0.36154,-0.36154 -1.29996,-0.40019 -2.08537,-0.0859 -0.86795,0.34734 -0.61014,0.60515 0.65734,0.65736 1.14695,0.0472 1.78957,-0.20991 1.42803,-0.57145 z m 8.22021,-2.50258 c 1.02663,-1.73795 1.86661,-4.4308 1.86661,-5.9841 0,-3.56132 0.53718,-3.5384 3.93714,0.16788 l 2.74477,2.99204 -0.51908,-2.72004 c -0.28548,-1.49602 -1.29081,-6.14729 -2.23404,-10.33617 -0.94324,-4.18886 -1.72346,-9.970647 -1.73386,-12.848411 -0.022,-6.09824 -1.53419,-5.92964 -3.42517,0.381891 -1.77693,5.930837 -3.22494,5.411672 -2.40339,-0.861685 0.40326,-3.079269 1.9052,-6.864637 3.71604,-9.365639 l 3.0392,-4.19756 -2.35512,-5.050592 c -1.2953,-2.777824 -2.51389,-5.281214 -2.70797,-5.563088 -0.74617,-1.083722 -2.37806,2.832363 -2.39392,5.744793 -0.009,1.695375 -0.48692,2.765636 -1.07273,2.403576 -1.69888,-1.049965 -7.30499,2.395678 -10.31188,6.33791 -3.09164,4.053358 -3.43071,5.246893 -1.41627,4.985309 4.36911,-0.567356 5.53666,2.108419 2.42182,5.550292 -2.04297,2.25745 -1.00868,5.411099 1.77466,5.411099 2.46447,0 2.70626,2.460945 0.4276,4.352065 -2.24836,1.86597 -2.09458,5.23584 0.23032,5.0472 2.54407,-0.20644 3.11779,3.50182 0.80358,5.19399 -2.33059,1.70418 -1.57336,4.43623 1.23127,4.44243 1.46787,0.003 2.1219,0.81147 2.20488,2.72466 0.1803,4.15719 0.28632,4.35207 2.36747,4.35207 1.06781,0 2.78144,-1.42196 3.80807,-3.15992 z m -75.646546,-2.25449 c 4.924654,-2.23531 6.792035,-5.29533 6.792035,-11.12986 v -3.34641 l -4.476655,5.08575 c -2.462158,2.79715 -5.872561,5.80759 -7.57868,6.68986 -6.840336,3.53729 -2.024187,6.00849 5.2633,2.70066 z m -12.537445,-3.32157 c -1.954269,-1.77769 -4.157505,-3.23034 -4.896079,-3.2281 -0.738564,0.002 0.194955,0.94177 2.074486,2.08784 1.879539,1.14608 3.744463,2.61308 4.144276,3.25999 0.399814,0.64691 1.065249,1.16185 1.478738,1.14431 0.413491,-0.0175 -0.847143,-1.48638 -2.801421,-3.26404 z m 9.577234,-6.3265 c 5.925088,-6.14718 9.153814,-13.972593 7.528651,-18.247087 -0.572253,-1.50515 -1.047679,-4.785584 -1.056501,-7.289873 -0.0164,-4.648613 -1.898674,-9.651821 -3.713739,-9.871255 -1.823561,-0.220461 -2.634777,5.574616 -1.174398,8.389506 1.840875,3.548282 -2.922681,7.59448 -7.816393,6.639298 -4.049171,-0.790333 -6.020895,2.333438 -6.918942,10.961541 -0.373702,3.59046 -1.032436,7.32311 -1.463845,8.29478 -0.568043,1.27941 0.208466,2.37988 2.815366,3.98993 5.19975,3.21143 6.167827,2.97623 11.799801,-2.86684 z m 1.512685,-10.529252 c 2.235957,-1.691601 3.485412,-1.422736 2.300202,0.494989 -0.394445,0.638216 -1.545089,1.144831 -2.556994,1.125794 -1.615321,-0.03037 -1.583987,-0.228146 0.256792,-1.620783 z M 63.96129,81.078696 c -1.261564,-3.118782 -1.035129,-5.74325 0.373946,-4.33417 0.649073,0.649067 1.011856,2.338215 0.806188,3.75366 -0.329253,2.265916 -0.470309,2.335308 -1.180134,0.58051 z m 5.84923,20.226314 c 1.2638,-2.61066 2.025647,-5.018829 1.692998,-5.351484 -0.332647,-0.332644 -1.39002,1.284136 -2.349701,3.592844 -0.959688,2.30872 -3.273696,6.1561 -5.142253,8.54974 l -3.397364,4.35206 3.449255,-3.19824 c 1.897083,-1.75905 4.483265,-5.33426 5.747065,-7.94492 z m 60.25765,8.42313 c 0.36984,-0.59841 0.15393,-1.08802 -0.47979,-1.08802 -0.63373,0 -1.15224,0.48961 -1.15224,1.08802 0,0.5984 0.21591,1.08801 0.4798,1.08801 0.26389,0 0.7824,-0.48961 1.15223,-1.08801 z m -23.87418,-6.62876 c 1.13728,-1.84015 -1.26608,-3.506729 -4.90769,-3.403185 -4.26448,0.121253 -4.27864,0.149361 2.12333,-4.214014 6.20155,-4.226755 6.06475,-3.921325 3.34288,-7.46301 -2.62002,-3.409158 -8.36118,-1.69513 -7.14603,2.133462 0.73971,2.330591 -1.08993,3.068206 -2.00226,0.807198 -0.30183,-0.748005 -0.59494,-0.135997 -0.65134,1.360023 -0.0798,2.11572 -0.32745,2.364452 -1.11476,1.119527 -0.55671,-0.88028 -1.20117,-1.369888 -1.43213,-1.08802 -5.352088,6.531763 -5.098872,8.247789 1.66164,11.260859 5.62893,2.50874 8.34389,2.37126 10.12636,-0.51284 z m 6.56269,1.5926 c -0.37401,-0.97467 -1.21738,-3.90624 -1.87418,-6.514603 -0.6568,-2.608356 -1.6058,-4.488077 -2.10891,-4.177136 -0.50311,0.310932 -0.60811,1.364388 -0.23336,2.341001 0.43321,1.12893 0.2485,1.508127 -0.50715,1.041106 -1.64783,-1.018419 0.63683,7.176032 2.29989,8.249062 2.07732,1.34031 3.14041,0.92824 2.42371,-0.93943 z m 16.22347,-4.756005 c 0.36984,-0.598411 0.15394,-1.08801 -0.47979,-1.08801 -0.63373,0 -1.15223,0.489599 -1.15223,1.08801 0,0.598415 0.21591,1.088025 0.4798,1.088025 0.26389,0 0.78239,-0.48961 1.15222,-1.088025 z m -7.07211,-7.616121 c 0,-0.598413 -0.48962,-1.088011 -1.08801,-1.088011 -0.59842,0 -1.08803,0.489598 -1.08803,1.088011 0,0.598411 0.48961,1.08802 1.08803,1.08802 0.59839,0 1.08801,-0.489609 1.08801,-1.08802 z m 4.35208,-3.264051 c 0,-0.598413 -0.51851,-1.088021 -1.15224,-1.088021 -0.63372,0 -0.84963,0.489608 -0.47979,1.088021 0.36984,0.598411 0.88834,1.08802 1.15223,1.08802 0.26388,0 0.4798,-0.489609 0.4798,-1.08802 z m 44.6087,-3.264052 c 0,-1.795225 -0.40481,-3.264051 -0.89957,-3.264051 -0.49478,0 -0.68402,1.468826 -0.42053,3.264051 0.26348,1.795226 0.6683,3.264052 0.89958,3.264052 0.23129,0 0.42052,-1.468826 0.42052,-3.264052 z M 113.2039,84.489725 c 0,-0.588063 1.10161,-1.988222 2.44805,-3.11145 2.41847,-2.017578 2.4206,-2.042669 0.17463,-2.078431 -2.02932,-0.03228 -2.81866,0.909293 -5.67074,6.764654 -0.2188,0.449211 0.3775,0.519236 1.32511,0.155597 0.94762,-0.363639 1.72295,-1.142306 1.72295,-1.73037 z M 59.515602,84.112801 c 0.354354,-0.923422 0.350813,-1.972413 -0.0081,-2.331073 -0.77491,-0.774927 -3.968762,1.683767 -3.968762,3.055224 0,1.641921 3.299223,1.041116 3.976621,-0.724151 z m 63.372628,-2.014329 c 1.56595,-1.666882 2.02615,-2.865676 1.27767,-3.328262 -1.67509,-1.035264 -3.34587,0.284553 -3.34587,2.643011 0,1.111643 -0.61201,2.26811 -1.36003,2.56994 -0.74802,0.301831 -0.83335,0.58743 -0.18965,0.634676 0.64369,0.04727 2.27174,-1.086471 3.61788,-2.519365 z M 52.146197,81.167677 c -0.07082,-1.346425 -0.476103,-3.916859 -0.900675,-5.71209 l -0.771948,-3.264053 -1.340114,2.750883 c -0.971496,1.994191 -1.030437,3.565425 -0.214276,5.712089 1.36208,3.582536 3.405508,3.907487 3.227013,0.513171 z m 56.819593,-1.222718 c -5.30194,-6.388445 1.37712,-18.666579 8.91656,-16.391337 1.59579,0.481571 2.03099,0.359684 1.30565,-0.36566 -5.0288,-5.02879 -14.68824,2.561556 -14.68824,11.541942 0,2.251206 4.24408,8.268469 5.17516,7.337372 0.31626,-0.316251 -0.002,-1.271293 -0.70913,-2.122317 z m 4.64169,-1.447557 c 0.42143,-0.421434 2.05105,-0.788643 3.62137,-0.816017 1.57032,-0.02736 3.06154,-0.661769 3.31382,-1.409783 0.25227,-0.748014 -0.29348,-1.360023 -1.21282,-1.360023 -1.03846,0 -1.63261,-0.92711 -1.56883,-2.44804 0.24612,-5.869324 -0.21914,-7.344118 -2.31688,-7.344118 -1.16149,0 -2.41095,0.484 -2.77655,1.075555 -0.3712,0.600624 0.0323,0.808088 0.91376,0.469836 2.11904,-0.813153 3.56283,1.710209 1.66597,2.911663 -1.91255,1.211392 -3.42747,1.254241 -2.6995,0.07635 0.3082,-0.498675 -0.16367,-0.90668 -1.04859,-0.90668 -2.54553,0 -3.4852,8.105193 -1.12281,9.684834 1.51452,1.012695 2.26926,1.028213 3.23106,0.06648 z m 14.52526,-7.515958 c -0.40261,-0.402612 -1.49011,-0.102876 -2.41664,0.666082 -0.92653,0.768957 -1.43223,1.650493 -1.12375,1.958966 0.30846,0.308474 -0.0172,1.340321 -0.72366,2.292993 -0.70649,0.952678 0.12861,0.400546 1.85578,-1.226941 1.72715,-1.627493 2.81087,-3.288487 2.40827,-3.6911 z m -5.13669,0.730293 c 0,-0.563092 -0.4896,-1.3264 -1.08801,-1.696238 -0.59841,-0.369838 -1.08801,0.09087 -1.08801,1.023806 0,0.932931 0.4896,1.696238 1.08801,1.696238 0.59841,0 1.08801,-0.460713 1.08801,-1.023806 z m 23.93639,-0.06421 c 0,-0.59841 0.93841,-1.088018 2.08537,-1.088018 2.54202,0 3.41624,-2.029985 2.03152,-4.717259 -1.31351,-2.54908 -0.2988,-3.608475 1.79325,-1.87222 1.73077,1.436411 3.88201,0.714167 3.88201,-1.303324 0,-0.679951 1.16902,-2.487085 2.59781,-4.015853 9.91083,-10.60428 2.65251,-11.42477 -8.13596,-0.9197 -8.49738,8.274177 -9.36049,9.738079 -8.04452,13.644369 0.5431,1.612097 3.79052,1.845129 3.79052,0.272005 z m -10.7895,-3.593352 c 2.04456,-1.976343 5.14398,-4.488203 6.88761,-5.58191 7.57684,-4.752674 18.57315,-17.8608 16.62097,-19.812986 -0.54288,-0.542888 -29.03935,26.923713 -29.03935,27.989866 0,1.856888 1.7979,1.013337 5.53077,-2.59497 z m 42.11799,-9.075284 c -0.31707,-1.495825 -0.59066,-1.22223 -1.05495,1.054945 -0.40481,1.985438 -0.25315,2.700847 0.42809,2.019599 0.58021,-0.58022 0.8623,-1.963764 0.62686,-3.074544 z M 166.11287,47.167135 c 0.17624,-0.59841 -0.86364,-2.538353 -2.31087,-4.310984 l -2.63133,-3.222968 0.38662,4.310984 c 0.21265,2.371042 0.4363,4.469287 0.49701,4.662767 0.2529,0.80597 3.764,-0.439611 4.05857,-1.439799 z m -5.0362,-9.675751 c 0,-0.833591 -0.74574,-1.801788 -1.65721,-2.15155 -1.35203,-0.518823 -1.44515,-0.239726 -0.50572,1.515623 1.34978,2.522093 2.16293,2.761169 2.16293,0.635927 z m 14.98314,-11.337325 c 0.26503,-0.795069 -0.23238,-1.038226 -1.29201,-0.631606 -0.94762,0.363635 -1.72294,1.13918 -1.72294,1.723434 0,1.430082 2.47282,0.534581 3.01495,-1.091828 z"
       id="path12" /></g></svg>
