<?xml version="1.0" encoding="UTF-8" standalone="no"?>
<!-- Created with Inkscape (http://www.inkscape.org/) -->

<svg
   version="1.1"
   id="svg1"
   width="300"
   height="300"
   viewBox="0 0 300.00001 300.00001"
   sodipodi:docname="Arquero.svg"
   inkscape:version="1.4 (86a8ad7, 2024-10-11)"
   xml:space="preserve"
   xmlns:inkscape="http://www.inkscape.org/namespaces/inkscape"
   xmlns:sodipodi="http://sodipodi.sourceforge.net/DTD/sodipodi-0.dtd"
   xmlns="http://www.w3.org/2000/svg"
   xmlns:svg="http://www.w3.org/2000/svg"><defs
     id="defs1" /><sodipodi:namedview
     id="namedview1"
     pagecolor="#ffffff"
     bordercolor="#000000"
     borderopacity="0.25"
     inkscape:showpageshadow="2"
     inkscape:pageopacity="0.0"
     inkscape:pagecheckerboard="0"
     inkscape:deskcolor="#d1d1d1"
     inkscape:zoom="2.3823529"
     inkscape:cx="83.111113"
     inkscape:cy="181.12346"
     inkscape:window-width="3440"
     inkscape:window-height="1417"
     inkscape:window-x="-8"
     inkscape:window-y="-8"
     inkscape:window-maximized="1"
     inkscape:current-layer="g1" /><g
     inkscape:groupmode="layer"
     inkscape:label="Image"
     id="g1"
     transform="translate(24.580238,6.4074245)"><circle
       style="fill:#f4d7d7;stroke:#550000;stroke-width:2.9998;stroke-dasharray:none"
       id="path7"
       cx="124.35045"
       cy="143.59258"
       r="148.50011" /><path
       style="fill:#550000;stroke-width:0.734986"
       d="m 130.42348,255.80409 c -4.36211,-2.76186 2.53238,-19.66494 11.35691,-27.84351 12.401,-11.49323 14.78617,-17.92572 12.99521,-35.04602 -1.64169,-15.69335 -5.83044,-11.5368 -5.83044,5.78564 0,4.72478 -0.51263,6.36331 -3.28083,10.48657 -1.80445,2.68776 -3.82227,6.53799 -4.48404,8.55607 -1.34532,4.10264 -8.64681,15.32393 -12.94656,19.89696 -1.54446,1.64264 -2.81488,4.06809 -2.82313,5.38991 -0.0313,5.02048 -0.47007,5.10402 -12.47975,2.37669 -3.25629,-0.73948 -2.71493,-2.60263 2.156,-7.42008 3.84729,-3.80506 9.71708,-12.74519 16.30236,-24.82967 1.87851,-3.44725 4.20538,-18.47683 3.04085,-19.64137 -0.21138,-0.21138 -1.84279,0.31116 -3.62533,1.1612 -1.78256,0.85004 -3.83233,1.25676 -4.55506,0.90383 -0.72274,-0.35293 -3.19357,-1.70461 -5.49075,-3.0037 -8.35649,-4.72574 -8.49972,-4.67977 -19.12905,6.1391 -5.237994,5.33139 -9.523623,10.0981 -9.523623,10.59264 0,4.15221 8.774333,9.36067 11.379873,6.75512 2.45325,-2.45324 10.92259,0.27477 13.02,4.19379 1.57118,2.93579 -6.76482,7.13099 -10.96606,5.51882 -0.81168,-0.31148 -1.76692,-0.0953 -2.12274,0.48049 -1.22395,1.98036 -4.571281,1.03826 -10.417919,-2.93211 -13.597234,-9.23371 -14.86485,-11.74406 -9.893993,-19.5938 1.517417,-2.39623 3.973747,-6.43268 5.458507,-8.96988 l 2.699574,-4.61308 -3.672056,-1.53428 c -2.439103,-1.01912 -3.999898,-1.20644 -4.648471,-0.55787 -0.615176,0.61518 -5.979251,0.74883 -14.498951,0.36129 -16.411254,-0.74655 -16.238929,-0.90909 -12.035582,11.35245 2.838782,8.28098 2.908635,8.37568 6.755904,9.15978 5.136208,1.04682 8.362304,4.156 8.362304,8.0593 0,6.64695 -4.76385,7.15833 -11.645868,1.25015 -2.668279,-2.29071 -5.950895,-4.92743 -7.294708,-5.85937 -2.592832,-1.79814 -9.478887,-20.2283 -9.478887,-25.36971 0,-4.51615 3.337218,-7.27215 14.215226,-11.73953 7.997052,-3.28424 10.198902,-4.58424 9.738204,-5.7496 -1.827116,-4.62176 -1.583071,-11.76317 0.624657,-18.27932 2.936586,-8.66736 3.400825,-24.13698 0.740161,-24.66405 -0.966527,-0.19147 -1.892067,0.49864 -2.271328,1.69361 -0.931719,2.93557 -3.81091,4.09632 -8.35743,3.36931 -7.323091,-1.17101 -8.720087,-7.7829 -3.909692,-18.50435 1.616969,-3.60392 2.942399,-8.16519 2.945405,-10.13616 0.0066,-4.529141 1.752774,-10.933441 2.980545,-10.933441 1.403051,0 1.065451,-3.17362 -0.567218,-5.33221 -2.605092,-3.444229 -1.248278,-11.327472 1.949609,-11.327472 0.747715,0 1.866857,1.537329 2.486966,3.416286 1.791703,5.428915 5.232894,5.700802 6.374385,0.503641 1.213522,-5.525135 5.90019,-3.50687 7.25654,3.124953 0.46127,2.255362 1.225671,3.234042 2.57939,3.302452 1.058115,0.0534 2.668763,0.17264 3.579212,0.26484 0.91045,0.0922 3.689954,1.92855 6.17667,4.08079 6.975024,6.03684 8.109298,6.44128 10.289927,3.66906 1.014267,-1.28944 3.966627,-3.41268 6.560797,-4.71833 2.59417,-1.30564 4.89772,-2.48145 5.11899,-2.6129 0.22128,-0.13144 -0.36883,-1.09109 -1.31133,-2.132548 -1.04078,-1.15003 -1.91022,-4.134648 -2.21424,-7.600867 l -0.50056,-5.707293 4.21303,-2.694948 c 6.71828,-4.297492 14.60049,-2.104291 14.60049,4.062541 0,5.541924 3.89603,3.16655 19.56397,-11.928011 l 12.86788,-12.396987 -1.69712,-2.731027 c -5.98892,-9.637425 -11.49186,-10.934838 -19.94084,-4.701389 -5.21304,3.846066 -17.15746,3.110259 -22.72023,-1.399629 -3.22625,-2.615609 -1.96344,-3.170913 3.14478,-1.382862 7.1926,2.517655 15.25974,2.13328 21.7369,-1.0357 6.96007,-3.405252 9.48673,-2.961957 17.51494,3.07295 l 5.95241,4.47451 3.10325,-3.113253 c 2.55662,-2.564853 2.84932,-3.271408 1.66166,-4.011108 -1.76661,-1.1003 -1.5025,-1.370472 3.27624,-3.351391 6.34415,-2.629808 6.83698,-2.179473 3.90907,3.57194 -1.44053,2.829696 -2.80769,4.593663 -3.03812,3.919926 -0.64539,-1.886999 -2.63318,-1.459958 -5.01736,1.077891 -1.89159,2.013499 -1.97939,2.45561 -0.69877,3.518432 0.80557,0.66856 1.75977,2.167971 2.12044,3.332026 0.36068,1.164053 2.33481,3.951086 4.38696,6.193405 5.71167,6.240959 5.99757,9.949288 1.41338,18.331741 l -3.71695,6.796661 0.65004,10.70311 c 0.66916,11.017381 -0.0985,12.873941 -2.43625,5.89203 -2.58393,-7.71713 -1.74489,-16.889709 2.27398,-24.859913 4.09464,-8.120452 4.10139,-10.970935 0.0357,-15.036712 -3.09707,-3.097069 -3.79777,-3.096956 -4.57525,7.34e-4 -0.34161,1.361064 -2.0951,4.117261 -3.89667,6.124885 -1.80155,2.007622 -4.22149,5.517988 -5.37761,7.800811 -1.15616,2.282824 -3.17608,4.854296 -4.48874,5.714385 -9.85183,6.455168 -3.53864,53.339411 7.18309,53.344601 3.23258,0.002 13.97403,5.91808 18.5999,10.24503 2.99641,2.80279 5.66069,4.45392 7.18691,4.45392 1.33392,0 4.37512,1.28616 6.75823,2.85813 2.38313,1.57197 6.09691,3.17438 8.25287,3.5609 8.23165,1.4758 11.72291,4.61141 13.74752,12.34707 2.47481,9.45583 9.77577,12.45788 17.51865,7.20341 4.54902,-3.08705 4.50315,-3.09548 4.50315,0.82809 0,7.56264 -12.80146,11.52994 -21.20512,6.57166 l -3.42569,-2.02121 0.31065,2.70062 c 0.27299,2.3735 0.67766,2.66587 3.34074,2.41368 3.24221,-0.30704 4.67727,0.86507 5.58517,4.56176 0.5206,2.11976 0.32605,2.26638 -2.30842,1.73948 -3.33927,-0.66786 -3.67646,0.30824 -0.95674,2.76956 4.15198,3.75748 13.80978,2.73867 17.62581,-1.85935 1.64381,-1.98069 4.57593,-1.97215 5.33868,0.0155 2.49681,6.50663 -2.60193,11.18964 -12.18301,11.18964 -4.0759,0 -8.98128,0.68638 -11.63094,1.62746 -5.25467,1.86629 -8.47374,1.3687 -12.50999,-1.93369 -1.52375,-1.24673 -4.85709,-3.04421 -7.4074,-3.99439 -5.95314,-2.21804 -12.12978,-9.04577 -13.2339,-14.62894 l -0.79952,-4.04295 -5.14233,6.34135 c -7.64371,9.42601 -8.99882,12.82194 -9.40725,23.57471 l -0.34861,9.17807 -4.28418,3.45398 c -7.50052,6.04703 -15.71291,14.14559 -17.13784,16.90028 -0.75862,1.4666 -2.3629,3.58287 -3.56505,4.70286 -1.65328,1.54024 -2.18789,3.14845 -2.19451,6.60136 -0.0107,5.56634 -6.32244,10.61555 -10.20058,8.16013 z m 4.31195,-1.81124 c 1.00414,-0.73774 3.42993,-4.70297 3.42993,-5.6066 0,-0.27682 -0.66147,-0.5033 -1.46996,-0.5033 -0.80849,0 -1.46997,-0.44097 -1.46997,-0.97997 0,-2.97631 -3.70857,-0.70217 -4.24494,2.60303 -0.78472,4.83567 0.76295,6.685 3.75494,4.48684 z m -14.76071,-10.59881 c 2.01358,-2.01359 1.11529,-3.35093 -2.2508,-3.35093 -4.16375,0 -6.77685,3.32181 -3.32311,4.22438 3.1465,0.82226 4.01415,0.6863 5.57391,-0.87345 z m 21.74088,-3.85363 c 1.55081,-1.92894 4.65018,-5.58164 6.88751,-8.1171 4.28146,-4.85203 11.12184,-14.58584 11.12184,-15.82634 0,-0.40128 0.882,-1.52779 1.95998,-2.50335 1.36534,-1.23561 1.95996,-3.01832 1.95996,-5.87602 0,-6.40211 2.43114,-12.93775 6.53297,-17.56255 14.09809,-15.89554 15.91028,-18.7653 16.67467,-26.40576 1.28519,-12.84632 -10.63572,-26.8067 -26.88257,-31.48172 -2.71105,-0.7801 -2.71576,-0.55497 -0.22379,10.71775 3.1632,14.30917 1.33136,27.59861 -3.77844,27.41131 -1.37241,-0.0504 -2.12266,0.50913 -2.12266,1.5828 0,0.91334 -0.88199,2.78188 -1.95996,4.15232 -2.6352,3.35009 -2.67264,6.06285 -0.0645,4.66696 3.25192,-1.74037 3.66967,-1.18975 3.87744,5.11043 0.11107,3.36869 0.55487,8.71292 0.98618,11.87606 1.57576,11.55632 -1.13031,18.38544 -11.70072,29.52815 -9.01177,9.4997 -13.61816,16.7964 -10.98242,17.39661 2.46152,0.56054 4.50316,-0.67526 7.71444,-4.66955 z m 39.56895,-78.52277 c 0,-0.8838 -0.67156,-2.09798 -1.49235,-2.69816 -2.24525,-1.64177 -3.13999,-8.43466 -1.111,-8.43466 0.86517,0 2.24585,1.30107 3.06818,2.89127 1.67663,3.24226 2.02218,9.84848 0.51515,9.84848 -0.53899,0 -0.97998,-0.72312 -0.97998,-1.60693 z m -55.74264,77.80048 c 3.91257,-4.53948 9.68352,-13.42174 9.68352,-14.90424 0,-0.84537 0.39801,-2.30278 0.88446,-3.23871 0.48646,-0.93593 1.46621,-3.65823 2.17721,-6.04958 0.71102,-2.39136 2.29746,-5.54195 3.52545,-7.00133 2.41525,-2.87038 2.76365,-4.93719 1.29488,-7.68164 -0.51582,-0.9638 -1.11355,-3.4705 -1.32831,-5.57047 -0.90127,-8.81272 -5.25098,-3.83226 -5.80277,6.64425 -0.38985,7.40149 -4.06197,15.64027 -13.08169,29.35001 l -5.07902,7.71997 2.58001,1.36441 c 1.419,0.75041 2.72981,1.41117 2.91291,1.46834 0.1831,0.0572 1.18811,-0.88826 2.23335,-2.10101 z M 102.427,224.68245 c 0.9025,-0.9025 2.99683,-1.78935 4.65405,-1.97077 3.70199,-0.40528 3.69425,-0.39754 3.01017,-3.01353 -0.70695,-2.7034 -3.55492,-3.63481 -6.15295,-2.01231 -1.68371,1.0515 -2.92752,0.93965 -7.65615,-0.6884 -8.320578,-2.86477 -8.447634,-6.1375 -0.569752,-14.67581 7.715532,-8.36234 10.113612,-11.70401 10.113612,-14.09305 0,-1.10852 0.88199,-2.48752 1.95996,-3.06444 1.07799,-0.57692 1.95997,-1.75311 1.95997,-2.61375 0,-0.86065 0.91382,-3.04341 2.03071,-4.85058 1.2509,-2.02401 1.79003,-4.0441 1.40394,-5.26057 -0.36113,-1.13781 -0.18345,-1.97482 0.41922,-1.97482 0.97828,0 1.32301,2.17754 1.47385,9.30982 0.0861,4.06872 2.43136,6.8476 5.92798,7.02382 2.77655,0.13994 2.82744,0.0755 0.9974,-1.26267 -1.65226,-1.20815 -1.88434,-2.36568 -1.62028,-8.08145 0.26677,-5.7747 -0.53351,-11.33313 -2.41727,-16.78933 -0.42785,-1.23924 -0.65863,-1.20078 -1.47029,0.24498 -1.31379,2.34025 -2.76058,2.16902 -2.12753,-0.25178 2.14065,-8.18583 -8.99761,-13.42288 -14.814426,-6.96553 -1.026767,1.13983 -2.766994,2.07242 -3.867165,2.07242 -1.804097,0 -1.703831,-0.31243 1.022152,-3.18493 4.564939,-4.81033 6.183609,-8.78457 6.166829,-15.14105 -0.0211,-7.99845 -0.57301,-8.59016 -6.772155,-7.26067 -6.975048,1.49587 -14.728974,1.36127 -19.549124,-0.33938 l -4.043136,-1.4265 v 3.93267 c 0,2.16298 -0.506191,6.99781 -1.124873,10.74405 -0.986469,5.97331 -0.926178,7.03094 0.489993,8.59578 0.888172,0.98143 1.614868,2.89407 1.614868,4.25031 0,1.35624 0.881982,3.26409 1.959956,4.23964 3.875847,3.50758 1.546603,4.78874 -2.672532,1.46997 -5.390103,-4.23985 -7.117179,0.99793 -3.185835,9.66184 2.27545,5.01464 2.538032,7.75891 0.357439,3.73562 -0.826397,-1.52474 -2.021463,-2.55015 -2.65571,-2.27869 -0.634249,0.27145 -5.122112,2.11335 -9.97302,4.09309 -14.346566,5.8551 -14.534767,6.26707 -9.698022,21.22861 3.532167,10.92608 4.07349,11.76078 11.45533,17.66363 2.517755,2.01333 3.594943,2.38048 4.456441,1.51898 1.828462,-1.82846 1.368161,-4.66404 -0.757116,-4.66404 -2.805875,0 -5.402786,-4.33778 -8.451818,-14.1176 l -2.721021,-8.72769 2.231682,-1.8071 c 1.6249,-1.31577 3.867519,-1.8086 8.248006,-1.81258 7.292333,-0.006 12.965616,-1.45711 13.756079,-3.51701 0.492478,-1.28339 1.43734,-1.03652 5.97959,1.56229 l 5.394688,3.08653 2.937746,-2.93774 c 1.615756,-1.61576 2.937739,-3.22366 2.937739,-3.57312 0,-0.74045 2.573767,-3.43531 3.280942,-3.43531 1.895822,0 -4.753023,15.60366 -10.751009,25.2307 -5.930191,9.51826 -5.730532,9.95193 9.295001,20.18838 6.137521,4.18132 5.450771,4.00412 7.515841,1.93907 z m 11.64867,-1.89386 c 2.14649,-0.82369 1.93985,-1.86434 -0.71571,-3.60432 -2.20568,-1.44523 -2.25476,-1.40919 -1.84875,1.35726 0.46137,3.14349 0.39042,3.08132 2.56446,2.24706 z m -44.544623,-2.79218 c 1.454824,-1.75296 0.5326,-3.47286 -1.862175,-3.47286 -2.671477,0 -4.759733,2.82755 -2.939092,3.97962 2.017537,1.27663 3.446342,1.12583 4.801267,-0.50676 z M 218.21873,199.51566 c 1.40423,-1.40423 -0.93868,-1.94187 -3.78326,-0.86816 -3.35806,1.26752 -5.12745,0.67382 -9.95155,-3.33914 -1.52357,-1.2674 -3.72854,-2.29094 -4.8999,-2.27457 -2.08706,0.0292 -2.09047,0.052 -0.16982,1.13504 1.07798,0.60788 3.46462,2.40768 5.30365,3.99956 3.24685,2.81051 11.23999,3.60816 13.50088,1.34727 z m 19.41475,-3.57171 c 2.00007,-2.21006 0.64319,-2.62184 -2.75938,-0.83739 -2.073,1.08717 -2.08643,1.06154 -0.42557,-0.81215 2.75197,-3.10459 2.10802,-4.64368 -1.01306,-2.42128 -5.60091,3.98819 -12.66847,3.56061 -17.60657,-1.0652 -1.71943,-1.61069 -2.20497,-1.73765 -2.20497,-0.57659 0,5.86203 19.6444,10.53604 24.00955,5.71261 z m -45.52302,-7.98332 c -2.19857,-2.88555 -4.50115,-6.90016 -5.11683,-8.92137 -1.46039,-4.79432 -3.20206,-4.81992 -2.30419,-0.0339 0.96599,5.14921 2.81353,8.33247 6.93777,11.95358 5.00259,4.39235 5.19672,3.18789 0.48325,-2.99834 z m 17.59355,0.26719 c 2.42545,-1.12235 5.50028,-2.05034 6.83293,-2.06218 2.37494,-0.0212 2.38354,-0.0492 0.43341,-1.41509 -1.77854,-1.24574 -2.60741,-1.09211 -7.81293,1.44801 -3.2028,1.56288 -6.77127,2.85148 -7.92991,2.86356 -2.72956,0.0285 -12.00775,-10.03606 -12.77125,-13.8536 -0.31075,-1.55371 -0.96671,-3.07318 -1.45767,-3.37663 -1.36986,-0.84661 0.16158,4.45063 2.72112,9.41233 5.71555,11.0797 8.80183,12.15822 19.9843,6.9836 z m -83.37579,-0.36873 c -0.0426,-1.21271 -0.29979,-1.65372 -0.57166,-0.97997 -0.27186,0.67373 -1.89076,1.25597 -3.59756,1.29385 -2.62235,0.0583 -2.79952,0.1994 -1.14332,0.91111 3.60016,1.54703 5.39529,1.13312 5.31254,-1.22499 z m 8.08505,0.58311 c 1.98646,-1.79771 2.3663,-4.76749 0.73845,-5.77356 -0.6775,-0.41872 -0.30204,-1.45128 1.05165,-2.89222 1.60173,-1.70497 1.79516,-2.38348 0.80868,-2.83656 -1.01529,-0.46633 -1.03084,-0.71958 -0.0716,-1.16721 1.7511,-0.81717 1.51187,-3.0229 -0.49,-4.51767 -0.94323,-0.7043 -1.83763,-2.16253 -1.98754,-3.24051 -0.82611,-5.94001 -1.01834,-6.15664 -5.84608,-6.58803 -2.56363,-0.22909 -4.75356,-0.36503 -4.86653,-0.30211 -0.11297,0.063 0.6079,2.74142 1.60192,5.95222 0.99402,3.21081 2.04142,8.04279 2.32754,10.73774 1.31288,12.36552 2.58859,14.37905 6.73357,10.62791 z m 13.30045,-1.31809 c 0.1383,0 0.25916,-1.87421 0.26858,-4.16493 0.009,-2.29069 0.66877,-8.13383 1.46526,-12.98475 1.38743,-8.45006 1.36109,-9.08688 -0.62839,-15.18971 -2.73937,-8.40315 -3.0914,-8.65971 -7.0786,-5.15891 -1.8619,1.63477 -3.8886,3.14009 -4.50376,3.34514 -1.62132,0.54043 -1.5414,3.17236 0.39724,13.08356 0.94884,4.85091 1.66012,11.6498 1.58061,15.10862 -0.16297,7.08962 0.63866,8.14319 5.20036,6.83492 1.67598,-0.48067 3.16039,-0.87394 3.2987,-0.87394 z m -4.88748,-8.40556 c -0.47474,-0.47472 0.17194,-3.79561 1.73094,-8.88893 0.35434,-1.15762 0.16243,-3.00507 -0.42647,-4.10544 -0.73114,-1.36613 -0.74954,-2.19919 -0.0581,-2.62656 0.59658,-0.36871 0.74677,-2.04342 0.36551,-4.07575 -0.56723,-3.0236 -0.41961,-3.40459 1.1949,-3.08352 1.53719,0.3057 1.83859,1.25435 1.82088,5.73124 -0.033,8.31304 -2.87885,18.79785 -4.62772,17.04896 z m 63.93782,6.56559 c 0,-0.473 -0.60055,-1.35839 -1.33455,-1.96757 -0.73401,-0.60917 -1.57942,-3.80805 -1.8787,-7.1086 -0.47435,-5.23113 -2.69711,-10.01722 -4.00573,-8.62515 -0.75242,0.80039 1.53367,13.14779 2.93762,15.86636 1.29254,2.50284 4.28136,3.78383 4.28136,1.83496 z m -81.25199,-3.44576 c -0.91564,-1.10328 -0.93521,-1.94822 -0.082,-3.54242 0.91548,-1.71056 0.47971,-4.19948 -2.38194,-13.60454 -4.77835,-15.70457 -4.32723,-20.28435 2.56975,-26.08778 2.545,-2.14148 2.65718,-2.43856 0.92075,-2.43856 -1.08752,0 -2.24986,0.44099 -2.58298,0.97997 -1.28703,2.08247 -2.37922,0.83356 -1.92827,-2.20495 0.4457,-3.00323 0.34647,-2.93334 -1.73947,1.22498 -2.9132,5.80745 -2.85606,15.80975 0.16234,28.41946 1.57985,6.6 2.05775,10.78644 1.64186,14.38284 -0.49921,4.31696 -0.33102,5.13155 1.12844,5.46567 2.45924,0.563 3.72383,-0.86885 2.29153,-2.59467 z m 72.94733,0.43449 c -0.82233,-1.59022 -1.49515,-4.23616 -1.49515,-5.87988 0,-1.64375 -0.441,-2.98863 -0.97997,-2.98863 -0.53901,0 -0.97999,0.90801 -0.97999,2.01781 0,1.10978 -0.44099,1.74525 -0.97999,1.41214 -0.53897,-0.33313 -0.97997,-1.65753 -0.97997,-2.94313 0,-1.28562 -1.13198,-3.5748 -2.5155,-5.08708 l -2.5155,-2.74959 0.63736,3.87434 c 0.938,5.70194 4.04596,11.13206 7.61809,13.31012 4.00184,2.44003 3.96125,2.45793 2.19062,-0.9661 z m 11.32075,-7.65027 c -1.32983,-12.85371 -3.74968,-16.71618 -11.81974,-18.86611 -2.41656,-0.64381 -5.84958,-2.44879 -7.62896,-4.0111 -3.44248,-3.02254 -5.75452,-3.77913 -4.44068,-1.45315 1.46242,2.58904 8.38099,7.42351 12.02976,8.40603 5.62162,1.51375 7.0147,3.76266 7.92515,12.79395 0.69698,6.91377 3.13182,13.74511 4.43469,12.44225 0.23087,-0.23086 0.005,-4.42121 -0.50022,-9.31187 z m 22.23735,2.16176 c 3.22308,-2.25753 0.92442,-4.60943 -2.67111,-2.73299 -6.5791,3.43349 -16.68363,-2.47263 -16.69877,-9.76049 -0.0113,-5.40963 -6.06582,-10.53396 -13.86974,-11.73874 -1.96693,-0.30367 -5.45079,-1.91002 -7.74188,-3.56969 -4.21357,-3.05229 -6.81151,-3.82944 -6.81151,-2.03758 0,0.53899 1.02562,0.97999 2.27912,0.97999 1.25353,0 3.32236,1.11043 4.59739,2.46766 1.27502,1.3572 4.41495,3.0903 6.9776,3.85133 7.13878,2.11999 10.37933,5.00946 12.06174,10.75495 3.28904,11.23224 14.24254,17.13305 21.87716,11.78556 z m -76.21246,-13.31109 c 0,-1.1502 0.51043,-3.79495 1.1343,-5.87722 0.96307,-3.21452 0.8888,-4.05719 -0.49214,-5.58312 -0.89453,-0.98844 -1.35565,-2.06796 -1.02469,-2.3989 1.18261,-1.18262 1.41404,-14.73334 0.30881,-18.0822 -1.04212,-3.1577 -1.24274,-3.2901 -2.73048,-1.80193 -1.41372,1.4141 -1.42995,1.71729 -0.13575,2.53569 0.80848,0.51124 1.24948,0.96169 0.97998,1.001 -5.55023,0.80954 -8.15027,0.75438 -6.85987,-0.14552 1.15699,-0.80686 1.19745,-1.13486 0.19001,-1.54051 -0.70397,-0.28346 -2.09065,-1.38556 -3.08151,-2.44911 -3.32965,-3.57396 -2.67821,-0.4053 3.71264,18.05842 5.93894,17.15812 7.9987,21.35129 7.9987,16.2834 z m -21.64918,-3.78863 c 1.18969,0 -0.0294,-6.23294 -1.56194,-7.98573 -1.52828,-1.74795 1.22162,-4.65863 4.56453,-4.83141 0.8233,-0.0425 -0.37731,-0.74078 -2.66801,-1.55163 -2.29071,-0.81085 -4.16492,-1.8676 -4.16492,-2.34833 0,-0.48268 1.16775,-0.43009 2.60785,0.11744 8.05326,3.06184 11.94819,1.03721 10.17669,-5.28997 l -1.21994,-4.35721 -4.06734,0.52673 c -5.70602,0.73895 -12.68375,5.81657 -12.11094,8.81302 0.34717,1.81618 0.0862,2.1466 -1.33833,1.69449 -3.74879,-1.18982 -4.31017,11.00917 -0.6461,14.03982 1.35463,1.12045 6.39675,2.02809 8.39322,1.51088 0.71783,-0.18597 1.63367,-0.3381 2.03523,-0.3381 z m -21.30907,-18.02293 c -2.14709,-4.37062 -4.19918,-9.37981 -4.56019,-11.13153 -0.50592,-2.45483 -2.46062,-4.70194 -2.46062,-2.8287 0,3.59346 2.59485,11.48317 4.85902,14.77404 1.61329,2.34485 3.49521,6.39955 4.18202,9.0105 1.23118,4.68029 1.25324,4.70049 1.56616,1.43469 0.22401,-2.33763 -0.83144,-5.65101 -3.58639,-11.259 z m 7.72079,-9.95702 c 1.85095,-2.23025 0.33386,-2.8711 -2.46126,-1.03967 -1.36428,0.89393 -2.48053,2.49713 -2.48053,3.56269 0,1.06555 -0.44099,1.93737 -0.97998,1.93737 -0.53899,0 -0.97998,-0.85595 -0.97998,-1.90212 0,-1.04617 -0.44099,-2.17468 -0.97998,-2.5078 -0.53898,-0.33311 -0.97997,-1.46162 -0.97997,-2.50779 0,-1.04617 -0.44099,-1.90212 -0.97999,-1.90212 -1.82611,0 -0.99074,4.38408 2.05407,10.77979 l 3.03253,6.36988 1.76884,-5.66169 c 0.97288,-3.11392 2.31669,-6.32176 2.98625,-7.12854 z m 10.60723,1.90362 c 2.16332,-0.44576 2.06751,-0.60626 -1.42475,-2.38672 -3.92051,-1.99878 -4.682,-1.78171 -5.70867,1.62731 -0.65557,2.17682 -0.0555,2.24069 7.13342,0.75941 z m 8.95052,-3.26528 c 0,-0.5072 -0.4624,-1.20793 -1.02757,-1.55723 -2.5507,-1.57641 1.39497,-3.60415 5.88497,-3.02436 4.97383,0.64229 7.48528,-0.38358 6.59823,-2.6952 -0.52055,-1.35652 -0.97485,-1.37594 -3.87183,-0.16551 -1.80514,0.75425 -7.13674,1.68412 -11.84802,2.06638 -9.15982,0.74323 -10.89106,2.32007 -5.52692,5.03402 2.85253,1.44321 9.79114,1.68551 9.79114,0.3419 z m 10.28979,-0.0579 c 0.33313,-0.53898 0.13866,-0.97997 -0.43214,-0.97997 -0.5708,0 -1.03782,0.44099 -1.03782,0.97997 0,0.539 0.19446,0.97999 0.43215,0.97999 0.23769,0 0.70471,-0.44099 1.03781,-0.97999 z m -86.086524,-1.51221 c 0.912507,-2.37795 -0.156538,-2.60824 -2.106346,-0.45372 -1.623606,1.79405 -1.634668,1.96596 -0.126564,1.96596 0.908934,0 1.913749,-0.6805 2.23291,-1.51224 z m 34.147531,-0.89929 c 9.655513,-2.48519 7.774063,-3.26728 -2.449958,-1.0184 -3.503428,0.77061 -8.49061,1.41661 -11.082627,1.43555 -2.88468,0.0212 -4.477807,0.41456 -4.107079,1.01441 0.980596,1.58663 8.184922,1.00198 17.639664,-1.43156 z m -37.925286,0.25557 c 0.646787,-0.64679 1.175977,-2.10205 1.175977,-3.23393 0,-1.13189 0.509118,-2.56709 1.131371,-3.18935 0.855179,-0.85515 0.351397,-1.85997 -2.063598,-4.11591 -4.111753,-3.84094 -5.589201,-3.76074 -7.578765,0.41141 -3.344619,7.01373 2.449238,15.01357 7.335015,10.12778 z m -4.744894,-2.82053 c -1.398648,-2.6134 -0.544,-4.82333 1.865344,-4.82333 2.360686,0 3.388718,2.48364 2.057571,4.97091 -1.306254,2.44078 -2.562978,2.3935 -3.922915,-0.14758 z m 2.000949,-1.39339 c 0,-0.80848 -0.427153,-1.46996 -0.949228,-1.46996 -0.522068,0 -0.695385,0.66148 -0.38514,1.46996 0.310245,0.80849 0.737396,1.46997 0.949228,1.46997 0.211823,0 0.38514,-0.66148 0.38514,-1.46997 z m 31.135956,2.02009 c 3.380494,-3.38051 -0.839112,-22.47149 -5.520547,-24.97692 -2.314882,-1.238891 -4.837906,3.19401 -3.046458,5.35256 0.667984,0.80489 0.790603,2.68868 0.327738,5.03522 -0.406757,2.06207 -0.806831,4.19021 -0.889061,4.7292 -0.08223,0.539 -0.261097,1.20048 -0.397481,1.46998 -0.136391,0.26949 -0.432951,2.64165 -0.659025,5.27148 l -0.411048,4.78149 4.941222,-0.47479 c 2.717671,-0.26113 5.262265,-0.79583 5.65466,-1.18822 z m 33.405328,-5.01173 c -1.74065,-2.57916 -3.41512,-6.22927 -3.72106,-8.11133 l -0.55621,-3.42196 -6.61246,-0.41366 c -8.48688,-0.53092 -8.52313,-0.89844 1.14729,11.63037 1.21182,1.57002 3.6907,3.00118 6.36426,3.67441 2.40863,0.60648 4.70673,1.63248 5.10689,2.27996 0.49239,0.79671 0.84209,0.8337 1.08186,0.11442 0.19484,-0.58455 -1.06991,-3.17304 -2.81057,-5.75221 z m -28.813812,4.52934 c 0.310098,-0.50174 0.115628,-1.18926 -0.432157,-1.52781 -0.547778,-0.33855 -0.995964,0.0719 -0.995964,0.91227 0,1.72136 0.588039,1.97482 1.428121,0.61554 z m -26.417647,-1.04769 c 0.333111,-0.539 0.164666,-0.97999 -0.37432,-0.97999 -0.538989,0 -1.252528,0.44099 -1.585646,0.97999 -0.33311,0.53899 -0.164666,0.97997 0.374322,0.97997 0.538986,0 1.252527,-0.44098 1.585644,-0.97997 z m 3.042026,-2.67454 c -0.99617,-0.99617 -1.818113,0.50361 -1.000779,1.82608 0.617425,0.99901 0.848255,0.99978 1.180196,0.004 0.226957,-0.68087 0.146219,-1.50439 -0.179417,-1.83003 z m 41.535173,0.4384 c -0.81505,-0.65658 -2.03842,-2.45059 -2.71856,-3.98667 -0.68014,-1.53607 -2.10799,-3.02073 -3.17298,-3.29923 -1.34936,-0.35287 -1.93636,-1.34174 -1.93636,-3.26202 0,-2.88065 -2.19156,-5.8356 -4.328029,-5.8356 -2.657701,0 -4.740211,-3.58462 -3.465849,-5.965781 0.996319,-1.86163 0.902115,-2.41368 -0.59919,-3.51145 -2.348383,-1.71719 -3.438743,-1.65059 -2.741116,0.16741 0.310247,0.80849 0.07591,1.46997 -0.520745,1.46997 -0.596654,0 -1.084824,-0.90202 -1.084824,-2.00451 0,-2.48872 -4.190912,-6.81532 -6.601587,-6.81532 -2.966762,0 -2.523485,4.53869 1.037368,10.6214 4.00244,6.837051 5.564219,11.202271 5.564219,15.552181 0,2.2468 0.365083,3.1159 1.114364,2.65282 0.758183,-0.46858 0.944097,-3.22784 0.581654,-8.63267 l -0.532718,-7.94396 3.583269,7.46279 c 1.9708,4.10454 4.355004,8.21522 5.298234,9.13483 0.94324,0.91962 1.71498,2.52252 1.71498,3.562 0,1.63059 0.70605,1.88567 5.14489,1.8588 4.20486,-0.0255 4.87413,-0.24929 3.66298,-1.22499 z m 17.06406,-0.11469 c -0.28932,-0.75397 -0.0549,-1.66197 0.52074,-2.0178 1.89744,-1.17268 1.2022,-4.45121 -0.94393,-4.45121 -2.67171,0 -3.52106,-2.59949 -1.55805,-4.76858 2.15497,-2.38123 1.9967,-3.716 -0.51869,-4.37378 -2.01703,-0.52747 -2.03807,-0.65711 -0.48998,-3.01976 2.08574,-3.18326 2.17512,-6.881211 0.14753,-6.103141 -3.86949,1.48486 -6.00909,-2.36952 -2.39041,-4.30619 3.99121,-2.13602 1.50751,-3.6231 -5.09021,-3.04768 -3.7305,0.32536 -1.22712,17.889111 3.10329,21.772781 1.14915,1.0306 1.5546,2.41469 1.22001,4.16493 -0.36409,1.9046 -0.097,2.62137 0.97687,2.62137 0.81289,0 1.75469,1.10248 2.09288,2.44995 0.3382,1.34746 1.25415,2.44995 2.03545,2.44995 0.81444,0 1.1961,-0.5849 0.8945,-1.37084 z m 5.22205,0.77877 c -0.32564,-0.32564 -1.17087,-0.36045 -1.8783,-0.0774 -0.78176,0.31285 -0.54955,0.54506 0.59207,0.59209 1.03307,0.0425 1.61188,-0.18907 1.28623,-0.51471 z m 7.40398,-2.25408 c 0.92469,-1.56538 1.68126,-3.99084 1.68126,-5.3899 0,-3.2077 0.48384,-3.18705 3.5462,0.15121 l 2.47222,2.69494 -0.46753,-2.44995 c -0.25714,-1.34747 -1.16264,-5.53689 -2.01221,-9.30983 -0.84958,-3.77292 -1.55233,-8.980601 -1.5617,-11.572611 -0.0198,-5.49271 -1.38185,-5.34085 -3.08506,0.34397 -1.60049,5.341931 -2.90472,4.87431 -2.16474,-0.77612 0.36322,-2.77351 1.71602,-6.18301 3.34705,-8.43567 l 2.73742,-3.780759 -2.12127,-4.549087 c -1.16668,-2.501997 -2.26427,-4.75681 -2.43908,-5.010695 -0.67207,-0.976112 -2.14192,2.55112 -2.15621,5.174357 -0.008,1.527031 -0.43857,2.491019 -0.96621,2.16491 -1.53019,-0.945707 -6.57963,2.157797 -9.28795,5.708584 -2.78465,3.65087 -3.09005,4.72589 -1.27564,4.49028 3.93527,-0.51102 4.98689,1.89906 2.18134,4.99917 -1.84011,2.0333 -0.90852,4.8738 1.59844,4.8738 2.21976,0 2.43754,2.216581 0.38515,3.919921 -2.02511,1.68069 -1.8866,4.71594 0.20745,4.54603 2.29145,-0.18594 2.8082,3.15411 0.72378,4.67825 -2.09917,1.53496 -1.41713,3.99573 1.10901,4.00131 1.32212,0.003 1.91121,0.7309 1.98595,2.45412 0.16239,3.74439 0.25789,3.91992 2.13239,3.91992 0.96178,0 2.50525,-1.28076 3.42994,-2.84615 z m -68.135131,-2.03063 c 4.435655,-2.01335 6.117612,-4.76952 6.117612,-10.02471 v -3.01412 l -4.03214,4.58075 c -2.217675,2.51941 -5.289439,5.23092 -6.826146,6.02559 -6.161117,3.18605 -1.823193,5.41187 4.740674,2.43249 z m -11.292525,-2.99175 c -1.760217,-1.60117 -3.74468,-2.90958 -4.409917,-2.90756 -0.665227,0.002 0.175597,0.84826 1.868498,1.88052 1.692908,1.03228 3.372652,2.35362 3.732765,2.93629 0.360114,0.58267 0.959474,1.04648 1.331905,1.03068 0.372433,-0.0158 -0.763025,-1.33878 -2.523251,-2.93993 z m 8.626252,-5.6983 c 5.336749,-5.53679 8.244875,-12.585171 6.781084,-16.435221 -0.51543,-1.3557 -0.943648,-4.3104 -0.951594,-6.56602 -0.01477,-4.187023 -1.710143,-8.693431 -3.344979,-8.891076 -1.642488,-0.19857 -2.373154,5.021078 -1.057785,7.556456 1.658083,3.19596 -2.63247,6.84038 -7.040255,5.98005 -3.647104,-0.71186 -5.423043,2.10173 -6.231917,9.873101 -0.336595,3.23394 -0.929919,6.59595 -1.318491,7.47114 -0.511639,1.15237 0.187766,2.14356 2.535811,3.59374 4.683434,2.89255 5.555385,2.6807 10.628126,-2.58217 z m 1.362481,-9.48374 c 2.013935,-1.523631 3.139324,-1.281461 2.071801,0.44584 -0.355279,0.57484 -1.391668,1.03115 -2.303095,1.01401 -1.454926,-0.0274 -1.426703,-0.2055 0.231294,-1.45985 z M 73.232753,84.8809 c -1.136296,-2.809099 -0.932345,-5.172967 0.336814,-3.903804 0.584623,0.584618 0.911383,2.10604 0.726137,3.380936 -0.296559,2.040917 -0.423609,2.103417 -1.062951,0.522868 z m 5.268424,18.21792 c 1.138309,-2.35143 1.824508,-4.520481 1.524889,-4.820101 -0.299616,-0.29962 -1.251996,1.15662 -2.116384,3.236091 -0.864395,2.07947 -2.948631,5.54482 -4.631647,7.70078 l -3.060019,3.91992 3.106757,-2.88067 c 1.70871,-1.58438 4.038094,-4.80459 5.176404,-7.15602 z m 54.274293,7.58674 c 0.33312,-0.53899 0.13865,-0.97998 -0.43215,-0.97998 -0.5708,0 -1.03783,0.44099 -1.03783,0.97998 0,0.53899 0.19448,0.97998 0.43216,0.97998 0.23769,0 0.70471,-0.44099 1.03782,-0.97998 z m -21.50356,-5.97054 c 1.02435,-1.65743 -1.14037,-3.15853 -4.42038,-3.06527 -3.84103,0.10922 -3.85379,0.13453 1.91249,-3.795571 5.58576,-3.80706 5.46254,-3.53196 3.01095,-6.72197 -2.35986,-3.07064 -7.53095,-1.52681 -6.43646,1.92162 0.66626,2.09917 -0.9817,2.76355 -1.80344,0.72705 -0.27186,-0.67373 -0.53587,-0.1225 -0.58667,1.22497 -0.0719,1.90564 -0.29493,2.12968 -1.00406,1.00837 -0.50144,-0.79287 -1.0819,-1.23387 -1.28993,-0.97999 -4.820645,5.883191 -4.592573,7.428821 1.49665,10.142701 5.06999,2.25963 7.51537,2.13581 9.12085,-0.46191 z m 5.91103,1.43446 c -0.33687,-0.87789 -1.09649,-3.51837 -1.68808,-5.86773 -0.59158,-2.349361 -1.44635,-4.042431 -1.8995,-3.762361 -0.45315,0.28005 -0.54773,1.22891 -0.21019,2.10854 0.3902,1.01684 0.22383,1.35838 -0.45679,0.93773 -1.4842,-0.91729 0.5736,6.463481 2.07152,7.429961 1.87105,1.20723 2.82858,0.83607 2.18304,-0.84614 z m 14.61255,-4.28376 c 0.33311,-0.53899 0.13865,-0.97997 -0.43215,-0.97997 -0.57081,0 -1.03782,0.44098 -1.03782,0.97997 0,0.539 0.19447,0.97999 0.43216,0.97999 0.23768,0 0.7047,-0.44099 1.03781,-0.97999 z m -6.36988,-6.859871 c 0,-0.53899 -0.441,-0.97997 -0.97998,-0.97997 -0.53899,0 -0.97999,0.44098 -0.97999,0.97997 0,0.539 0.441,0.97999 0.97999,0.97999 0.53898,0 0.97998,-0.44099 0.97998,-0.97999 z m 3.91993,-2.93994 c 0,-0.53899 -0.46702,-0.97998 -1.03782,-0.97998 -0.5708,0 -0.76527,0.44099 -0.43215,0.97998 0.33312,0.53899 0.80013,0.97999 1.03782,0.97999 0.23767,0 0.43215,-0.441 0.43215,-0.97999 z m 40.17923,-2.93994 c 0,-1.61697 -0.36461,-2.93995 -0.81024,-2.93995 -0.44566,0 -0.6161,1.32298 -0.37878,2.93995 0.23732,1.61696 0.60194,2.93994 0.81026,2.93994 0.20832,0 0.37876,-1.32298 0.37876,-2.93994 z m -51.93901,-1.17274 c 0,-0.52967 0.99222,-1.7908 2.20497,-2.8025 2.17832,-1.817237 2.18024,-1.839837 0.15729,-1.872048 -1.82782,-0.02908 -2.53878,0.819004 -5.10766,6.092948 -0.19708,0.40461 0.34001,0.46768 1.19353,0.14015 0.85352,-0.32753 1.55187,-1.02888 1.55187,-1.55855 z m -48.357255,-0.3395 c 0.319168,-0.83173 0.315978,-1.77656 -0.0073,-2.09961 -0.697964,-0.697975 -3.574679,1.51658 -3.574679,2.75186 0,1.47888 2.971623,0.93773 3.581758,-0.65225 z m 57.079965,-1.81431 c 1.41046,-1.50137 1.82496,-2.581128 1.1508,-2.997781 -1.50876,-0.932466 -3.01364,0.256298 -3.01364,2.380571 0,1.00126 -0.55124,2.04289 -1.22498,2.31475 -0.67374,0.27186 -0.7506,0.5291 -0.17082,0.57166 0.57978,0.0426 2.04617,-0.97859 3.25864,-2.2692 z m -63.717617,-0.83837 c -0.06379,-1.212734 -0.428827,-3.527933 -0.811241,-5.144905 L 61.084315,76.876199 59.87727,79.35393 c -0.875031,1.796175 -0.928119,3.211392 -0.193,5.1449 1.226831,3.226809 3.067354,3.519489 2.906583,0.462219 z m 51.177627,-1.10131 c -4.77548,-5.754097 1.24037,-16.813059 8.03117,-14.76374 1.43734,0.433753 1.82933,0.323968 1.17601,-0.329352 -4.52946,-4.52945 -13.22975,2.307204 -13.22975,10.395872 0,2.02767 3.82265,7.44744 4.66128,6.6088 0.28486,-0.28485 -0.002,-1.14506 -0.63871,-1.91158 z m 4.18078,-1.30382 c 0.37959,-0.379588 1.84739,-0.710334 3.26179,-0.73499 1.41439,-0.02464 2.75754,-0.596058 2.98477,-1.269797 0.22722,-0.673739 -0.26434,-1.224978 -1.0924,-1.224978 -0.93534,0 -1.47049,-0.835051 -1.41305,-2.204959 0.22168,-5.286523 -0.19738,-6.614875 -2.08682,-6.614875 -1.04616,0 -2.17155,0.435941 -2.50085,0.968756 -0.33434,0.540985 0.0291,0.727848 0.82303,0.423183 1.90863,-0.73241 3.20905,1.540392 1.50054,2.622546 -1.72264,1.091106 -3.08713,1.1297 -2.43145,0.06877 0.2776,-0.449158 -0.14741,-0.81665 -0.94447,-0.81665 -2.29276,0 -3.13913,7.300378 -1.01131,8.723167 1.36413,0.912138 2.04393,0.926116 2.91022,0.05988 z m 13.08296,-6.769653 c -0.36263,-0.362634 -1.34215,-0.09266 -2.17668,0.599943 -0.83453,0.692603 -1.29001,1.486605 -1.01216,1.764448 0.27783,0.277844 -0.0155,1.207232 -0.65181,2.065308 -0.63633,0.858081 0.11584,0.360773 1.67151,-1.105111 1.55565,-1.465889 2.53176,-2.961953 2.16914,-3.324588 z m -4.62664,0.657778 c 0,-0.507179 -0.44098,-1.194693 -0.97997,-1.527808 -0.53899,-0.333114 -0.97998,0.08185 -0.97998,0.922146 0,0.840295 0.44099,1.527808 0.97998,1.527808 0.53899,0 0.97997,-0.414966 0.97997,-0.922146 z m 21.5596,-0.05783 c 0,-0.53899 0.84523,-0.979982 1.8783,-0.979982 2.28961,0 3.07702,-1.828415 1.8298,-4.248853 -1.18308,-2.295966 -0.26913,-3.250168 1.61519,-1.686316 1.55891,1.293781 3.49654,0.643253 3.49654,-1.173909 0,-0.612434 1.05294,-2.240127 2.33986,-3.617094 8.92672,-9.551316 2.38912,-10.290334 -7.32809,-0.828377 -7.65363,7.452582 -8.43103,8.771125 -7.24573,12.289535 0.48917,1.452022 3.41413,1.661915 3.41413,0.244996 z m -9.71814,-3.236546 c 1.84154,-1.7801 4.6332,-4.042542 6.2037,-5.027648 6.82448,-4.280751 16.7289,-16.087291 14.97057,-17.845632 -0.48898,-0.488981 -26.15586,24.250291 -26.15586,25.210579 0,1.672507 1.61938,0.912717 4.98159,-2.337299 z m 37.93583,-8.174143 c -0.28558,-1.347295 -0.53201,-1.100867 -0.95019,0.950193 -0.36462,1.788292 -0.22802,2.432663 0.38558,1.819061 0.5226,-0.522607 0.77667,-1.76877 0.56461,-2.769254 z m -10.9418,-10.638894 c 0.15874,-0.53899 -0.77788,-2.286304 -2.08141,-3.88292 l -2.37005,-2.902939 0.34823,3.88292 c 0.19154,2.135606 0.39298,4.025503 0.44766,4.199772 0.22779,0.72594 3.39025,-0.39596 3.65557,-1.296833 z m -4.53613,-8.714986 c 0,-0.750818 -0.67169,-1.622877 -1.49265,-1.937909 -1.21778,-0.467306 -1.30165,-0.215922 -0.4555,1.365127 1.21575,2.271659 1.94815,2.486996 1.94815,0.572782 z m 13.49538,-10.211576 c 0.23871,-0.716122 -0.20931,-0.935134 -1.16372,-0.56889 -0.85353,0.327528 -1.55186,1.026064 -1.55186,1.552304 0,1.28808 2.22728,0.481499 2.71558,-0.983414 z"
       id="path12" /><path
       style="-inkscape-font-specification:'Abbasy Calligraphy Typeface, Normal';fill:#550000;stroke-width:3;stroke-linecap:round"
       d="m 13.403179,142.20832 q 2.090668,0 4.181336,0.0747 2.090667,0 4.181335,-0.0747 0,0.29867 -0.224,0.59734 -0.149334,0.14933 -0.224,0.29866 -0.07467,0.0747 -0.224,0.224 -0.896001,1.26934 -2.016001,2.24 -0.597334,0.59734 -1.120001,1.12001 -0.522667,0.52266 -1.120001,0.97066 -0.224,0.14934 -0.522666,0.37334 -0.298667,0.224 -0.672001,0.29866 h -4.256002 q -2.3893342,0.0747 -4.704002,0.0747 -2.2400011,-0.0747 -4.6293356,-0.0747 h -3.4346683 -1.0453338 q -0.2240001,0 -0.3733335,-0.0747 -0.074667,0 0.074667,-0.224 0.1493334,-0.224 0.2986668,-0.448 0.2240001,-0.29867 0.3733335,-0.52267 0.2240001,-0.224 0.2240001,-0.224 0.89600046,-1.12 1.94133429,-2.16534 l 0.1493334,-0.14933 q 0.14933341,-0.14933 0.22400011,-0.37333 0.1493334,-0.224 0.29866681,-0.37334 0.22400009,-0.37333 0.44800019,-0.74666 0.2986668,-0.37334 0.5226669,-0.74667 0.522667,-0.74667 0.9706672,-1.41867 0.4480002,-0.672 0.8960004,-1.49333 0.2240001,-0.37334 0.4480002,-0.74667 0.2240001,-0.37333 0.4480002,-0.74667 0.1493334,-0.224 0.4480002,-0.82133 0.074667,-0.0747 0.2240001,-0.37333 l 0.074667,-0.0747 q 0.8213338,-1.49333 1.6426675,-3.06133 0.8213337,-1.56801 1.6426674,-3.13601 0.6720004,-1.41866 1.269334,-2.76266 0.6720005,-1.41867 1.2693335,-2.91201 0.672001,-1.64266 1.194668,-3.36 0.522667,-1.71733 0.672,-3.50933 0.149333,-1.792 -0.298667,-3.50934 -0.448,-1.71733 -1.717334,-3.06133 -1.1200005,-1.19467 -2.6880013,-1.792 -1.493334,-0.672 -3.2106682,-0.59734 -1.0453338,0.0747 -2.1653343,0.59734 -0.4480002,0.448 -0.9706672,0.97066 -0.4480002,0.448 -0.97066709,0.82134 -0.2240001,0.224 -0.44800021,0.448 -0.22400011,0.224 -0.52266692,0.37333 -0.29866681,0.29867 -0.67200032,0.37334 -0.37333346,0.14933 -0.2240001,-0.0747 0.2240001,-0.29867 0.2986668,-0.448 0.59733362,-1.12 1.71733414,-2.24 1.6426675,-2.016 3.8080018,-3.808 0.5226669,-0.448 1.0453339,-0.896 0.5226669,-0.448 1.1200005,-0.82134 1.4186673,-0.896 2.9866685,-1.26933 3.061334,-0.59734 5.600002,1.12 1.269334,0.82133 2.090668,2.09067 0.821334,1.19466 1.194667,2.688 0.373334,1.64266 0.149334,3.28533 -0.224001,1.64267 -0.597334,3.21067 -0.672,2.464 -1.717334,4.85334 -1.045334,2.31466 -2.165335,4.55466 -1.269334,2.61334 -2.688001,5.22667 -1.418667,2.53867 -2.9866679,5.00267 -1.1200006,1.86667 -2.3893345,3.73334 -1.1946673,1.792 -2.6133346,3.50933 h 1.1946672 8.2880038 z"
       id="text1"
       aria-label="2" /><path
       style="-inkscape-font-specification:'Abbasy Calligraphy Typeface, Normal';fill:#550000;stroke-width:3;stroke-linecap:round"
       d="m 244.91625,106.23963 q -1.26933,1.71733 -2.464,3.36 -1.12,1.64267 -2.38933,3.36 -0.672,0.896 -1.344,1.86667 -0.672,0.896 -1.34401,1.792 2.46401,0.74667 4.55467,2.61334 1.94134,1.71733 3.13601,4.032 1.19466,2.31467 1.568,4.85333 0.37333,2.912 -0.29867,5.74934 -0.59733,2.76267 -2.09067,5.22667 -0.37333,0.59733 -0.896,1.12 -0.448,0.448 -0.896,0.97067 -0.59733,0.59733 -1.26933,1.26933 -0.59734,0.59733 -1.19467,1.19467 -0.29867,0.14933 -0.52267,0.37333 -0.224,0.224 -0.52266,0.37333 -0.29867,0.29867 -0.448,0.37334 -0.224,0.14933 -0.52267,0.37333 -0.224,0.224 -0.448,0.37334 -1.344,0.82133 -2.83734,1.49333 -1.41866,0.59733 -2.98666,0.896 -4.18134,0.672 -8.13868,-1.19467 -0.672,-0.37333 -1.344,-0.74666 -0.59733,-0.37334 -1.19466,-0.82134 -0.37334,-0.29867 -0.74667,-0.59733 -0.29867,-0.37334 -0.448,-0.74667 -0.0747,-0.29867 0.224,-0.672 0.29867,-0.37333 0.448,-0.52267 0.448,-0.59733 0.97067,-1.12 0.52266,-0.52266 1.12,-1.12 0.896,-0.97066 2.24,-2.09066 -0.0747,0.0747 0.0747,0 0.14933,-0.14934 0.37333,-0.29867 0.224,-0.14934 0.448,-0.224 0.224,-0.14934 0.224,-0.0747 0.37333,0.59734 0.896,1.04534 1.86667,1.71733 4.40534,2.53866 2.53866,0.82134 5.152,0.672 1.41866,-0.0747 2.98667,-0.59733 0.0747,-0.0747 0.224,-0.0747 0.52266,-1.64266 0.672,-3.50933 0.14933,-2.38934 -0.29867,-4.33067 -0.82133,-3.584 -3.21067,-6.42134 -2.38933,-2.912 -5.97334,-4.032 0,-0.224 0.22401,-0.59733 l 1.12,-1.568 q 1.26933,-1.71734 2.464,-3.36 1.19466,-1.64267 2.38933,-3.36001 0.82133,-1.04533 1.568,-2.09066 0.74667,-1.04534 1.568,-2.09067 0.0747,-0.14934 0.14934,-0.224 0.0747,-0.0747 0.14933,-0.224 -0.52267,-0.0747 -1.04533,-0.0747 -0.448,0 -1.04534,0 -2.61333,0 -5.152,0 -2.53867,-0.0747 -5.152,-0.0747 -1.64267,0 -3.28534,0 -1.568,0 -3.21067,-0.0747 0,-0.224 0.224,-0.59734 0.224,-0.224 0.37334,-0.52266 0.97066,-1.19467 2.09067,-2.31467 0.59733,-0.52267 1.12,-1.04533 0.52266,-0.52267 1.12,-0.97067 0.224,-0.14933 0.52266,-0.37333 0.29867,-0.29867 0.672,-0.29867 h 2.38934 q 2.61333,0.0747 5.152,0.0747 2.53867,0 5.152,0.0747 h 6.49601 q 0,0.37334 -0.224,0.59734 -0.14934,0.14933 -0.224,0.29866 0,0.14934 -0.14934,0.29867 -0.0747,0 -0.0747,0.0747 l -0.14934,0.14933 q 0,0 -0.0747,0.0747 -0.29867,0.37333 -0.52267,0.74666 -0.224,0.37334 -0.52267,0.74667 z"
       id="text2"
       aria-label="3" /></g></svg>
