<?xml version="1.0" encoding="UTF-8" standalone="no"?>
<!-- Created with Inkscape (http://www.inkscape.org/) -->

<svg
   version="1.1"
   id="svg1"
   width="300"
   height="300"
   viewBox="0 0 300.00001 300.00001"
   sodipodi:docname="Caballero.svg"
   inkscape:version="1.4 (86a8ad7, 2024-10-11)"
   xmlns:inkscape="http://www.inkscape.org/namespaces/inkscape"
   xmlns:sodipodi="http://sodipodi.sourceforge.net/DTD/sodipodi-0.dtd"
   xmlns="http://www.w3.org/2000/svg"
   xmlns:svg="http://www.w3.org/2000/svg">
  <defs
     id="defs1" />
  <sodipodi:namedview
     id="namedview1"
     pagecolor="#ffffff"
     bordercolor="#000000"
     borderopacity="0.25"
     inkscape:showpageshadow="2"
     inkscape:pageopacity="0.0"
     inkscape:pagecheckerboard="0"
     inkscape:deskcolor="#d1d1d1"
     inkscape:zoom="2.3823529"
     inkscape:cx="161.81482"
     inkscape:cy="172.30864"
     inkscape:window-width="2256"
     inkscape:window-height="1470"
     inkscape:window-x="-11"
     inkscape:window-y="-11"
     inkscape:window-maximized="1"
     inkscape:current-layer="g1" />
  <g
     inkscape:groupmode="layer"
     inkscape:label="Image"
     id="g1"
     transform="translate(24.580238,6.4074245)">
    <circle
       style="fill:#d7e3f4;stroke:#000080;stroke-width:2.9998;stroke-dasharray:none"
       id="path7"
       cx="124.39036"
       cy="142.56317"
       r="148.50011" />
    <path
       style="fill:#000080;stroke-width:1.05968"
       d="m 181.68382,245.89494 c -1.66349,-1.7755 -3.32485,-4.17155 -3.69188,-5.32454 -0.36703,-1.15299 -1.82418,-3.24977 -3.23813,-4.65951 -1.84575,-1.84029 -2.57079,-3.73292 -2.57079,-6.71068 0,-4.89714 -2.28307,-11.81964 -5.28393,-16.02148 -1.17967,-1.65179 -2.14485,-4.06214 -2.14485,-5.35636 0,-2.43536 -4.71446,-11.20624 -8.51262,-15.8371 l -2.16963,-2.64527 0.71099,4.23244 c 0.39105,2.32784 2.11637,8.75585 3.83405,14.28447 5.76679,18.56125 4.32194,32.85826 -3.31325,32.78516 l -1.69271,-0.0162 1.50007,-0.94671 c 1.01344,-0.63962 0.15277,-0.89464 -2.65313,-0.78615 -2.28427,0.0883 -5.34711,-0.2461 -6.80633,-0.74315 -1.88667,-0.64268 -2.34126,-0.57373 -1.57355,0.23866 0.59376,0.62833 2.98159,1.5863 5.30626,2.12885 3.11295,0.72651 3.51681,1.01445 1.53264,1.09273 -1.48175,0.0585 -4.56749,-0.84603 -6.85724,-2.00995 -4.97967,-2.53126 -4.77563,-2.50865 -4.77563,-0.52904 0,2.30665 -2.65236,1.94472 -5.81554,-0.79359 l -2.75012,-2.38074 2.58286,-6.53881 c 1.42056,-3.59634 3.4212,-10.08442 4.44587,-14.41794 l 1.86304,-7.87913 -3.0633,-8.59593 c -2.00624,-5.6297 -3.61889,-8.59729 -4.67339,-8.59989 -0.88555,-0.002 -3.28155,-1.04707 -5.32447,-2.32199 -9.24321,-5.76843 -34.178196,-14.65668 -26.696569,-9.51618 l 1.426639,0.98023 -1.854749,3.57926 c -1.02011,1.96859 -3.691752,5.75258 -5.936973,8.40885 -4.725635,5.5908 -4.715309,5.51191 -2.078146,15.86878 1.10225,4.32881 2.290546,9.12155 2.640675,10.65053 0.350118,1.52899 1.82715,3.55774 3.282288,4.50836 l 2.645695,1.72838 4.13532,-1.2868 4.13533,-1.2868 -2.54946,-6.7532 c -1.40219,-3.71426 -3.52083,-8.65161 -4.70806,-10.97188 -1.187239,-2.32027 -1.950801,-4.7783 -1.696811,-5.46227 0.25398,-0.68399 0.854641,0.18485 1.334791,1.93073 l 0.873,3.17432 1.83659,-12.16825 1.8366,-12.16824 -0.5889,7.91897 c -1.13149,15.21526 -0.66282,20.17501 2.77907,29.40982 3.81444,10.23439 3.96421,11.97236 1.24337,14.42739 l -2.02151,1.82401 4.74795,4.73389 c 2.61137,2.60364 4.55902,5.30871 4.32812,6.01126 -0.71774,2.1838 -8.30201,4.11078 -12.43197,3.15865 l -3.744259,-0.86319 -1.557391,-4.82479 c -0.987348,-3.05878 -2.463128,-5.25097 -4.031862,-5.98909 l -2.474451,-1.1643 -4.458179,2.01796 c -6.431982,2.9114 -8.104125,2.67015 -8.897254,-1.28373 l -0.671624,-3.34819 -1.468117,5.71965 c -2.303494,8.97421 -6.196693,8.99724 -11.001306,0.0651 -1.032154,-1.91884 -2.604413,-4.29061 -3.493891,-5.27055 l -1.617256,-1.78176 0.623519,-8.21982 0.623507,-8.21983 -3.321119,-4.61087 c -1.82662,-2.53598 -3.805338,-5.88068 -4.397146,-7.43266 l -1.076037,-2.8218 1.615547,-3.11485 c 0.888545,-1.71321 2.02415,-3.1149 2.523555,-3.1149 3.370085,0 4.017439,-15.39249 1.050195,-24.97084 -2.574856,-8.31174 -2.436606,-17.9332 0.336778,-23.43741 l 1.732614,-3.43862 -2.836996,0.69621 c -1.560341,0.38292 -3.85111,1.35041 -5.090579,2.14999 -6.437906,4.15307 -19.310404,2.47053 -25.6896,-3.35784 L 22.015619,136.0686 V 125.32136 114.5741 l 1.658612,-1.23802 c 0.912233,-0.6809 2.504623,-2.66644 3.538644,-4.41233 2.255557,-3.80835 5.714766,-6.51398 9.557831,-7.47567 l 2.827869,-0.70764 -2.689269,5.04284 c -8.767897,16.44128 4.761633,31.8059 22.250193,25.2681 2.334757,-0.87281 7.395186,-1.78133 11.245383,-2.01895 3.850207,-0.23762 9.103414,-1.16219 11.673792,-2.05462 2.570387,-0.89241 5.523422,-1.6295 6.562304,-1.63798 l 1.888884,-0.0154 -2.376933,-4.11778 -2.376944,-4.11779 1.28259,-2.80662 c 0.705425,-1.54365 1.88018,-2.7292 2.610567,-2.63456 6.243886,0.80906 6.951478,-3.32133 1.334505,-7.78984 -6.528525,-5.193724 -8.745791,-12.392939 -3.816861,-12.392939 2.611755,0 4.0185,-2.065133 2.178912,-3.198685 -1.584802,-0.97656 -1.594788,-7.512011 -0.01591,-10.45333 l 1.069627,-1.992695 -2.239808,-1.482769 c -4.205751,-2.784214 2.51222,-10.383329 9.179355,-10.383329 h 1.670711 l -0.696406,-5.23421 C 96.32794,43.647894 111.9292,38.877231 117.67443,52.805656 c 1.08711,2.635548 2.33474,4.793687 2.7725,4.795866 1.12222,0.0052 0.98942,4.649404 -0.22394,7.831318 -2.10199,5.51226 1.20706,10.206008 8.70704,12.350593 l 3.14628,0.899668 0.54699,-2.085511 c 0.30084,-1.147022 1.70052,-2.374163 3.11037,-2.726969 1.40984,-0.352794 3.29305,-2.048319 4.18488,-3.767808 l 1.62149,-3.126362 -1.29519,-1.555992 c -1.9722,-2.369295 0.28492,-4.12492 3.26133,-2.53672 2.8484,1.51991 0.9939,4.270665 13.90214,-20.620824 10.32623,-19.912484 14.23318,-25.923664 16.849,-25.923664 3.32153,0 0.5013,8.052938 -10.10715,28.860232 l -11.21664,22.000186 2.36484,1.909251 c 2.62218,2.117012 1.90643,4.808439 -1.0315,3.878741 -1.33859,-0.423592 -2.1572,0.357663 -3.10074,2.959245 -1.22663,3.38215 -8.41924,10.22752 -10.74632,10.22752 -0.61125,0 -2.0789,0.82598 -3.26144,1.835511 l -2.15011,1.835522 2.24578,1.688964 2.24577,1.688964 0.56603,7.030803 c 0.52404,6.50897 2.40211,9.12798 2.40211,3.34979 0,-1.8316 0.4483,-2.37809 1.59188,-1.94057 1.06394,0.40707 1.59189,-0.0446 1.59189,-1.36207 0,-1.172451 1.28989,-2.540393 3.18342,-3.376061 1.75086,-0.772715 5.68075,-4.013864 8.73308,-7.20254 3.05233,-3.188684 5.69768,-5.35495 5.87856,-4.813938 0.18087,0.541011 5.20531,-0.648409 11.16541,-2.643156 14.54104,-4.866665 27.39136,-4.926587 35.22382,-0.16426 1.76293,1.071906 4.06924,1.950697 5.12515,1.952866 1.0559,0.0021 1.65131,0.437137 1.32312,0.966582 -1.58527,2.557406 0.79917,4.327919 5.82862,4.327919 6.14734,0 7.50325,1.450053 3.35556,3.588554 -1.66674,0.859343 -3.69398,2.359604 -4.50497,3.333887 l -1.47452,1.771435 1.89118,1.378756 1.89118,1.378776 -1.93124,1.08084 -1.93124,1.08085 1.59188,0.53826 c 0.87554,0.29605 2.54701,0.72076 3.71439,0.94381 l 2.12251,0.40555 -3.9797,1.96859 c -2.76578,1.36813 -3.9797,2.66754 -3.9797,4.26 0,3.3971 -2.15478,9.19285 -4.31314,11.60111 -1.04314,1.16392 -3.1582,4.2589 -4.70013,6.87771 -1.67248,2.84052 -2.51722,3.69428 -2.09383,2.11622 0.39035,-1.4549 2.01648,-4.31179 3.61364,-6.34864 4.16017,-5.30547 5.25022,-7.66195 5.54193,-11.98045 0.34239,-5.069 -0.0817,-5.34659 -9.19164,-6.01805 -1.17958,-0.087 -1.53025,-0.3945 -0.78933,-0.69233 0.73325,-0.29473 1.01308,-1.05229 0.62186,-1.68344 -0.45251,-0.73 -0.0687,-0.90169 1.05462,-0.47188 2.55873,0.97896 2.18744,0.3926 -1.44857,-2.28765 l -3.21457,-2.369583 -4.21626,4.375283 c -5.36852,5.57101 -5.95413,8.10464 -3.87147,16.75003 l 1.6919,7.02333 -1.06834,4.70417 -1.06834,4.70419 2.02171,2.70257 c 2.31049,3.08864 5.17931,3.99583 6.95045,2.1979 l 1.21383,-1.23223 -2.74888,0.67622 -2.74891,0.6762 -1.79012,-2.72396 -1.79009,-2.72396 1.02032,-3.43244 1.02032,-3.43244 -0.14077,3.87128 c -0.25869,7.11393 3.36311,9.17605 6.67413,3.80001 l 2.11793,-3.43886 -0.69205,3.70338 c -0.46765,2.50255 -2.44987,5.45203 -6.11323,9.09625 l -5.42118,5.39286 -4.24501,0.66127 c -2.88544,0.44949 -3.73518,0.33718 -2.65314,-0.35065 0.87553,-0.55655 1.11431,-1.01191 0.53062,-1.01191 -0.58368,0 -1.7776,0.46157 -2.65313,1.02571 -1.06126,0.6838 -1.14969,1.03109 -0.26532,1.0419 0.72962,0.009 1.32658,0.44199 1.32658,0.9624 0,1.40377 5.29599,6.64124 9.66487,9.55807 2.10539,1.40565 4.6668,3.80008 5.69203,5.32097 1.71284,2.54096 8.91121,6.39504 11.94419,6.39504 2.73632,0 3.5907,4.00038 1.97348,9.2402 -0.85627,2.77435 -1.85159,8.16318 -2.21181,11.97516 -0.36024,3.81198 -1.26591,8.09732 -2.01265,9.52298 l -1.35769,2.59209 1.5364,3.17432 c 0.84501,1.74588 3.24097,4.94847 5.32437,7.11686 l 3.78796,3.94253 -3.87081,1.61255 c -6.00442,2.50135 -6.99166,2.13163 -8.4082,-3.14896 -0.70252,-2.61881 -1.6872,-4.76149 -2.18821,-4.76149 -1.78802,0 -5.6161,2.47947 -10.03364,6.49886 -4.87585,4.43639 -5.72314,4.66543 -10.77005,2.91127 l -3.36896,-1.17094 0.66223,-3.85507 c 0.36424,-2.12028 1.37084,-6.69416 2.2369,-10.16417 1.94113,-7.77752 1.46438,-10.28798 -3.9751,-20.93193 -4.05566,-7.93607 -4.84043,-12.33988 -1.36769,-7.67489 7.66326,10.29421 10.11274,21.04205 7.27299,31.91229 -0.87552,3.35144 -1.59187,6.94578 -1.59187,7.98743 v 1.89391 h 3.49901 3.499 l 4.15797,-4.24553 c 3.89464,-3.97663 10.33583,-6.95003 12.35731,-5.70437 1.17958,0.72685 1.121,-1.81205 -0.0857,-3.71259 l -0.9487,-1.49424 -1.8371,1.83165 c -1.0104,1.00741 -2.96638,2.5694 -4.34664,3.47109 l -2.50953,1.63946 -1.58659,-1.31283 c -1.92491,-1.59283 -2.09886,-7.94523 -0.25998,-9.49521 0.72961,-0.61498 2.99804,-2.19678 5.04095,-3.5151 l 3.71439,-2.39697 0.34624,-4.72693 c 0.19045,-2.59983 -0.18689,-6.51252 -0.83854,-8.69487 l -1.18478,-3.9679 h -2.46654 c -1.83532,0 -2.90899,1.01541 -4.19555,3.9679 -1.63637,3.75531 -1.78098,1.8151 -0.15772,-2.11621 l 0.76457,-1.85169 -5.1545,-0.0253 c -6.48301,-0.0317 -13.18205,-1.54697 -14.21632,-3.21551 -0.55574,-0.89652 -1.15365,-0.60375 -2.0046,0.98159 -0.66698,1.24254 -1.91222,2.25917 -2.7672,2.25917 h -1.55457 v 7.09112 c 0,6.1493 1.10861,12.27523 5.44079,30.06476 0.51239,2.10402 2.38122,5.64416 4.15294,7.867 1.77175,2.22284 3.08395,4.73218 2.91603,5.57631 -0.16793,0.84414 1.48554,3.31887 3.67436,5.49941 4.38318,4.36658 5.07899,7.78499 1.92697,9.46691 -3.52285,1.87978 -6.53422,1.21569 -9.67153,-2.13287 z m 10.66302,-1.35889 c 0,-2.61895 -2.12059,-3.67829 -4.84374,-2.41966 -3.13475,1.44889 -3.26553,2.41638 -0.44713,3.30825 1.17587,0.3721 1.83458,1.16591 1.46382,1.76403 -0.40811,0.65839 0.21393,0.61365 1.57647,-0.11341 1.23782,-0.66049 2.25058,-1.80314 2.25058,-2.53921 z m -80.21144,-0.28761 c 2.20339,-0.84301 2.13044,-2.85684 -0.17852,-4.92847 l -1.85721,-1.66628 -2.46877,2.00178 c -2.53345,2.05425 -2.20517,4.77067 0.45362,3.75342 0.81649,-0.3124 1.48453,-0.10677 1.48453,0.45691 0,1.19919 0.31097,1.24555 2.56635,0.38264 z m -37.747421,-5.70444 1.11055,-3.17627 h -1.831171 c -1.007141,0 -2.892554,-0.74122 -4.189809,-1.64715 l -2.358647,-1.64718 v 1.51761 c 0,0.83467 0.716346,2.11035 1.59188,2.83483 1.764185,1.45981 2.209509,3.6798 0.530627,2.64528 -1.834526,-1.13044 -1.151864,0.75874 0.784245,2.17025 2.311294,1.68505 2.973155,1.27581 4.362325,-2.69737 z m 63.834921,-0.40144 c 0,-0.80168 -0.73659,-2.0671 -1.63685,-2.81204 l -1.63687,-1.35445 -1.28158,1.38012 c -0.70488,0.75906 -0.78123,1.10359 -0.16966,0.76564 0.61155,-0.33795 1.80546,-0.17703 2.65313,0.35762 1.15127,0.72615 1.18973,0.97619 0.15201,0.9883 -0.76406,0.009 -1.09405,0.49235 -0.73332,1.07431 0.95893,1.54698 2.65314,1.29189 2.65314,-0.3995 z m 19.10256,-1.72361 c 0,-1.04993 -2.7401,-2.10933 -5.45569,-2.10933 -1.21793,0 -1.8044,-0.47422 -1.39775,-1.13025 0.38535,-0.62162 1.4735,-0.83454 2.41812,-0.47312 0.94462,0.36141 1.38719,0.32779 0.9835,-0.0747 -0.40372,-0.40251 0.42758,-2.10822 1.84731,-3.79046 5.425,-6.42813 2.95448,-23.96294 -5.29889,-37.60963 -2.03703,-3.36813 -3.70311,-6.60003 -3.70243,-7.18198 6.8e-4,-0.58197 0.94755,0.48937 2.10417,2.38073 2.72531,4.45658 2.65734,4.53992 2.7099,-3.32148 l 0.045,-6.74872 2.82331,-3.69056 c 1.55281,-2.02982 5.59179,-5.52783 8.97553,-7.77339 l 6.15223,-4.08281 -5.30626,-0.81289 c -6.70754,-1.02754 -9.06803,-0.47231 -13.38333,3.14802 -2.27244,1.90645 -3.09431,2.24652 -2.38793,0.98804 0.59238,-1.05541 2.41902,-2.7966 4.05916,-3.86934 l 2.98208,-1.95042 -4.36083,-2.21814 c -5.16199,-2.62565 -12.04976,-8.4314 -11.34726,-9.5647 0.27197,-0.43874 -0.68471,-1.9022 -2.12594,-3.25217 -1.44121,-1.34998 -2.62042,-2.00986 -2.62042,-1.46644 0,0.54341 1.00163,1.6117 2.22586,2.37396 1.22422,0.76228 1.95211,1.65888 1.61753,1.99247 -0.33458,0.33359 -1.29369,0.0394 -2.13138,-0.65375 l -1.52305,-1.26027 -0.78906,1.27298 c -0.52418,0.8456 -0.3396,0.99598 0.54983,0.44793 1.68242,-1.03671 0.48505,3.40158 -1.56164,5.78861 -6.22285,7.25756 -3.49796,32.33666 5.2622,48.43185 l 1.57101,2.88642 0.2015,-5.81959 c 0.11818,-3.41317 0.38938,-4.56402 0.65586,-2.78316 0.93228,6.23031 -2.70586,25.41294 -6.5984,34.79094 -0.51916,1.25078 -0.28256,1.85169 0.72907,1.85169 0.8237,0 3.69506,1.38945 6.38081,3.08764 2.68574,1.6982 6.0028,3.24933 7.37123,3.44694 3.40922,0.49232 8.32496,-0.24633 8.32496,-1.25092 z m -11.59,-55.63199 c 0.0509,-1.23265 0.30239,-1.48337 0.64117,-0.63928 0.30657,0.76382 0.26887,1.67644 -0.0838,2.02805 -0.35265,0.35161 -0.60346,-0.27335 -0.55739,-1.38877 z m -2.2063,56.25423 c 0,-0.97452 -7.27505,-4.84779 -9.10546,-4.84779 -1.11862,0 0.0716,1.07225 2.77839,2.50323 4.87036,2.57467 6.32707,3.11447 6.32707,2.34456 z m 17.57128,-6.38484 c 0.3704,-1.96847 0.23741,-4.35583 -0.29549,-5.30526 l -0.96891,-1.72622 -1.27254,2.96163 -1.27252,2.96164 1.60912,-2.05393 1.60913,-2.05392 v 1.72694 c 0,1.61126 -1.74226,3.38574 -3.36065,3.42282 -0.38911,0.008 -0.98606,0.3733 -1.32656,0.80978 -0.34048,0.43646 -0.32939,0.58412 0.0246,0.32813 0.99406,-0.7188 3.45362,1.92936 2.79531,3.00968 -0.32077,0.52638 -0.0503,0.62871 0.6009,0.22741 0.65128,-0.40131 1.48717,-2.34023 1.85756,-4.3087 z m -73.771925,-2.22133 c 1.829177,-2.19749 -0.113447,-1.84617 -3.229554,0.58406 -3.879816,3.02584 -5.343275,2.56962 -1.591881,-0.49625 l 3.183761,-2.60197 -3.441433,-0.0381 -3.441434,-0.0381 0.161035,4.09753 0.161035,4.09753 3.461555,-2.03633 c 1.903858,-1.11997 4.03547,-2.72577 4.736916,-3.56847 z m -0.402321,4.10762 c 1.320953,-0.53022 1.545505,-0.33023 0.891103,0.79359 -0.481173,0.82635 -0.599312,1.26437 -0.262523,0.97339 0.336779,-0.29098 0.53274,-0.84781 0.435454,-1.23739 -0.09732,-0.38959 0.966537,-1.92184 2.364038,-3.40501 l 2.540918,-2.69666 -2.449682,-10.87947 c -1.347325,-5.98369 -2.490741,-12.14339 -2.540917,-13.68822 -0.0502,-1.54482 -0.41876,-2.60694 -0.819066,-2.36025 -3.526545,2.17305 -2.986281,-28.23712 0.622501,-35.03912 0.926283,-1.74587 1.687075,-4.24566 1.690673,-5.55507 0.0032,-1.30941 0.484101,-2.38074 1.06779,-2.38074 0.583689,0 1.053941,-0.83326 1.045006,-1.85169 l -0.01624,-1.85169 -1.028758,1.58716 -1.028748,1.58716 -0.01624,-2.25119 c -0.0084,-1.23814 -0.732605,-2.84392 -1.608139,-3.5684 -0.88291,-0.73059 -1.516234,-2.79107 -1.422038,-4.62652 l 0.169844,-3.3093 0.428025,3.43886 c 0.235418,1.89136 0.830621,3.43885 1.322683,3.43885 0.49206,0 0.646123,-1.07134 0.342349,-2.38075 l -0.552319,-2.38074 1.7289,2.31781 c 0.956337,1.28211 3.262972,2.51927 5.162001,2.76862 1.929742,0.25339 1.466462,0.33881 -1.057953,0.19506 -7.628006,-0.43434 -4.002868,1.24036 4.190275,1.93578 4.251249,0.36085 9.281619,0.96773 11.178619,1.34864 2.25899,0.45357 3.44907,0.2818 3.44907,-0.49783 0,-0.65471 -1.79087,-1.23784 -3.9797,-1.29585 -2.18883,-0.0579 -5.17361,-0.51229 -6.63283,-1.00949 -1.69005,-0.57587 -0.0528,-0.68488 4.51033,-0.30032 l 7.16346,0.60371 v -1.62635 c 0,-0.94882 -1.33407,-1.91851 -3.20221,-2.32761 -2.05167,-0.44928 -3.77732,-1.81011 -4.80289,-3.78744 l -1.60069,-3.08622 h -3.06971 c -4.450906,0 -6.427067,-1.01083 -6.427067,-3.28753 0,-1.10166 -0.432854,-2.00302 -0.9619,-2.00302 -0.529045,0 -0.710265,0.95938 -0.402724,2.13195 l 0.559175,2.13194 -1.719783,-0.65799 -1.719783,-0.65799 -0.169832,3.55207 -0.169843,3.55206 -0.51145,-3.70338 -0.51144,-3.70337 -0.804813,2.64526 -0.804811,2.64527 -0.105807,-2.71184 c -0.05975,-1.53079 -1.492356,-4.03631 -3.289547,-5.75303 -1.751069,-1.67265 -3.183762,-3.65443 -3.183762,-4.40394 0,-3.47885 -12.929944,1.81441 -17.415725,7.12966 -5.089105,6.03014 -6.318524,9.48124 -6.392653,17.94479 l -0.06983,7.9732 1.892428,2.60789 c 1.040835,1.43433 3.070483,4.22579 4.510327,6.20321 1.439846,1.97743 2.617901,4.0675 2.617901,4.64462 0,0.5771 -1.249212,-0.80272 -2.776026,-3.06627 -1.526815,-2.26356 -2.840117,-4.19492 -2.918448,-4.29192 -0.07832,-0.0971 -0.142422,4.03537 -0.142422,9.18304 v 9.35941 l 1.857195,-1.67576 c 1.141643,-1.03011 1.857194,-1.20489 1.857194,-0.45365 0,0.67216 -0.466548,1.2221 -1.036781,1.2221 -0.570232,0 -1.720218,1.07134 -2.555531,2.38075 l -1.518728,2.38074 1.456921,10.05203 c 0.801299,5.52862 1.473719,12.55182 1.494266,15.60711 0.02494,3.70102 0.480101,5.56581 1.363913,5.58724 0.736213,0.0178 0.500073,0.51214 -0.530627,1.1107 -2.428266,1.41013 -2.428266,3.53984 0,2.58795 4.528061,-1.77504 14.499782,-2.68916 19.483239,-1.78606 3.799235,0.68846 5.16596,0.62414 4.881957,-0.22977 -0.547097,-1.64497 -8.526483,-2.72616 -16.14048,-2.18702 l -6.367522,0.45087 3.714387,-1.16305 c 2.061783,-0.64558 6.825465,-0.91002 10.706799,-0.59434 l 6.992399,0.56872 -3.544736,-7.06638 c -4.241799,-8.45595 -6.756588,-16.31287 -6.641315,-20.7493 0.05497,-2.11722 0.600096,-0.854 1.566728,3.6309 0.815298,3.78274 3.881493,11.92909 6.81378,18.10303 6.345024,13.35943 6.321591,13.12911 1.617032,15.89664 -3.75983,2.21179 -5.045306,3.79752 -2.122507,2.61828 0.875534,-0.35324 2.386569,-0.96124 3.35786,-1.35113 z m -9.162483,-55.02517 c -0.04446,-1.70884 5.179353,-7.75368 6.694909,-7.74722 0.677727,0.003 -0.03004,1.07422 -1.572852,2.38075 -1.542798,1.30652 -3.319146,3.32778 -3.947428,4.4917 -0.628296,1.16392 -1.156874,1.55756 -1.174629,0.87477 z m 16.824682,48.95687 -0.123106,-2.21674 -0.517075,2.11621 c -0.284394,1.16392 -1.303516,3.06851 -2.264715,4.23244 l -1.747641,2.11621 2.387821,-2.01568 c 1.313302,-1.10862 2.332424,-3.01323 2.264716,-4.23244 z m -30.158857,0.56875 c -0.216326,-0.2157 -1.109668,0.32206 -1.985203,1.195 -0.875534,0.87294 -1.303665,1.87453 -0.951403,2.22574 0.352251,0.35122 1.245594,-0.18654 1.985203,-1.195 0.739598,-1.00847 1.167729,-2.01006 0.951403,-2.22574 z m 41.311774,-0.32502 c -0.46079,-1.35327 -0.71623,-2.89818 -0.56765,-3.43317 0.14858,-0.53497 -0.47315,-0.35764 -1.38162,0.39408 -1.81897,1.50515 -2.25291,2.6611 -0.62162,1.65589 0.56657,-0.34913 1.34028,0.59724 1.71933,2.10304 0.37906,1.50581 0.91423,2.51347 1.18927,2.23924 0.27504,-0.27422 0.12306,-1.60581 -0.33771,-2.95908 z m 109.84231,-4.25324 c -1.18,-2.19932 -3.07296,-3.46806 -3.07296,-2.05959 0,0.56869 -0.27127,1.73881 -0.60282,2.60025 -0.43988,1.14291 0.10539,1.5238 2.01742,1.40918 l 2.62022,-0.15707 z M 93.313955,220.35581 c -0.338785,-0.84409 -0.590248,-0.59336 -0.641179,0.63928 -0.04605,1.11542 0.204749,1.74037 0.557392,1.38876 0.352645,-0.3516 0.390351,-1.26422 0.08383,-2.02804 z m -1.331386,-7.66183 c -0.39035,-1.55067 -0.914408,-2.61534 -1.164556,-2.36594 -0.250148,0.24942 -0.135447,1.72221 0.254903,3.27288 0.39035,1.55067 0.914398,2.61534 1.164556,2.36593 0.250148,-0.24941 0.135447,-1.7222 -0.254903,-3.27287 z m 107.667481,-2.98539 c 0.0691,0.72745 0.53691,1.32265 1.03966,1.32265 0.50274,0 0.68203,-1.21029 0.39843,-2.68952 -0.77283,-4.0308 -2.87876,-2.49987 -3.0844,2.24224 l -0.17997,4.15066 0.85036,-3.17433 c 0.4677,-1.74588 0.90686,-2.57915 0.97592,-1.8517 z m -71.67169,-25.61711 c -4.83217,-4.43369 -7.79678,-5.92795 -7.79678,-3.92984 0,1.99671 9.23141,8.6224 12.04179,8.64279 0.49423,0.003 -1.41603,-2.11724 -4.24501,-4.71295 z m 27.77975,-8.83777 c 0.97531,-1.56388 3.75661,-4.67218 6.18066,-6.90729 l 4.40735,-4.06386 -5.02933,3.44132 c -5.86098,4.01037 -9.35677,10.25864 -9.17277,16.39511 l 0.12483,4.1629 0.85798,-5.09235 c 0.47187,-2.8008 1.65594,-6.37191 2.63128,-7.93583 z m 52.99283,11.51413 c 0.33583,-0.54175 0.12523,-1.28407 -0.46798,-1.64961 -0.59322,-0.36553 -1.07857,0.0777 -1.07857,0.985 0,1.85859 0.63681,2.13226 1.54655,0.66461 z M 92.194396,177.38531 c -1.67625,-0.20846 -3.466682,0.0387 -3.978736,0.54925 -0.533843,0.53226 0.766321,0.69394 3.04773,0.37899 l 3.978735,-0.54926 z m 22.680924,-1.67117 c 0,-1.38364 0.76147,-3.14579 1.69217,-3.9159 2.80849,-2.32396 7.84566,-11.9053 7.74424,-14.73055 l -0.0949,-2.64527 -1.45544,4.6204 c -1.54522,4.90547 -6.21544,11.78028 -8.00261,11.78028 -0.58844,0 -0.77812,-0.4707 -0.42153,-1.046 0.38769,-0.6254 -0.0989,-0.76005 -1.21027,-0.33487 -1.12907,0.432 -1.36233,0.87608 -0.59421,1.13136 0.92932,0.30886 0.96376,0.98034 0.12993,2.53376 -1.23752,2.30548 -0.62262,5.1225 1.11814,5.1225 0.602,0 1.09455,-1.13205 1.09455,-2.51571 z m 6.27437,-1.41854 c 2.31593,-1.77158 -0.0846,-1.70454 -2.51929,0.0703 -1.27285,0.92797 -1.64679,1.92684 -1.06979,2.85767 l 0.88707,1.43105 0.50849,-1.53505 c 0.27967,-0.84428 1.26675,-2.1151 2.19352,-2.82404 z m 5.85573,2.99605 c 0.31986,-0.51603 -0.099,-1.50136 -0.93079,-2.18966 -1.6457,-1.36176 -5.89305,0.15682 -5.89305,2.10698 0,1.28131 6.03551,1.35443 6.82384,0.0827 z m -7.29199,-4.84774 2.06004,-1.5535 -1.72725,-0.0336 c -0.94999,-0.0186 -2.32177,0.68056 -3.04839,1.5535 -1.69331,2.03426 0.0343,2.05567 2.7156,0.0336 z m -9.1044,-1.11732 c -0.73834,-0.88701 -1.56099,-1.39484 -1.8281,-1.12851 -0.73598,0.7338 0.75937,2.74124 2.04196,2.74124 0.70371,0 0.6232,-0.60712 -0.21386,-1.61273 z m 71.85023,-3.87621 c -0.33878,-0.84408 -0.59025,-0.59336 -0.64117,0.63927 -0.0461,1.11543 0.20474,1.74038 0.55739,1.38877 0.35264,-0.3516 0.39034,-1.26422 0.0838,-2.02804 z m -67.63361,-0.15953 c 1.85777,-0.77882 3.34529,-1.73112 3.3056,-2.11623 -0.26683,-2.58872 0.0559,-3.92047 0.83389,-3.44107 0.49835,0.30708 1.45347,-0.63952 2.12251,-2.10355 1.68987,-3.69788 1.51886,-4.38945 -0.48739,-1.97097 l -1.70383,2.05392 1.78448,-2.99527 c 2.22527,-3.73517 1.61829,-5.42448 -2.45811,-6.8413 l -3.18891,-1.10836 -0.70059,4.41436 c -0.38532,2.4279 -1.65118,6.42495 -2.81302,8.88234 -2.93013,6.19751 -2.10893,7.49592 3.30537,5.22613 z m 82.15457,-1.22924 c -1.04393,-0.58196 -3.13019,-2.24848 -4.63611,-3.70339 l -2.73807,-2.64527 -0.0785,3.70338 -0.0786,3.70339 h 4.7146 4.7146 z m -9.01594,-5.75817 c -0.59862,-1.71209 -1.73952,-3.65169 -2.53537,-4.31023 l -1.44698,-1.19733 -3.25361,2.39836 c -4.3998,3.24328 -3.01167,4.35992 7.58361,6.10042 0.40741,0.0669 0.25096,-1.27913 -0.34765,-2.99122 z m -16.02756,-1.87559 c -1.5947,-0.24142 -4.46008,-0.24628 -6.36753,-0.0108 -1.90744,0.2355 -0.6027,0.43303 2.89944,0.43897 3.50213,0.006 5.06277,-0.18673 3.46809,-0.42818 z m -14.61126,-2.13907 c -2.62659,-0.91848 -6.68589,-2.86373 -9.02065,-4.32276 -2.50082,-1.56282 -3.6575,-1.94239 -2.81513,-0.92378 1.8705,2.26183 11.77143,7.01886 14.48892,6.96138 1.16738,-0.0247 -0.0265,-0.79637 -2.65314,-1.71484 z m 22.28633,0.77891 c 1.93995,-1.24997 0.26434,-1.24997 -2.65312,0 -1.39952,0.59961 -1.58028,0.92918 -0.53063,0.96753 0.87553,0.0319 2.30822,-0.40339 3.18375,-0.96753 z m -2.20826,-1.46876 c 1.99577,-0.71926 4.32244,-2.34956 5.17041,-3.62288 l 1.54175,-2.31512 h -2.92262 c -1.60745,0 -4.50655,0.97602 -6.44246,2.16892 l -3.51982,2.16893 -6.68734,-1.20833 c -3.67806,-0.66458 -8.42298,-1.69862 -10.54431,-2.29789 -5.64065,-1.59346 -7.48001,-0.49215 -3.0412,1.82092 8.87705,4.62581 19.17623,5.90533 26.44559,3.28545 z m -48.10275,-4.66413 c 0.95663,-1.3044 1.00177,-2.17665 0.1647,-3.18227 -0.85406,-1.02603 -0.79689,-1.30124 0.2204,-1.0611 0.75546,0.17833 1.59244,-0.27097 1.85996,-0.99841 0.32327,-0.87903 -0.62358,-1.32264 -2.82312,-1.32264 h -3.30955 l 1.08644,2.02401 c 0.59754,1.11319 1.45007,2.22553 1.89452,2.47185 0.44446,0.24631 0.0919,0.23379 -0.78377,-0.0278 -0.87553,-0.26164 -2.43334,-0.71677 -3.46181,-1.01142 l -1.86994,-0.53574 0.46452,2.50746 c 0.25547,1.37912 0.49999,2.5252 0.54336,2.54686 1.51393,0.75554 5.03047,-0.0694 6.01429,-1.41078 z m 45.53537,-0.21576 c 1.75107,-1.15625 2.69307,-2.10542 2.09334,-2.10925 -0.59975,-0.004 -2.1107,0.70552 -3.35768,1.57636 l -2.26724,1.58334 -6.19361,-1.49519 c -3.40649,-0.82236 -5.23533,-1.53485 -4.0641,-1.58333 1.17123,-0.0485 3.77026,0.38102 5.77563,0.95445 l 3.6461,1.04258 3.57101,-2.10069 c 1.96406,-1.1554 4.88795,-2.10071 6.49756,-2.10071 h 2.92652 l 1.78845,-3.73927 c 3.56233,-7.44813 2.9545,-7.85092 -5.93762,-3.93472 l -6.60086,2.90712 -10.61255,-0.0847 c -11.90178,-0.095 -17.55945,-1.35243 -23.17178,-5.14978 -6.44919,-4.36357 -6.04052,1.09502 0.49231,6.57575 1.6786,1.40823 2.82801,2.92176 2.55427,3.36335 -0.27373,0.44161 1.90561,0.57268 4.84298,0.29126 5.33787,-0.51137 11.01289,1.27256 9.8771,3.10484 -0.30636,0.49425 1.26201,0.93211 3.48531,0.97301 2.22328,0.0409 4.99745,0.48358 6.16483,0.98374 3.32078,1.42277 5.06145,1.20582 8.49003,-1.05811 z m -40.85827,-1.58717 c 0,-0.87294 -0.18769,-1.58717 -0.41707,-1.58717 -0.22941,0 -0.69197,0.71423 -1.02795,1.58717 -0.33599,0.87294 -0.14829,1.58717 0.41707,1.58717 0.56537,0 1.02795,-0.71423 1.02795,-1.58717 z m 58.17389,0.52906 h 2.81509 l -3.69783,-1.99556 c -2.03381,-1.09757 -4.13716,-1.73368 -4.67412,-1.41359 -0.55503,0.33085 -0.6463,-0.27541 -0.21151,-1.40506 l 0.76475,-1.98704 -2.4991,2.60705 c -2.71116,2.82827 -2.90817,4.26792 -0.28726,2.0992 l 1.61752,-1.33845 v 2.35898 c 0,1.71637 0.45731,2.18403 1.67869,1.71672 0.92326,-0.35324 2.94547,-0.64225 4.49377,-0.64225 z m -38.01006,-1.05811 c -0.87554,-0.56414 -3.50214,-0.96148 -5.8369,-0.88298 l -4.24502,0.14271 4.77565,0.74027 c 2.6266,0.40715 5.25321,0.80449 5.83689,0.88299 0.58369,0.0785 0.34491,-0.31885 -0.53062,-0.88299 z M 119.7645,144.8129 c -0.3543,-0.92054 -0.64416,-3.31318 -0.64416,-5.317 v -3.64329 l -3.12951,-0.62405 c -3.29257,-0.65656 -6.68739,-3.65876 -7.06906,-6.25151 -0.26894,-1.82702 0.12694,-1.88851 2.83956,-0.44107 2.85802,1.52503 2.66274,-0.54934 -0.24271,-2.57837 -2.6609,-1.85824 -3.99837,-1.40523 -3.60999,1.2227 0.15018,1.01613 -0.48931,2.47799 -1.42108,3.24861 -0.93178,0.7706 -1.20684,1.16719 -0.61127,0.88129 1.31271,-0.63012 9.20049,6.15798 8.25313,7.10253 -0.368,0.3669 -0.0778,0.6671 0.64498,0.6671 0.72275,0 1.22705,1.07134 1.12067,2.38074 -0.34539,4.25134 0.005,5.02602 2.27756,5.02602 1.60297,0 2.05368,-0.47387 1.59188,-1.6737 z m -71.217538,-2.06418 3.18376,-1.52621 -4.77564,0.37492 c -6.689274,0.52515 -14.288711,-1.19414 -16.609397,-3.75772 l -1.962545,-2.16795 3.714389,2.11603 c 4.434905,2.52647 11.673791,4.01353 11.673791,2.39811 0,-0.60833 -0.391603,-1.10606 -0.870229,-1.10606 -4.016833,0 -14.064657,-13.14808 -13.916325,-18.21022 0.04765,-1.62479 0.52583,-0.97287 1.451795,1.9791 5.28119,16.83646 23.438456,22.50393 34.864381,10.88229 4.709006,-4.78967 4.402357,-4.94669 -4.018936,-2.05794 -20.776483,7.12698 -35.016883,-7.94486 -25.296563,-26.7735 l 1.53124,-2.96607 -3.146501,1.62228 c -3.939288,2.03106 -7.546066,6.52681 -8.316164,10.36589 -0.324129,1.61584 -1.245976,2.93788 -2.048549,2.93788 -1.842188,0 -1.961091,6.20897 -0.192989,10.07803 l 1.266225,2.77083 -1.529193,0.94229 -1.529182,0.94229 2.0115,3.72407 c 4.213835,7.80143 16.177944,11.42829 24.515132,7.43166 z m 74.393878,-2.08171 c 0,-1.45491 -0.57857,-2.64528 -1.28573,-2.64528 -0.70713,0 -1.12573,0.83327 -0.93019,1.85169 0.19553,1.01844 0.39206,2.20881 0.43672,2.64527 0.21418,2.09331 1.7792,0.46451 1.7792,-1.85168 z m 10.90971,0.76625 c 2.09799,-3.90849 -2.96034,-7.23505 -7.05831,-4.64184 -1.06535,0.67415 -1.20091,3.30815 -0.322,6.25633 0.37246,1.24935 6.57093,-0.10661 7.38031,-1.61449 z m 60.47981,-6.17523 1.26297,-2.76371 -1.23341,-1.48176 c -2.03172,-2.4408 -4.26756,0.17666 -2.99702,3.50853 l 1.02351,2.68409 -1.66678,-0.63771 c -0.96005,-0.36731 -1.39186,-0.1942 -1.01841,0.40827 1.17556,1.89646 3.34549,1.09129 4.62914,-1.71771 z m -2.29102,-1.46873 c -0.30527,-1.16392 -0.12219,-2.11623 0.40685,-2.11623 0.52905,0 0.9619,0.95231 0.9619,2.11623 0,1.16392 -0.18308,2.11621 -0.40685,2.11621 -0.22376,0 -0.65662,-0.95229 -0.9619,-2.11621 z m -61.02898,1.0581 h 3.22641 l -1.58545,-2.38074 c -0.872,-1.30941 -2.00477,-2.30219 -2.51727,-2.2062 -0.5125,0.096 -1.49397,-0.29061 -2.18106,-0.85915 -0.82081,-0.67921 -2.73151,-0.59092 -5.57158,0.25747 -4.59291,1.37198 -5.04259,1.93104 -3.10625,3.86164 l 1.21608,1.21249 4.03243,-2.05111 c 2.23966,-1.13919 4.30172,-1.61666 4.63813,-1.07396 0.74299,1.1986 -1.19049,2.52876 -2.50149,1.72092 -0.52251,-0.32197 -1.24429,0.17909 -1.60392,1.11347 -0.47787,1.24164 -0.19881,1.5248 1.03686,1.05204 0.92989,-0.35577 3.14259,-0.64687 4.91711,-0.64687 z m 58.15272,-6.34865 c 0,-3.7373 -1.45313,-6.31063 -2.80335,-4.96442 -0.93073,0.92798 0.86915,10.26381 1.86097,9.65267 0.51832,-0.31939 0.94238,-2.4291 0.94238,-4.68825 z m -75.73563,2.63876 c -3.84815,-2.001 -5.00913,-1.98098 -2.32899,0.0402 1.13301,0.85443 2.80449,1.55058 3.71438,1.54699 0.90991,-0.003 0.28648,-0.71781 -1.38539,-1.58716 z m -18.059778,-3.33879 c -0.897843,-1.65185 -1.651566,-2.66863 -1.674936,-2.25955 -0.07185,1.25774 2.397129,6.17044 2.866086,5.70286 0.24271,-0.24198 -0.293309,-1.79148 -1.19115,-3.44331 z m 29.058928,-0.57668 c 0,-1.13894 -2.47333,-1.05643 -5.76781,0.19242 -4.33266,1.64238 -3.15137,3.02071 1.52279,1.77681 2.33476,-0.62135 4.24502,-1.50749 4.24502,-1.96923 z m 67.09959,-2.69119 c -0.61063,-6.14281 -1.12586,-6.59035 -1.21807,-1.05811 -0.0461,2.76431 0.29789,5.02601 0.76437,5.02601 0.46648,0 0.67065,-1.78555 0.4537,-3.9679 z m -65.8664,-0.88934 c 1.55378,-0.79721 4.09703,-3.00638 5.65166,-4.90929 l 2.82659,-3.45982 -0.70974,2.64527 c -0.39034,1.4549 -1.43812,3.12142 -2.32841,3.70338 -4.05667,2.65179 -6.08368,4.63838 -5.41536,5.30738 1.0391,1.04017 4.51745,-1.62821 8.2865,-6.35689 3.1365,-3.93508 3.66955,-6.63972 1.20077,-6.09273 -1.45086,0.32146 -1.44797,0.49169 -0.0979,-5.78523 0.64698,-3.00791 0.73766,-6.8158 0.2213,-9.293683 l -0.87478,-4.197888 -5.20812,-1.928001 c -13.45846,-4.98221 -22.83259,-3.807181 -25.52369,3.199353 -4.499753,11.715489 -2.31356,20.682739 6.61788,27.145089 l 4.91503,3.55627 3.80655,-1.04187 c 2.0936,-0.57304 5.07782,-1.69414 6.63162,-2.49134 z m -22.45826,1.77109 c 0,-0.53346 -0.35818,-1.12864 -0.79594,-1.32263 -0.43777,-0.19398 -1.5925,-2.07251 -2.566082,-4.17452 -0.973584,-2.10197 -2.76445,-4.08104 -3.979701,-4.39789 l -2.209563,-0.5761 v 2.99119 2.9912 l 3.259652,0.71382 c 1.792807,0.39259 2.990857,0.98179 2.662346,1.30935 -0.727531,0.72537 1.400798,3.43552 2.697978,3.43552 0.51222,0 0.93131,-0.43648 0.93131,-0.96994 z m 31.83761,-2.46352 c 0,-0.59024 -0.70388,-0.47565 -1.59189,0.25913 -0.87552,0.72448 -1.59187,1.79337 -1.59187,2.37533 0,0.59026 0.70388,0.47567 1.59187,-0.25911 0.87554,-0.72448 1.59189,-1.79338 1.59189,-2.37535 z m -28.65385,0.74534 c 0,-1.42054 -4.67917,-6.69223 -5.49425,-6.18999 -1.052136,0.64836 3.02116,6.76189 4.50527,6.76189 0.54394,0 0.98898,-0.25735 0.98898,-0.5719 z m 32.9106,-3.92506 2.04722,-4.49696 -0.64659,3.17432 -0.64659,3.17433 2.53556,-3.16312 c 1.39456,-1.73972 3.3713,-4.00143 4.39276,-5.02602 1.02144,-1.02459 1.86451,-2.69616 1.87343,-3.71459 0.009,-1.01842 0.50101,-2.56591 1.09351,-3.43885 0.78844,-1.16166 0.89026,-0.73616 0.37982,1.58717 l -0.6974,3.17432 3.84893,-4.1009 c 2.11691,-2.2555 3.84892,-5.03303 3.84892,-6.17231 0,-1.195327 0.56106,-1.878208 1.32658,-1.614612 0.72961,0.251228 2.15916,-0.780429 3.17676,-2.292571 1.01762,-1.512142 1.85335,-2.35173 1.85719,-1.865752 0.004,0.485979 2.4572,-1.061505 5.4519,-3.438853 3.21005,-2.548306 6.58586,-4.329092 8.22471,-4.338647 1.5289,-0.0084 3.47043,-0.451834 4.31452,-0.984285 0.94039,-0.593197 2.28687,-0.566712 3.47708,0.06835 1.43435,0.765372 2.69835,0.514696 4.83282,-0.958445 4.68978,-3.236734 6.29984,-3.822862 3.1188,-1.135372 l -2.95541,2.496871 5.2662,0.186197 c 2.8964,0.102424 6.14071,0.652831 7.20956,1.223172 l 1.94339,1.036978 3.08084,-2.642182 3.08085,-2.642181 -1.49811,-0.945526 c -0.82397,-0.520049 -2.78323,-0.952827 -4.35393,-0.961746 -1.57071,-0.0084 -3.15528,-0.499301 -3.5213,-1.089758 -1.16534,-1.879973 -18.47756,-0.470414 -24.70385,2.011392 -3.08598,1.230071 -6.45827,2.236492 -7.49398,2.236492 -1.03571,0 -2.92828,0.970846 -4.20573,2.157441 -1.27744,1.186584 -2.32261,1.640503 -2.32261,1.008705 0,-2.554379 -5.47913,3.011346 -8.0808,8.208528 -2.93797,5.869004 -4.22364,7.346664 -2.53174,2.909797 0.75216,-1.972466 0.66128,-2.645271 -0.35731,-2.645271 -1.91122,0 -5.98517,5.769888 -6.13332,8.686558 l -0.12311,2.42359 -0.49035,-1.87766 -0.49035,-1.87765 -2.35641,3.4648 c -3.18801,4.68756 -6.96847,16.69119 -5.2568,16.69119 0.24042,0 1.35839,-2.02364 2.48434,-4.49697 z m 49.85094,-1.64962 -0.0162,-1.78924 -1.02874,1.58717 c -1.34312,2.07217 -1.34312,3.4729 0,2.64526 0.58369,-0.35966 1.05394,-1.4591 1.045,-2.44319 z m -88.14239,-4.16999 c -0.0411,-1.01842 -0.43621,-2.77238 -0.87819,-3.89766 -1.134207,-2.88773 -2.475938,-0.35363 -1.617777,3.05543 0.766978,3.04682 2.609817,3.66867 2.495967,0.84223 z m 87.82233,-0.46291 c -0.33876,-0.84409 -0.59025,-0.59337 -0.64115,0.63927 -0.0461,1.11542 0.20472,1.74037 0.55739,1.38877 0.35264,-0.35161 0.39033,-1.26422 0.0838,-2.02804 z m 4.24502,0 c -0.33877,-0.84409 -0.59025,-0.59337 -0.64117,0.63927 -0.0461,1.11542 0.20474,1.74037 0.5574,1.38877 0.35265,-0.35161 0.39033,-1.26422 0.0838,-2.02804 z m -95.176531,0.19839 c 0,-0.58196 -0.477564,-1.0581 -1.061253,-1.0581 -0.58369,0 -1.061254,0.47614 -1.061254,1.0581 0,0.58196 0.477564,1.05811 1.061254,1.05811 0.583689,0 1.061253,-0.47615 1.061253,-1.05811 z m 40.327641,-1.98395 c 0,-0.50922 0.27305,-2.53285 0.60676,-4.49697 l 0.60679,-3.57112 -1.66803,2.05393 c -1.85372,2.28259 -2.26093,6.94001 -0.60677,6.94001 0.58368,0 1.06125,-0.41663 1.06125,-0.92585 z m 61.28478,-15.210318 c 1.53315,-1.600386 2.30998,-2.909796 1.72629,-2.909796 -2.14079,0 -6.66098,5.974902 -8.80537,11.639194 -3.19693,8.44446 -2.55868,9.0462 1.12226,1.05811 1.74309,-3.78274 4.42366,-8.187115 5.95682,-9.787508 z m -98.50324,4.761498 c 0.0411,-1.309418 -0.34878,-2.380751 -0.86622,-2.380751 -1.108894,0 -2.255897,6.430861 -1.402894,7.865581 0.72611,1.22131 2.168214,-2.26452 2.269114,-5.48483 z m 114.46613,3.70338 c 0.60351,-0.72745 1.33723,-2.75108 1.6305,-4.49697 0.35593,-2.119112 0.46603,-1.67944 0.33116,1.32264 l -0.20201,4.49696 h 2.58033 2.58036 l -2.02167,-2.27081 c -1.32172,-1.48457 -1.59862,-2.41894 -0.79975,-2.69867 0.80312,-0.28121 0.27561,-2.132133 -1.53913,-5.400469 -1.6121,-2.903378 -2.07995,-4.42606 -1.12428,-3.659165 2.9308,2.35188 2.98082,0.127143 0.0537,-2.383304 -3.39543,-2.911968 -4.05323,-2.644309 -5.39327,2.194538 -0.75055,2.710229 -0.64362,4.422316 0.40167,6.431121 l 1.4245,2.737629 0.47579,-2.501462 0.47578,-2.501441 0.14452,3.09101 c 0.0795,1.700053 -0.64585,3.961753 -1.61184,5.026023 l -1.75637,1.935 h 1.62641 c 0.89453,0 2.1202,-0.59519 2.72371,-1.32263 z M 95.414345,100.7234 c -0.294401,-0.727452 -0.535275,-0.13226 -0.535275,1.32264 0,1.4549 0.240874,2.05008 0.535275,1.32264 0.294413,-0.72746 0.294413,-1.91783 0,-2.64528 z m -1.764101,0.93627 c 0,-0.79445 0.957792,-2.65848 2.12842,-4.142282 2.426364,-3.075492 1.040728,-4.320115 -2.865969,-2.57432 -2.744041,1.226235 -3.8,3.458971 -2.929379,6.193922 0.720793,2.26429 3.666928,2.68424 3.666928,0.52268 z m 45.617666,-1.46533 c -0.0171,-3.043064 -1.59039,-6.422112 -2.54648,-5.468861 -0.86602,0.863449 0.60527,8.378671 1.64033,8.378671 0.50732,0 0.91507,-1.30941 0.90615,-2.90981 z M 97.558969,99.731423 c -0.338783,-0.844085 -0.590248,-0.593369 -0.641178,0.639277 -0.04605,1.11542 0.204748,1.74036 0.557393,1.38877 0.352643,-0.35161 0.39035,-1.26423 0.08384,-2.028047 z M 89.40523,95.697386 c 0,-0.581962 -0.50574,-1.058111 -1.123879,-1.058111 -0.618137,0 -0.828733,0.476149 -0.468002,1.058111 0.360741,0.581958 0.866492,1.058102 1.123889,1.058102 0.257396,0 0.467992,-0.476144 0.467992,-1.058102 z m 14.29579,-2.056171 c 0.9615,-1.853839 1.20558,-3.366701 0.60308,-3.737971 -0.85614,-0.527552 -4.28633,4.490634 -4.28633,6.270646 0,1.733855 2.28547,0.162313 3.68325,-2.532675 z m 103.50337,0.469005 c 1.37087,-1.454899 2.25372,-2.64527 1.96188,-2.64527 -0.29186,0 -1.65227,1.190371 -3.02313,2.64527 -1.37088,1.4549 -2.25371,2.645268 -1.96186,2.645268 0.29184,0 1.65224,-1.190368 3.02311,-2.645268 z m -71.104,-1.483648 c 0,-0.525033 -1.4327,-1.452561 -3.18375,-2.061173 -3.44251,-1.196511 -4.36628,0.107693 -1.32658,1.872905 2.32643,1.351003 4.51033,1.442159 4.51033,0.188268 z m -33.9003,-4.479894 c 1.72753,-4.158272 0.50799,-8.138517 -2.742888,-8.952022 -3.22428,-0.806841 -5.340219,0.774851 -6.184138,4.622738 -0.348133,1.587333 -0.907583,3.838364 -1.243227,5.002283 l -0.610252,2.116217 4.769306,0.09999 4.769309,0.09999 z m 27.00044,0.825864 1.43856,-1.434308 -2.08101,-3.41183 c -1.14456,-1.876513 -1.58726,-3.107569 -0.98374,-2.735687 0.60349,0.371883 1.09728,0.132222 1.09728,-0.532589 0,-0.664798 -0.59697,-0.997521 -1.32656,-0.739384 -0.72962,0.258137 -1.20575,1.607224 -1.05805,2.997971 l 0.26852,2.528636 -1.04821,-1.587163 -1.04821,-1.587163 -0.0162,2.493951 c -0.0115,1.761402 0.44135,2.318878 1.54163,1.897899 0.85684,-0.327824 1.87981,-0.07672 2.27326,0.558003 0.47976,0.773965 -0.38287,0.993343 -2.61914,0.666101 -2.30898,-0.337875 -3.33454,-0.05619 -3.33454,0.915952 0,1.845776 5.03696,1.823566 6.89644,-0.03037 z m -17.50898,-0.681919 c 0,-0.58196 -1.43268,-1.058109 -3.18375,-1.058109 -1.75108,0 -3.18376,0.476149 -3.18376,1.058109 0,0.58196 1.43268,1.058109 3.18376,1.058109 1.75107,0 3.18375,-0.476149 3.18375,-1.058109 z m 8.49003,0.120095 c 0,-0.515902 -1.43269,-1.147668 -3.18375,-1.403909 -2.1726,-0.317919 -3.18376,-0.02 -3.18376,0.938013 0,0.854497 1.24596,1.40391 3.18376,1.40391 1.75106,0 3.18375,-0.422101 3.18375,-0.938014 z m 63.67523,-1.781717 c 0,-0.29098 -0.95513,-0.01936 -2.12251,0.603513 -1.16738,0.622908 -2.12251,1.370642 -2.12251,1.661622 0,0.29098 0.95513,0.01936 2.12251,-0.603513 1.16738,-0.622908 2.12251,-1.370642 2.12251,-1.661622 z M 123.36536,84.26981 c 0,-1.047528 0.54096,-2.443967 1.20215,-3.103201 1.85765,-1.852144 0.22939,-4.515183 -2.76074,-4.515183 -2.85494,0 -3.11181,0.789245 -2.02315,6.216389 0.70283,3.50379 3.58174,4.630666 3.58174,1.401995 z m 13.03187,1.255944 c 0.35782,-0.356763 -0.34026,-1.984876 -1.55129,-3.618034 -2.35943,-3.18184 -5.11308,-3.130743 -5.11308,0.09491 0,2.773293 4.84664,5.335492 6.66437,3.523152 z m -20.61024,-3.556791 c -3.28366,-9.391593 -15.06462,-13.207313 -22.579851,-7.31334 -3.242151,2.542709 -3.724821,4.71163 -0.687915,3.091148 4.496935,-2.399558 12.875126,0.06444 17.479616,5.140715 1.11192,1.225851 3.11674,2.22881 4.45513,2.22881 h 2.43344 z m 3.33335,1.56017 c 0,-0.872939 -0.46259,-1.587163 -1.02796,-1.587163 -0.56537,0 -0.75306,0.714224 -0.41708,1.587163 0.33598,0.87294 0.79854,1.587163 1.02795,1.587163 0.22939,0 0.41709,-0.714223 0.41709,-1.587163 z m 21.50927,-0.288048 -2.36893,-1.828168 0.65769,-4.011524 0.65769,-4.011533 -2.79908,1.271571 c -4.69509,2.132894 -1.23314,10.499857 4.31612,10.431344 l 1.90545,-0.02349 z m 2.36894,-2.357223 c -0.36075,-0.581959 -1.22467,-1.050819 -1.91984,-1.041909 -0.75944,0.0095 -0.62854,0.425603 0.32795,1.041909 2.03879,1.313674 2.40618,1.313674 1.59189,0 z m 6.40232,-4.29953 c 2.25963,-4.356709 1.1642,-3.882412 -1.52369,0.65972 -1.22603,2.071831 -1.74738,3.47008 -1.15853,3.107233 0.58885,-0.362847 1.79585,-2.05798 2.68222,-3.766953 z m -5.34108,1.125204 c -0.36074,-0.581959 -0.12195,-1.05811 0.53063,-1.05811 0.65259,0 0.89137,-0.476148 0.53063,-1.058107 -0.36074,-0.58196 -0.12195,-1.058109 0.53063,-1.058109 0.65258,0 0.89137,-0.476149 0.53062,-1.058109 -0.36074,-0.581959 0.18415,-1.058109 1.21087,-1.058109 h 1.86677 l -1.40617,-1.322636 -1.40615,-1.322635 -0.49273,1.341533 c -0.271,0.737841 -1.04704,1.928213 -1.72455,2.645272 -1.68047,1.778597 -2.12219,5.007119 -0.68506,5.007119 0.64372,0 0.87525,-0.47615 0.51451,-1.058109 z m -26.74051,-6.796465 c -0.59283,-1.056193 -1.38635,-1.262006 -2.417,-0.626898 l -1.53444,0.945515 2.08031,2.297662 2.0803,2.297652 0.33671,-1.670755 c 0.18518,-0.918924 -0.0605,-2.378352 -0.54588,-3.243176 z m -6.1376,1.156936 c -0.89104,-1.355872 -1.34784,-2.73664 -1.01511,-3.068377 0.33272,-0.331739 0.0219,-0.962488 -0.69088,-1.401656 -0.82806,-0.510252 -1.02248,-0.357524 -0.53861,0.423096 1.00894,1.627645 -0.72191,1.564709 -2.37798,-0.08644 -1.58768,-1.582966 -13.884148,-1.847356 -13.620957,-0.292866 0.09976,0.589535 -0.773654,1.094116 -1.941032,1.121298 -1.290549,0.03005 -1.988801,0.652165 -1.781389,1.587163 0.683956,3.083244 2.276845,3.601887 5.404624,1.75974 4.049003,-2.384712 9.339374,-2.290984 13.904014,0.246328 2.0338,1.130515 3.82823,2.082814 3.98761,2.116218 0.15938,0.03344 -0.43925,-1.048618 -1.33029,-2.404478 z m 39.86729,-3.905193 c -3.16023,-1.73676 -5.95292,-2.951299 -6.20601,-2.698982 -0.52909,0.527541 9.29069,5.781242 10.89063,5.826613 0.58368,0.01651 -1.52439,-1.390873 -4.68462,-3.127631 z m -33.20226,-2.888056 c 0.58109,-1.600389 1.39525,-3.743059 1.80925,-4.761489 l 0.75271,-1.85169 h -5.69515 -5.69515 l -1.25666,2.006259 -1.25665,2.006259 1.81913,1.641411 c 1.64871,1.487638 6.0366,3.633631 7.77387,3.801976 0.38068,0.03694 1.16756,-1.242336 1.74865,-2.842726 z m -2.97139,0.731133 c 0,-0.616306 -0.39116,-0.879521 -0.86922,-0.584933 -0.47807,0.294588 -0.62373,-0.986718 -0.32368,-2.847349 l 0.54553,-3.382975 0.72876,3.174326 0.72874,3.174326 0.12557,-2.380744 c 0.069,-1.30941 0.57827,-2.380745 1.1316,-2.380745 0.61083,0 0.57004,1.247022 -0.10379,3.174325 -1.12513,3.217954 -1.96351,4.094871 -1.96351,2.053769 z m -3.46901,-3.196695 c 0.37528,-1.430775 0.85633,-1.910404 1.12127,-1.117944 0.25521,0.763362 -0.0406,1.891009 -0.65725,2.505875 -0.78752,0.785191 -0.92564,0.372074 -0.46402,-1.387931 z m -4.49039,3.259145 c -0.36073,-0.581961 -1.22466,-1.050819 -1.91982,-1.04191 -0.75946,0.0095 -0.62856,0.425603 0.32794,1.04191 2.0388,1.313673 2.40618,1.313673 1.59188,0 z m 56.68254,-21.983563 c 7.62142,-15.285745 10.81825,-22.758141 10.3059,-24.089347 l -0.74275,-1.929832 -1.94253,2.04561 c -2.93884,3.094788 -24.12686,43.513673 -23.26224,44.375724 0.24759,0.246858 3.53134,-5.757116 7.29721,-13.342169 3.76589,-7.585051 7.6828,-14.546253 8.70425,-15.469337 l 1.85719,-1.67833 v 1.589249 c 0,0.874092 -0.94522,2.675871 -2.10047,4.003956 -1.15527,1.328085 -1.79782,2.902953 -1.42792,3.499716 0.4173,0.67318 0.13908,0.756273 -0.733,0.218891 -1.00582,-0.619787 -1.22241,-0.390252 -0.7616,0.807062 0.38147,0.991162 -0.0225,1.92815 -0.99102,2.29871 -0.94819,0.362783 -1.37094,1.311589 -1.0064,2.258744 0.40994,1.065124 0.20095,1.36969 -0.60085,0.875606 -0.80818,-0.497988 -1.00879,-0.184249 -0.5855,0.915592 0.38149,0.991162 -0.0225,1.928149 -0.99101,2.298709 -0.94819,0.362783 -1.37095,1.311589 -1.0064,2.258745 0.40994,1.065124 0.20095,1.369689 -0.60087,0.875605 -0.82854,-0.510537 -1.00156,-0.165497 -0.53062,1.05811 0.47094,1.223618 0.29791,1.568656 -0.53062,1.058109 -0.82854,-0.510538 -1.00158,-0.165499 -0.53063,1.058108 0.47094,1.223618 0.2979,1.568658 -0.53063,1.058109 -0.82854,-0.510538 -1.00157,-0.165499 -0.53064,1.058108 0.38436,0.998632 0.27679,1.555631 -0.23906,1.237765 -1.13956,-0.702193 -2.47147,2.383147 -1.62105,3.755101 1.08304,1.747192 1.89994,0.369418 13.10126,-22.096314 z m 6.46205,-19.282677 c 0.62476,-1.16392 1.37472,-2.116217 1.66657,-2.116217 0.29183,0 0.0194,0.952297 -0.60532,2.116217 -0.62475,1.16392 -1.37471,2.116217 -1.66655,2.116217 -0.29185,0 -0.0194,-0.952297 0.6053,-2.116217 z m -65.79773,38.221478 c 0,-0.510706 -0.73938,-1.540374 -1.64308,-2.28816 -2.41693,-1.99992 -1.50998,-5.706697 1.50017,-6.131327 1.38062,-0.194766 3.02822,0.162346 3.66133,0.793582 0.6331,0.631226 3.15992,1.147687 5.61514,1.147687 h 4.46403 l -0.53123,-2.025399 c -1.04079,-3.968161 -5.50544,-6.966852 -10.41304,-6.993919 -2.53255,-0.01397 -4.41563,0.27951 -4.18462,0.652165 0.231,0.372667 -0.52387,1.529221 -1.67748,2.570136 -2.537482,2.289578 -2.754041,7.565879 -0.44542,10.852133 1.66427,2.36903 3.6542,3.144 3.6542,1.423102 z m 2.2542,-6.760383 -1.31869,-1.304998 0.72461,1.897327 c 0.39853,1.043528 0.99195,1.630778 1.3187,1.304997 0.32673,-0.32577 6.6e-4,-1.179568 -0.72462,-1.897326 z m 92.28116,71.616324 c 0.0509,-1.23263 0.3024,-1.48335 0.64117,-0.63928 0.30657,0.76383 0.26887,1.67645 -0.0838,2.02805 -0.35265,0.35161 -0.60347,-0.27335 -0.55739,-1.38877 z m -1.53102,-5.73142 c -0.43751,-2.03686 -1.05517,-5.46603 -1.3726,-7.6204 l -0.57713,-3.917 4.66257,-4.92019 4.66256,-4.92018 1.54625,1.89308 1.54625,1.89307 -1.91536,-0.71622 c -1.27856,-0.47809 -2.86271,0.15961 -4.7648,1.91811 l -2.84943,2.63432 h 2.88738 2.88738 l 0.66935,2.65902 c 1.29245,5.13429 -3.43462,7.68335 -6.40563,3.45419 -2.00139,-2.84891 -2.25114,-0.7357 -0.50374,4.26206 0.63159,1.80639 0.9625,4.13916 0.73538,5.18393 -0.26149,1.20288 -0.70472,0.54128 -1.20843,-1.80379 z m 2.87471,-10.09767 c -0.34563,-0.89803 -0.85604,-1.40586 -1.13421,-1.1285 -0.27819,0.27735 -0.19101,1.01212 0.19372,1.63279 1.04646,1.68817 1.6581,1.36021 0.94049,-0.50429 z"
       id="path6" />
  </g>
</svg>
