<?xml version="1.0" encoding="UTF-8" standalone="no"?>
<!-- Created with Inkscape (http://www.inkscape.org/) -->

<svg
   version="1.1"
   id="svg1"
   width="300"
   height="300"
   viewBox="0 0 300.00001 300.00001"
   sodipodi:docname="ficha_explorador.svg"
   inkscape:version="1.4 (86a8ad7, 2024-10-11)"
   xml:space="preserve"
   xmlns:inkscape="http://www.inkscape.org/namespaces/inkscape"
   xmlns:sodipodi="http://sodipodi.sourceforge.net/DTD/sodipodi-0.dtd"
   xmlns="http://www.w3.org/2000/svg"
   xmlns:svg="http://www.w3.org/2000/svg"><defs
     id="defs1" /><sodipodi:namedview
     id="namedview1"
     pagecolor="#ffffff"
     bordercolor="#000000"
     borderopacity="0.25"
     inkscape:showpageshadow="2"
     inkscape:pageopacity="0.0"
     inkscape:pagecheckerboard="0"
     inkscape:deskcolor="#d1d1d1"
     inkscape:zoom="1.1911765"
     inkscape:cx="-486.49383"
     inkscape:cy="347.97531"
     inkscape:window-width="3440"
     inkscape:window-height="1417"
     inkscape:window-x="-8"
     inkscape:window-y="-8"
     inkscape:window-maximized="1"
     inkscape:current-layer="g1" /><g
     inkscape:groupmode="layer"
     inkscape:label="Image"
     id="g1"
     transform="translate(24.580238,6.4074245)"><circle
       style="fill:#ffffff;stroke:#000000;stroke-width:0.961425"
       id="path7"
       cx="125.41976"
       cy="143.59258"
       r="149.51929" /><path
       style="fill:#000000;stroke-width:1.28991"
       d="m 78.287838,177.2819 c 6.716488,-11.55053 10.400592,-10.97922 4.581907,-16.16371 -4.822784,-4.29712 -2.777552,-6.04872 2.3517,-2.01406 4.243357,3.33782 5.166803,3.35369 6.016775,0.10334 0.784007,-2.99806 3.495987,-3.49838 3.495987,-0.64496 0,1.06418 0.661577,1.93487 1.470181,1.93487 0.808598,0 2.183342,0.9753 3.054972,2.16734 2.40636,3.29088 4.27311,-1.17023 5.88118,-14.05462 0.73355,-5.87739 2.23025,-13.17215 3.326,-16.2106 2.28666,-6.34072 0.96741,-9.30954 -4.1369,-9.30954 -2.59489,0 -3.09049,0.80577 -3.76854,6.12709 -1.5551,12.2042 -2.31987,20.7526 -3.630913,20.7526 -0.763321,0 -0.814532,-7.75855 -0.417882,-9.78836 0.381237,-1.951 1.06825,-7.61047 1.526705,-12.57663 0.90359,-9.78822 2.99389,-14.33183 7.41215,-16.11152 2.37885,-0.95821 2.03633,-1.15173 -2.16044,-1.22052 -4.51141,-0.0739 -4.9184,-0.35883 -4.26336,-2.98407 0.3983,-1.59626 1.9544,-7.921372 3.45802,-14.055796 3.74202,-15.266734 4.79727,-16.579425 10.75059,-13.373347 4.32493,2.329124 4.7258,2.344963 7.01083,0.27702 1.33299,-1.206342 2.83368,-2.193348 3.33487,-2.193348 1.99921,0 7.20271,-4.225016 6.5347,-5.305891 -0.39226,-0.634682 -2.663,0.33322 -5.04609,2.150894 -3.77932,2.882628 -4.6756,3.090843 -7.0152,1.629734 -2.95472,-1.845258 -3.35254,-3.067896 -1.3924,-4.279336 2.22058,-1.372386 1.46011,-4.736626 -0.9651,-4.269573 -1.24028,0.238854 -2.25609,1.29722 -2.25736,2.351927 -10e-4,1.054704 -0.58277,2.053839 -1.29222,2.220299 -0.73355,0.172111 -1.30815,-2.68526 -1.33221,-6.62474 -0.0241,-3.93763 -0.81127,-7.853964 -1.82406,-9.074291 -1.52752,-1.840556 -1.48358,-2.44508 0.30798,-4.236633 1.91644,-1.916445 1.91909,-2.378609 0.032,-5.573212 -2.01944,-3.418638 4.63258,-12.846149 9.0642,-12.846149 0.65765,0 2.63452,-1.552475 4.39304,-3.449944 l 3.1973,-3.449944 2.39525,3.127467 c 4.11156,5.368402 10.20968,17.550921 10.20968,20.396358 0,1.495315 1.95994,5.477283 4.35543,8.848819 6.34424,8.929247 8.80166,14.313584 8.80166,19.284913 0,2.924208 1.03819,5.437856 3.09578,7.495449 4.66638,4.666372 3.87631,5.792873 -4.06278,5.792873 -8.19616,0 -13.056,2.105413 -17.75776,7.693136 -1.81233,2.153835 -3.82599,3.916065 -4.47481,3.916065 -0.64881,0 -7.33441,2.18621 -7.64336,6.04072 -0.59982,7.48335 -7.7899,3.25303 -11.33716,4.46916 -8.3178,2.85164 -8.45701,5.48524 -0.3175,6.00736 5.55568,0.35639 6.24982,0.0836 7.38507,-2.9023 2.34163,-6.15895 5.18658,-4.0752 5.18658,3.79885 0,8.60349 3.77301,10.73363 3.99831,2.25735 0.20885,-7.85692 1.60269,-10.87128 6.15595,-13.31323 4.57147,-2.45171 7.9045,-2.08292 7.9045,0.8746 0,2.10813 -1.81359,2.2977 -5.109,0.53406 -4.77909,-2.5577 -8.40337,12.84538 -3.72817,15.8446 3.02411,1.94001 8.83717,-2.05227 8.83717,-6.06916 0,-4.23193 3.01435,-6.58288 5.14646,-4.01385 1.50964,1.819 9.04256,2.83619 9.04256,1.22101 0,-0.40136 -0.60087,-1.85251 -1.33529,-3.22477 -1.00055,-1.86956 -0.91972,-2.4723 0.32248,-2.40437 2.86465,0.15667 5.52243,1.78078 5.6565,3.45659 0.0709,0.88681 0.21605,2.48309 0.32247,3.54727 0.25165,2.51643 5.21173,2.51432 6.17757,-0.002 0.94998,-2.4756 -2.70064,-11.68584 -6.7419,-17.0094 -4.36495,-5.749935 -1.36914,-7.060359 3.45803,-1.51261 6.29423,7.2338 9.67105,17.75197 9.05236,28.1964 -0.1972,3.32912 0.11131,4.13355 1.17672,3.06816 4.88661,-4.88663 0.0811,-23.13676 -8.44925,-32.0886 -4.28182,-4.493347 -7.4965,-5.444077 -5.3526,-5.859037 3.62975,-0.702542 15.99412,10.838847 18.32655,18.669787 4.15858,13.96215 1.16706,24.69824 -9.66323,34.67959 -3.2202,2.9678 -5.63258,5.97648 -5.36084,6.68593 1.68216,4.39167 8.16833,39.49327 7.43348,40.22814 -0.34535,0.34533 -1.61171,-0.87362 -2.81418,-2.70881 -1.20245,-1.83518 -2.89185,-3.3367 -3.75419,-3.3367 -0.86234,0 -4.37376,-1.42049 -7.80314,-3.15668 -14.7305,-7.45753 -16.42707,7.68028 -2.42953,21.6778 4.162,4.16201 5.34667,6.21485 4.79778,8.31377 -0.57505,2.19899 0.0501,3.08601 2.96286,4.20368 l 3.69168,1.41659 -3.72108,2.98566 c -6.18198,4.96021 -4.03515,9.70605 4.39061,9.70605 h 6.42498 V 221.8609 c 0,-14.94194 -0.19537,-15.20027 -14.83397,-19.61545 -5.50387,-1.66004 -6.20657,-6.70306 -0.89679,-6.43601 2.06728,0.10397 4.61044,0.89591 5.65145,1.75987 1.04103,0.86397 3.93796,2.4254 6.43767,3.46985 5.38677,2.25074 8.5882,15.13516 6.97293,28.06327 -0.95642,7.65498 1.96701,16.50046 6.94118,21.00202 3.79493,3.43438 3.26178,4.50544 -2.21052,4.44075 -21.56445,-0.25492 -33.86017,0.15809 -33.86017,1.13733 0,2.07918 -51.330861,1.85276 -59.388861,-0.26197 -4.048373,-1.06247 -9.501509,-1.56004 -12.57663,-1.14757 -3.240619,0.43465 -5.429159,0.20894 -5.429159,-0.55993 0,-1.20541 13.869561,-11.03417 20.316096,-14.39713 6.044087,-3.15301 2.752011,1.28473 -4.299143,5.79531 -9.096478,5.81894 -8.351515,6.48121 4.21419,3.74639 15.264987,-3.32229 17.208757,-4.96253 9.436799,-7.96316 l -4.514681,-1.74304 5.078088,0.61852 c 2.792951,0.34019 5.840361,-0.014 6.772031,-0.78732 1.34765,-1.11844 1.69394,-0.41303 1.69394,3.45054 v 4.85638 l 7.67945,-0.80266 c 4.92143,-0.51439 7.98685,-0.30527 8.53538,0.5823 0.78276,1.26652 3.90777,1.14195 13.45313,-0.53629 1.77362,-0.31183 7.14287,-0.97852 11.93167,-1.48149 5.13703,-0.53957 8.70691,-1.51897 8.70691,-2.3888 0,-0.81083 0.90359,-0.18417 2.008,1.39259 4.35822,6.22222 14.47732,2.47924 12.6093,-4.66408 -0.95945,-3.66891 -11.1694,-4.11047 -13.15144,-0.56879 -1.02472,1.83106 -1.36101,1.43594 -1.9212,-2.25733 -0.37351,-2.46232 -1.37664,-8.97551 -2.22921,-14.47374 l -1.55014,-9.99683 h -4.81593 c -8.81122,0 -12.62034,-1.51935 -19.75789,-7.88095 -8.66523,-7.72318 -8.16918,-7.74811 -9.23932,0.46397 -1.92855,14.79898 -11.92707,34.09967 -15.70688,30.31985 -2.01775,-2.01776 -1.94757,-2.23836 1.07781,-3.38861 6.65411,-2.52989 10.50302,-20.68307 4.4068,-20.7844 -0.65359,-0.0107 -2.21329,-0.94732 -3.46598,-2.08098 -2.83299,-2.56384 -5.02,-1.35772 -5.02,2.76848 0,1.72413 -1.06265,5.93146 -2.361439,9.34957 -1.363816,3.58931 -1.976952,7.27345 -1.451317,8.72075 1.179213,3.24691 0.412751,4.4408 -2.850948,4.4408 -2.019838,0 -2.416839,-0.53135 -1.686475,-2.25733 2.663827,-6.29513 5.808417,-22.36529 5.489854,-28.05557 -0.396698,-7.08608 1.790625,-10.04532 2.860325,-3.86972 0.88513,5.11013 6.06802,5.73501 5.34917,0.64495 -0.25047,-1.77362 -1.12116,-3.66013 -1.93486,-4.19224 -1.43075,-0.93563 2.1646,-2.60514 4.80219,-2.22993 0.61711,0.0878 2.06826,-1.26088 3.22478,-2.99705 1.15652,-1.73616 3.19949,-4.70212 4.5399,-6.59102 4.08661,-5.75877 -6.52335,-15.41634 -10.94188,-9.95969 -2.99291,3.69609 -3.7494,3.47047 -3.7494,-1.1182 0,-2.46533 -0.65836,-3.86973 -1.81411,-3.86973 -1.17904,0 -1.577932,0.90312 -1.13946,2.57982 0.80589,3.08173 -0.628518,3.28272 -4.429166,0.62064 -2.660535,-1.86351 -8.797951,3.6313 -16.608013,12.70572 -6.204514,7.20895 -21.678535,14.15924 -31.97541,8.66002 0,0 22.966038,0.565 33.070277,-16.81156 z m 81.518782,72.32953 c 0.87238,-1.41153 -1.8556,-2.5512 -4.11672,-1.71985 -0.88275,0.32455 -1.28383,1.10973 -0.89131,1.74485 0.92852,1.50236 4.07378,1.48666 5.00803,-0.0251 z m -43.67944,-49.11151 c 1.72589,-7.66313 -0.2434,-7.57401 -3.82959,0.1733 -1.99853,4.31747 -2.11973,5.44197 -0.68231,6.33034 2.36886,1.46404 2.88497,0.72008 4.5119,-6.50364 z m 32.20375,-26.22478 c -7.54626,-7.54626 -7.84656,-8.11673 -5.89479,-11.19792 0.99909,-1.5772 2.68984,-0.5042 9.14656,5.80461 8.93476,8.73008 9.3551,6.96137 1.40066,-5.89363 -3.93807,-6.36424 -5.46405,-7.76168 -9.23255,-8.45478 -9.08635,-1.67119 -19.68711,-8.84427 -22.41118,-15.16467 -0.95402,-2.21354 -2.38416,-5.62087 -3.17811,-7.57187 -2.63599,-6.47757 -6.33284,-4.66782 -7.36661,3.60625 -1.06776,8.54612 -0.68856,9.15039 3.61697,5.76367 5.05883,-3.97927 5.45497,-3.11247 1.09398,2.39373 -6.62991,8.37095 -12.12685,21.13381 -9.68971,22.49769 1.10586,0.61887 2.18867,0.92689 2.40623,0.6845 0.21759,-0.2424 3.62528,-5.20563 7.57265,-11.0294 6.11908,-9.02782 7.30349,-10.19031 8.03481,-7.88613 0.47177,1.48641 2.68004,5.18761 4.90726,8.22491 2.2272,3.03728 5.79085,7.95446 7.91922,10.92708 3.57038,4.98665 17.19406,16.09641 18.33706,14.95339 0.27363,-0.27361 -2.72448,-3.71946 -6.66245,-7.65743 z M 96.024118,163.07722 c 0,-0.70945 -0.614719,-1.28991 -1.366048,-1.28991 -0.751318,0 -1.007291,0.58046 -0.568817,1.28991 0.438463,0.70945 1.053181,1.28991 1.366037,1.28991 0.312855,0 0.568828,-0.58046 0.568828,-1.28991 z m 62.940842,-8.43421 c -0.27105,-0.27106 -1.84505,-0.13921 -3.49777,0.29298 l -3.00494,0.7858 3.06128,1.65309 c 2.78782,1.50543 5.51435,-0.65896 3.44143,-2.73187 z m -6.22213,-28.92283 c 1.04364,-0.66 1.54748,-1.55005 1.11965,-1.97788 -1.19355,-1.19355 -7.61153,0.755 -6.80184,2.0651 0.91255,1.47656 3.26666,1.44042 5.68219,-0.0872 z m -6.41219,-5.21001 c 0,-0.70946 -0.58046,-1.28991 -1.28991,-1.28991 -0.70946,0 -1.28992,0.58045 -1.28992,1.28991 0,0.70945 0.58046,1.2899 1.28992,1.2899 0.70945,0 1.28991,-0.58045 1.28991,-1.2899 z m -1.53702,-51.667905 c -1.63771,-2.983101 -3.55022,-6.508189 -4.24999,-7.833526 -1.2428,-2.353815 -8.0314,-6.284035 -10.85431,-6.284035 -2.20234,0 -1.66817,5.144397 0.62559,6.024591 1.56625,0.601029 1.66184,1.019568 0.40956,1.793511 -1.84065,1.137588 3.18081,9.634738 6.43894,10.895771 2.91046,1.12647 2.82674,0.174195 -0.54088,-6.15187 -3.74647,-7.037743 -3.80677,-7.402359 -1.22421,-7.402359 1.08173,0 2.5078,1.42293 3.16901,3.162067 2.03681,5.357219 8.16773,14.328356 8.70028,12.730756 0.27704,-0.8311 -0.83627,-3.951807 -2.47399,-6.934906 z m -19.38857,1.933183 c 2.55571,-1.790091 4.02533,-5.731456 2.13707,-5.731456 -1.88021,0 -5.79641,2.892582 -7.02552,5.189206 -1.7167,3.207713 0.7002,3.475808 4.88845,0.54225 z m -7.45246,-14.15636 c 0,-1.086443 0.8707,-2.309466 1.93487,-2.717828 2.79552,-1.072743 2.50998,-5.706087 -0.32248,-5.232467 -6.58454,1.101019 -9.73672,5.155066 -6.51404,8.377751 2.16752,2.167532 4.90165,1.929099 4.90165,-0.427456 z m 16.76885,-7.001827 c 0,-2.207246 -6.99724,-7.904239 -10.64176,-8.66429 -4.74213,-0.988951 -4.52607,-2.997109 0.32248,-2.997109 2.50938,0 3.86972,-0.653414 3.86972,-1.858739 0,-4.459693 -6.96369,-3.826912 -8.15832,0.741334 -0.4405,1.684468 -1.32336,2.346252 -2.39662,1.79649 -0.93456,-0.478718 -0.64475,-0.0095 0.64404,1.042658 1.28877,1.052181 2.25756,2.327154 2.15287,2.833274 -0.24971,1.207171 10.5113,8.331433 12.5952,8.338571 0.88681,0.0029 1.61239,-0.551448 1.61239,-1.232189 z m -20.63857,-3.921933 c 0,-1.418903 -0.58046,-2.579822 -1.28992,-2.579822 -0.70945,0 -1.28991,1.160919 -1.28991,2.579822 0,1.418902 0.58046,2.579822 1.28991,2.579822 0.70946,0 1.28992,-1.16092 1.28992,-2.579822 z m 27.74608,192.175692 c 0.44563,-0.72103 1.35056,-0.97699 2.011,-0.56883 1.78915,1.10576 1.45555,1.87977 -0.81022,1.87977 -1.10605,0 -1.64639,-0.58992 -1.20078,-1.31094 z M 99.99742,183.7158 c 1.88043,-3.94846 2.47624,-4.68024 2.47624,-3.04134 0,0.69209 -0.90269,2.3851 -2.00602,3.76223 -1.89149,2.36094 -1.91835,2.31978 -0.47022,-0.72089 z m -4.698388,-27.21778 c -2.075819,-3.35873 0.639783,-7.59337 3.913078,-6.10195 2.47221,1.12641 2.89595,1.92473 1.95488,3.68311 -1.49826,2.79952 -4.793249,4.15777 -5.867958,2.41884 z m 36.842578,-37.27776 c 0,-0.70946 0.61472,-1.28992 1.36605,-1.28992 0.75133,0 1.00729,0.58046 0.56882,1.28992 -0.43846,0.70944 -1.05318,1.28991 -1.36604,1.28991 -0.31285,0 -0.56883,-0.58047 -0.56883,-1.28991 z m 18.79804,-11.1836 c -0.90326,-2.35382 1.19409,-4.24454 4.74284,-4.27559 3.86242,-0.0338 0.85349,6.19389 -3.08677,6.38878 -0.45619,0.0225 -1.20143,-0.92837 -1.65607,-2.11319 z m -5.89892,-4.29534 c 0,-0.70945 0.58046,-1.28991 1.28991,-1.28991 0.70945,0 1.2899,0.58046 1.2899,1.28991 0,0.70945 -0.58045,1.28992 -1.2899,1.28992 -0.70945,0 -1.28991,-0.58047 -1.28991,-1.28992 z"
       id="path57"
       sodipodi:nodetypes="ssssssssssssssscsssssssssscscssssscssssssssssssssssssssssssscsssssssscssssssscsscsssssssssssssssscscscsssssssssscssssscssssssssssssssssssssscssccssssssssssssssssssssssssssssscsssssssssssssssssssssssssssssssssssssssscssssssssssssssssssssssssscssssss" /></g></svg>
