<?xml version="1.0" encoding="UTF-8" standalone="no"?>
<!-- Created with Inkscape (http://www.inkscape.org/) -->

<svg
   version="1.1"
   id="svg1"
   width="300"
   height="300"
   viewBox="0 0 300.00001 300.00001"
   sodipodi:docname="ficha_infanteria.svg"
   inkscape:version="1.4 (86a8ad7, 2024-10-11)"
   xml:space="preserve"
   xmlns:inkscape="http://www.inkscape.org/namespaces/inkscape"
   xmlns:sodipodi="http://sodipodi.sourceforge.net/DTD/sodipodi-0.dtd"
   xmlns="http://www.w3.org/2000/svg"
   xmlns:svg="http://www.w3.org/2000/svg"><defs
     id="defs1" /><sodipodi:namedview
     id="namedview1"
     pagecolor="#ffffff"
     bordercolor="#000000"
     borderopacity="0.25"
     inkscape:showpageshadow="2"
     inkscape:pageopacity="0.0"
     inkscape:pagecheckerboard="0"
     inkscape:deskcolor="#d1d1d1"
     inkscape:zoom="2.3823529"
     inkscape:cx="80.382716"
     inkscape:cy="172.30864"
     inkscape:window-width="3440"
     inkscape:window-height="1417"
     inkscape:window-x="-8"
     inkscape:window-y="-8"
     inkscape:window-maximized="1"
     inkscape:current-layer="g1" /><g
     inkscape:groupmode="layer"
     inkscape:label="Image"
     id="g1"
     transform="translate(24.580238,6.4074245)"><circle
       style="fill:#ffffff;stroke:#000000;stroke-width:0.961425"
       id="path7"
       cx="125.41976"
       cy="143.59258"
       r="149.51929" /><path
       style="fill:#000000;stroke-width:1.39862"
       d="m 116.73373,268.07693 c -0.97274,-2.73726 1.35229,-6.89723 3.85488,-6.89723 2.75537,0 2.57923,1.83218 -0.54735,5.69333 l -2.59606,3.206 z m 21.9876,0.0958 c 0.47542,-0.76923 1.77132,-1.39861 2.87977,-1.39861 1.10845,0 2.01537,0.62938 2.01537,1.39861 0,0.76925 -1.29588,1.39861 -2.87975,1.39861 -1.58387,0 -2.4908,-0.62936 -2.01539,-1.39861 z m -41.019329,-1.08562 c -3.436449,-1.14548 -1.431235,-3.11021 3.174319,-3.11021 2.64693,0 5.20157,-0.62938 5.67699,-1.39861 1.65548,-2.67863 5.1079,-1.51921 4.64275,1.55917 l -0.44693,2.95777 -5.70443,0.269 c -3.13743,0.14793 -6.44165,0.0231 -7.342699,-0.27712 z m -30.140127,-1.43709 c -0.485234,-0.78514 1.595785,-3.39018 4.624503,-5.78896 6.771876,-5.36344 9.009652,-11.53905 7.771672,-21.44754 -1.002215,-8.02145 0.907195,-16.48002 7.236172,-32.05573 l 3.513155,-8.64591 -0.938188,-6.37822 c -0.516003,-3.50804 -2.772381,-9.37722 -5.014172,-13.04265 -7.373975,-12.05675 -4.359565,-12.55613 3.535548,-0.58571 2.630002,3.98756 8.444411,12.41837 12.920906,18.73514 4.47647,6.31677 15.32396,21.67321 24.10553,34.12541 11.32643,16.06083 17.11835,23.07517 19.93019,24.13649 4.16966,1.57389 4.76642,3.04238 2.61737,6.4407 l -1.30354,2.06126 -3.53459,-3.32059 c -1.94403,-1.82631 -8.11359,-9.77864 -13.71012,-17.67185 l -10.17552,-14.35129 -7.32825,-0.9219 c -12.87062,-1.61914 -17.835605,4.43555 -19.467433,23.74013 -1.111685,13.15115 -2.930929,15.06347 -15.065466,15.83613 -5.130172,0.32667 -9.205499,-0.0361 -9.717767,-0.86491 z m 48.082386,-43.05313 c 0,-1.81348 -8.87359,-13.03301 -9.83698,-12.43761 -1.46114,0.90303 -3.05926,10.22822 -2.03647,11.88311 0.89607,1.44991 11.87345,1.96257 11.87345,0.5545 z m 11.18889,42.92826 c 0,-0.68694 0.99554,-1.63101 2.2123,-2.09792 3.92604,-1.50655 7.57798,-0.90465 7.57798,1.24898 0,1.4652 -1.47632,2.09791 -4.89515,2.09791 -2.69232,0 -4.89513,-0.56203 -4.89513,-1.24897 z m 43.35691,-0.73369 -10.48957,-1.56921 0.46155,-6.44948 c 0.664,-9.27811 -7.67597,-30.43348 -12.74514,-32.32962 -3.64564,-1.36368 -14.30459,1.13756 -13.76986,3.23126 0.2861,1.12009 0.83249,3.29528 1.21424,4.83376 0.38173,1.53847 -1.42576,-0.31145 -4.01669,-4.11094 -9.72203,-14.25702 -7.61244,-11.33613 -21.34045,-29.54763 -3.76169,-4.99024 -6.383,-9.52851 -5.82512,-10.08506 0.94056,-0.9383 3.47535,1.66937 9.46998,9.74232 l 2.39988,3.23189 1.35395,-2.03104 c 0.74468,-1.11705 1.75177,-4.9234 2.23796,-8.45854 1.18125,-8.58873 3.52467,-12.29876 2.60436,-4.12314 -0.38514,3.42158 -1.27469,9.18867 -1.97676,12.81575 -1.4892,7.69367 -0.63315,10.88793 2.91794,10.88793 h 2.54694 l 0.96108,-7.69236 c 0.52861,-4.23079 1.59904,-7.69235 2.37876,-7.69235 1.68607,0 0.29426,12.45949 -1.93949,17.36203 -1.07965,2.36959 -1.03039,4.1162 0.17987,6.37761 l 1.66672,3.11431 6.34833,-0.95199 c 3.49159,-0.5236 7.15445,-1.26133 8.13971,-1.63942 3.82511,-1.46783 5.67547,-59.24807 2.22143,-69.36772 l -1.79014,-5.24479 h -3.91177 -3.91177 l 0.57842,12.93715 c 0.31813,7.11542 0.74324,14.55723 0.94468,16.53733 0.20144,1.98009 -0.45255,4.36506 -1.4533,5.29993 l -1.81961,1.69973 v -7.66495 c 0,-4.21572 -0.62937,-8.05392 -1.3986,-8.52934 -0.76923,-0.47541 -1.39862,-5.54756 -1.39862,-11.27143 v -10.40703 h -2.90026 c -1.59515,0 -7.65608,-1.59647 -13.46872,-3.54771 -5.81263,-1.95123 -10.77209,-3.34405 -11.02101,-3.09513 -1.81834,1.81834 -3.40755,27.17299 -2.08865,33.32279 0.82855,3.86341 1.48551,8.0948 1.45992,9.4031 l -0.0466,2.37873 -2.90491,-3.49227 c -1.59769,-1.92076 -4.798215,-7.27044 -7.112271,-11.88818 -2.314042,-4.61776 -4.434587,-8.64529 -4.712296,-8.95007 -0.277722,-0.30478 -3.24693,1.97333 -6.598265,5.06249 -8.895413,8.1995 -13.385832,10.89512 -15.172712,9.10823 -2.065089,-2.06508 -0.204883,-4.52561 3.421448,-4.52561 1.839298,0 6.487846,-3.42932 11.84911,-8.7413 l 8.822392,-8.74132 2.719374,-9.12628 c 1.495659,-5.01944 3.592783,-10.32073 4.660294,-11.78062 l 1.940916,-2.65438 8.4265,3.15132 c 8.15656,3.05033 14.68407,4.91394 23.425,6.68781 8.46765,1.7184 9.67158,1.36678 10.48111,-3.06118 1.07311,-5.86975 2.07794,-3.40902 4.85441,11.88819 1.32638,7.30774 4.19119,18.95117 6.36625,25.87428 2.17506,6.92312 4.92833,17.03203 6.11837,22.46425 1.19006,5.4322 3.43376,13.92876 4.98603,18.88124 1.55227,4.95246 2.85638,13.09543 2.898,18.09546 0.0535,6.42593 0.9813,10.93599 3.16491,15.38471 l 3.08922,6.29374 10.11068,4.89515 c 17.52296,8.48384 12.01998,11.64136 -13.60721,7.8076 z m -69.9305,-129.05469 c 0,-1.00683 -0.62937,-1.83061 -1.39861,-1.83061 -0.76923,0 -1.39861,0.89261 -1.39861,1.98353 0,1.09095 -0.366066,3.13641 -0.813478,4.54549 l -0.813488,2.56196 2.212096,-2.71489 c 1.21665,-1.49319 2.21209,-3.53865 2.21209,-4.54548 z m 36.4064,62.77518 c -0.0234,-1.00553 0.53616,-4.46709 1.24346,-7.69235 0.70732,-3.22528 2.02214,-9.53186 2.92181,-14.01465 2.52634,-12.58766 3.16178,-8.40268 0.87823,5.78373 -1.79661,11.16119 -4.92455,21.0367 -5.0435,15.92327 z m 25.56959,-29.36413 c -2.45192,-1.52453 -4.24574,-6.9609 -10.47476,-31.7451 -6.25155,-24.87381 -6.59513,-25.79564 -8.40736,-22.55738 -0.701,1.25265 -1.87266,2.27754 -2.60369,2.27754 -2.15438,0 -1.51817,-4.21109 0.76881,-5.08866 5.22196,-2.00387 -4.08392,-36.100635 -11.74499,-43.033827 -3.54831,-3.211167 -4.0724,-8.555592 -0.71257,-7.266297 1.22532,0.470199 3.90016,1.249503 5.9441,1.731801 2.04394,0.482282 4.97499,1.959258 6.51346,3.282147 4.15221,3.570372 7.06394,4.219844 9.97936,2.22593 1.43448,-0.981056 4.34614,-2.206127 6.47033,-2.72238 l 3.86219,-0.938636 1.30531,3.177545 c 5.14909,12.534554 8.86411,86.541127 4.71505,93.928157 l -1.48178,2.63817 -1.00651,-6.71194 c -0.55359,-3.69156 -1.16207,-14.94873 -1.35217,-25.01593 -0.51773,-27.41676 -3.85899,-36.30981 -9.11037,-24.2481 -2.8146,6.46472 -3.02923,6.23929 -5.56157,-5.84171 -1.50308,-7.170629 -0.37665,-12.291723 1.89512,-8.615913 0.51684,0.83626 2.23998,1.520476 3.82921,1.520476 h 2.8895 l -0.77145,-3.846179 c -1.6643,-8.297773 -6.41085,-17.132975 -9.20437,-17.132975 -4.27053,0 -7.15716,1.507785 -7.15716,3.738456 0,6.931051 18.24291,79.214145 21.20684,84.026945 2.93415,4.76445 3.04245,7.97931 0.20947,6.21786 z m -0.16323,-89.437779 c -0.40524,-2.115397 -1.00669,-3.03869 -1.33658,-2.051775 -0.5949,1.779732 0.46931,5.897953 1.52413,5.897953 0.30209,0 0.2177,-1.73078 -0.18755,-3.846178 z m -2.05131,-8.187688 c -0.46474,-0.464758 -1.67105,-0.514436 -2.68067,-0.11035 -1.11573,0.446465 -0.7843,0.777878 0.84499,0.844984 1.47437,0.0607 2.30042,-0.26982 1.83568,-0.734577 z M 70.436465,160.82939 c -0.339554,-0.57692 -1.065364,-3.13669 -1.61292,-5.68836 l -0.99553,-4.63942 2.579331,-2.84704 2.579317,-2.84704 0.359736,-15.32991 c 0.240169,-10.23445 1.053699,-16.67191 2.447569,-19.36734 1.34956,-2.60976 2.098698,-8.14212 2.118558,-15.645423 0.04504,-17.00225 4.931135,-26.2934 13.827514,-26.2934 6.7028,0 10.47405,20.614172 5.159373,28.201932 -2.505328,3.576861 -2.884897,8.528771 -0.933257,12.175411 0.789294,1.47486 0.797708,3.22649 0.02137,4.45356 l -1.279606,2.02254 -0.02139,-2.27631 c -0.01117,-1.25197 -0.881973,-2.99052 -1.93377,-3.86343 l -1.912348,-1.58709 -1.771605,2.13465 c -1.145084,1.37974 -1.483813,4.23433 -0.957825,8.07189 1.051462,7.67127 -1.223713,17.66436 -4.916967,21.59645 l -2.908886,3.09701 0.828914,6.04757 0.828914,6.04757 -4.753078,3.79257 c -5.110102,4.07744 -5.802764,4.35885 -6.753427,2.74361 z m -5.142159,-19.34744 c 0,-2.46984 3.010872,-2.03972 3.875325,0.55362 0.304477,0.91347 -0.442898,1.66085 -1.66085,1.66085 -1.217965,0 -2.214475,-0.99651 -2.214475,-2.21447 z m 60.140234,-10.31912 c 0,-1.2225 -3.42906,-2.37911 -14.33577,-4.83543 -2.11539,-0.47642 -3.84616,-1.7545 -3.84616,-2.8402 0,-1.0857 -1.28368,-2.17512 -2.85262,-2.42092 -6.34224,-0.99366 -1.45267,-3.24415 7.04844,-3.24415 h 9.09098 l 0.42628,-6.64341 0.42629,-6.6434 -3.22351,0.008 c -1.77293,0.004 -5.04793,0.96006 -7.27778,2.12293 -5.00048,2.60777 -5.134,2.47404 -5.46641,-5.47518 l -0.26959,-6.44693 2.29793,1.46e-4 c 1.26387,8.3e-5 2.66021,0.944194 3.10299,2.098054 0.75775,1.97469 10.6831,3.19014 10.6831,1.30823 0,-0.434323 -1.34449,-3.915032 -2.98776,-7.734916 -3.44421,-8.006304 -3.33835,-8.239171 4.2066,-9.25115 l 5.64568,-0.75725 -1.19862,4.721024 c -0.65923,2.596548 -1.58635,6.451789 -2.06029,8.567186 l -0.86168,3.846184 h 3.56707 c 1.96189,0 3.92932,-0.944064 4.37211,-2.097924 2.00531,-5.225778 4.70161,-2.017464 4.70161,5.594446 0,8.54881 -1.3736,9.51738 -6.57179,4.63395 -4.57474,-4.29775 -6.6057,-1.88983 -5.04834,5.98527 l 1.19719,6.05374 3.19608,0.75448 c 7.16478,1.69136 1.78113,3.53914 -9.55647,3.27993 l -11.88819,-0.27179 6.99304,1.26471 c 3.84618,0.69558 9.82525,1.38877 13.28681,1.54038 8.63034,0.37806 14.56277,5.43084 6.37629,5.43084 -1.87769,0 -3.80296,0.62939 -4.27838,1.39862 -1.1045,1.78716 -4.89513,1.82889 -4.89513,0.0538 z M 104.45539,71.875004 96.763032,68.715866 96.333537,65.082374 c -0.274991,-2.326265 0.519368,-4.311117 2.207923,-5.516985 4.19383,-2.994998 6.17913,-10.464066 4.37871,-16.473363 -2.84319,-9.489697 5.03694,-25.270534 12.61879,-25.270534 4.0562,0 17.93851,15.600053 19.02204,21.375754 1.2756,6.799539 -0.41693,9.327611 -3.50443,5.234425 l -2.36937,-3.141153 -4.42355,2.287511 c -2.73499,1.414316 -4.42355,3.358301 -4.42355,5.092703 0,3.305434 3.99903,5.298831 5.56077,2.771891 1.66833,-2.699429 3.26659,0.816426 2.23661,4.920144 -0.55055,2.19358 -1.85552,3.417028 -3.64472,3.417028 h -2.7871 l 0.87562,5.475895 0.87563,5.475894 -4.28616,2.216463 c -5.2841,2.732507 -4.87359,2.7635 -14.21536,-1.073043 z m 11.18887,-31.741557 c 13.43001,-2.347664 14.27235,-4.71726 4.93461,-13.881568 l -6.25429,-6.138119 -3.02972,2.700046 c -3.8579,3.438123 -6.83947,10.453011 -6.83947,16.09155 v 4.390392 l 2.44756,-1.031043 c 1.34617,-0.567079 5.27975,-1.526148 8.74131,-2.131258 z"
       id="path8"
       sodipodi:nodetypes="ssscsssssscssscscsssscssssssscsscsssssssssssssccsssssssscssssscsssscssscccssccssscsscsccssssssscsscssssssssscsccsssscsssscsssssscsssssscsscsssssscsssssssssscssssscccsscssssccscssscccssssssscssssccccsscssssscsscscssscsscscssccscsssssscssssscccsssscsscss" /></g></svg>
